%TF.GenerationSoftware,KiCad,Pcbnew,6.0.2+dfsg-1*%
%TF.CreationDate,2026-02-14T00:25:33+01:00*%
%TF.ProjectId,usb_button_interface,7573625f-6275-4747-946f-6e5f696e7465,rev?*%
%TF.SameCoordinates,Original*%
%TF.FileFunction,Legend,Top*%
%TF.FilePolarity,Positive*%
%FSLAX46Y46*%
G04 Gerber Fmt 4.6, Leading zero omitted, Abs format (unit mm)*
G04 Created by KiCad (PCBNEW 6.0.2+dfsg-1) date 2026-02-14 00:25:33*
%MOMM*%
%LPD*%
G01*
G04 APERTURE LIST*
G04 Aperture macros list*
%AMRoundRect*
0 Rectangle with rounded corners*
0 $1 Rounding radius*
0 $2 $3 $4 $5 $6 $7 $8 $9 X,Y pos of 4 corners*
0 Add a 4 corners polygon primitive as box body*
4,1,4,$2,$3,$4,$5,$6,$7,$8,$9,$2,$3,0*
0 Add four circle primitives for the rounded corners*
1,1,$1+$1,$2,$3*
1,1,$1+$1,$4,$5*
1,1,$1+$1,$6,$7*
1,1,$1+$1,$8,$9*
0 Add four rect primitives between the rounded corners*
20,1,$1+$1,$2,$3,$4,$5,0*
20,1,$1+$1,$4,$5,$6,$7,0*
20,1,$1+$1,$6,$7,$8,$9,0*
20,1,$1+$1,$8,$9,$2,$3,0*%
G04 Aperture macros list end*
%ADD10C,0.200000*%
%ADD11C,0.150000*%
%ADD12C,0.120000*%
%ADD13RoundRect,0.250000X-0.475000X0.250000X-0.475000X-0.250000X0.475000X-0.250000X0.475000X0.250000X0*%
%ADD14R,0.650000X0.400000*%
%ADD15RoundRect,0.250000X-0.250000X-0.475000X0.250000X-0.475000X0.250000X0.475000X-0.250000X0.475000X0*%
%ADD16RoundRect,0.250000X-0.262500X-0.450000X0.262500X-0.450000X0.262500X0.450000X-0.262500X0.450000X0*%
%ADD17RoundRect,0.250000X0.262500X0.450000X-0.262500X0.450000X-0.262500X-0.450000X0.262500X-0.450000X0*%
%ADD18RoundRect,0.250000X0.250000X0.475000X-0.250000X0.475000X-0.250000X-0.475000X0.250000X-0.475000X0*%
%ADD19RoundRect,0.243750X0.243750X0.456250X-0.243750X0.456250X-0.243750X-0.456250X0.243750X-0.456250X0*%
%ADD20C,0.650000*%
%ADD21R,1.450000X0.600000*%
%ADD22R,1.450000X0.300000*%
%ADD23O,2.100000X1.000000*%
%ADD24O,1.600000X1.000000*%
%ADD25RoundRect,0.250000X-0.650000X-1.550000X0.650000X-1.550000X0.650000X1.550000X-0.650000X1.550000X0*%
%ADD26O,1.800000X3.600000*%
%ADD27RoundRect,0.250000X0.475000X-0.250000X0.475000X0.250000X-0.475000X0.250000X-0.475000X-0.250000X0*%
%ADD28RoundRect,0.250000X0.450000X-0.262500X0.450000X0.262500X-0.450000X0.262500X-0.450000X-0.262500X0*%
%ADD29RoundRect,0.250000X-0.450000X0.262500X-0.450000X-0.262500X0.450000X-0.262500X0.450000X0.262500X0*%
%ADD30RoundRect,0.250000X0.650000X1.550000X-0.650000X1.550000X-0.650000X-1.550000X0.650000X-1.550000X0*%
%ADD31C,6.400000*%
%ADD32RoundRect,0.250000X1.550000X-0.650000X1.550000X0.650000X-1.550000X0.650000X-1.550000X-0.650000X0*%
%ADD33O,3.600000X1.800000*%
%ADD34R,0.400000X0.650000*%
%ADD35RoundRect,0.150000X-0.150000X0.512500X-0.150000X-0.512500X0.150000X-0.512500X0.150000X0.512500X0*%
%ADD36RoundRect,0.150000X0.150000X-0.725000X0.150000X0.725000X-0.150000X0.725000X-0.150000X-0.725000X0*%
%ADD37R,0.650000X1.050000*%
%ADD38R,1.000000X1.000000*%
%ADD39O,1.000000X1.000000*%
G04 APERTURE END LIST*
D10*
X134238095Y-96202380D02*
X134238095Y-97011904D01*
X134285714Y-97107142D01*
X134333333Y-97154761D01*
X134428571Y-97202380D01*
X134619047Y-97202380D01*
X134714285Y-97154761D01*
X134761904Y-97107142D01*
X134809523Y-97011904D01*
X134809523Y-96202380D01*
X135238095Y-97154761D02*
X135380952Y-97202380D01*
X135619047Y-97202380D01*
X135714285Y-97154761D01*
X135761904Y-97107142D01*
X135809523Y-97011904D01*
X135809523Y-96916666D01*
X135761904Y-96821428D01*
X135714285Y-96773809D01*
X135619047Y-96726190D01*
X135428571Y-96678571D01*
X135333333Y-96630952D01*
X135285714Y-96583333D01*
X135238095Y-96488095D01*
X135238095Y-96392857D01*
X135285714Y-96297619D01*
X135333333Y-96250000D01*
X135428571Y-96202380D01*
X135666666Y-96202380D01*
X135809523Y-96250000D01*
X136571428Y-96678571D02*
X136714285Y-96726190D01*
X136761904Y-96773809D01*
X136809523Y-96869047D01*
X136809523Y-97011904D01*
X136761904Y-97107142D01*
X136714285Y-97154761D01*
X136619047Y-97202380D01*
X136238095Y-97202380D01*
X136238095Y-96202380D01*
X136571428Y-96202380D01*
X136666666Y-96250000D01*
X136714285Y-96297619D01*
X136761904Y-96392857D01*
X136761904Y-96488095D01*
X136714285Y-96583333D01*
X136666666Y-96630952D01*
X136571428Y-96678571D01*
X136238095Y-96678571D01*
X137000000Y-97297619D02*
X137761904Y-97297619D01*
X138333333Y-96678571D02*
X138476190Y-96726190D01*
X138523809Y-96773809D01*
X138571428Y-96869047D01*
X138571428Y-97011904D01*
X138523809Y-97107142D01*
X138476190Y-97154761D01*
X138380952Y-97202380D01*
X138000000Y-97202380D01*
X138000000Y-96202380D01*
X138333333Y-96202380D01*
X138428571Y-96250000D01*
X138476190Y-96297619D01*
X138523809Y-96392857D01*
X138523809Y-96488095D01*
X138476190Y-96583333D01*
X138428571Y-96630952D01*
X138333333Y-96678571D01*
X138000000Y-96678571D01*
X139000000Y-96202380D02*
X139000000Y-97011904D01*
X139047619Y-97107142D01*
X139095238Y-97154761D01*
X139190476Y-97202380D01*
X139380952Y-97202380D01*
X139476190Y-97154761D01*
X139523809Y-97107142D01*
X139571428Y-97011904D01*
X139571428Y-96202380D01*
X139904761Y-96202380D02*
X140476190Y-96202380D01*
X140190476Y-97202380D02*
X140190476Y-96202380D01*
X140666666Y-96202380D02*
X141238095Y-96202380D01*
X140952380Y-97202380D02*
X140952380Y-96202380D01*
X141761904Y-96202380D02*
X141952380Y-96202380D01*
X142047619Y-96250000D01*
X142142857Y-96345238D01*
X142190476Y-96535714D01*
X142190476Y-96869047D01*
X142142857Y-97059523D01*
X142047619Y-97154761D01*
X141952380Y-97202380D01*
X141761904Y-97202380D01*
X141666666Y-97154761D01*
X141571428Y-97059523D01*
X141523809Y-96869047D01*
X141523809Y-96535714D01*
X141571428Y-96345238D01*
X141666666Y-96250000D01*
X141761904Y-96202380D01*
X142619047Y-97202380D02*
X142619047Y-96202380D01*
X143190476Y-97202380D01*
X143190476Y-96202380D01*
X143428571Y-97297619D02*
X144190476Y-97297619D01*
X144428571Y-97202380D02*
X144428571Y-96202380D01*
X144904761Y-97202380D02*
X144904761Y-96202380D01*
X145476190Y-97202380D01*
X145476190Y-96202380D01*
X145809523Y-96202380D02*
X146380952Y-96202380D01*
X146095238Y-97202380D02*
X146095238Y-96202380D01*
X146714285Y-96678571D02*
X147047619Y-96678571D01*
X147190476Y-97202380D02*
X146714285Y-97202380D01*
X146714285Y-96202380D01*
X147190476Y-96202380D01*
X148190476Y-97202380D02*
X147857142Y-96726190D01*
X147619047Y-97202380D02*
X147619047Y-96202380D01*
X148000000Y-96202380D01*
X148095238Y-96250000D01*
X148142857Y-96297619D01*
X148190476Y-96392857D01*
X148190476Y-96535714D01*
X148142857Y-96630952D01*
X148095238Y-96678571D01*
X148000000Y-96726190D01*
X147619047Y-96726190D01*
X148952380Y-96678571D02*
X148619047Y-96678571D01*
X148619047Y-97202380D02*
X148619047Y-96202380D01*
X149095238Y-96202380D01*
X149428571Y-96916666D02*
X149904761Y-96916666D01*
X149333333Y-97202380D02*
X149666666Y-96202380D01*
X150000000Y-97202380D01*
X150904761Y-97107142D02*
X150857142Y-97154761D01*
X150714285Y-97202380D01*
X150619047Y-97202380D01*
X150476190Y-97154761D01*
X150380952Y-97059523D01*
X150333333Y-96964285D01*
X150285714Y-96773809D01*
X150285714Y-96630952D01*
X150333333Y-96440476D01*
X150380952Y-96345238D01*
X150476190Y-96250000D01*
X150619047Y-96202380D01*
X150714285Y-96202380D01*
X150857142Y-96250000D01*
X150904761Y-96297619D01*
X151333333Y-96678571D02*
X151666666Y-96678571D01*
X151809523Y-97202380D02*
X151333333Y-97202380D01*
X151333333Y-96202380D01*
X151809523Y-96202380D01*
X152857142Y-96202380D02*
X153190476Y-97202380D01*
X153523809Y-96202380D01*
X154380952Y-97202380D02*
X153809523Y-97202380D01*
X154095238Y-97202380D02*
X154095238Y-96202380D01*
X154000000Y-96345238D01*
X153904761Y-96440476D01*
X153809523Y-96488095D01*
X154809523Y-97107142D02*
X154857142Y-97154761D01*
X154809523Y-97202380D01*
X154761904Y-97154761D01*
X154809523Y-97107142D01*
X154809523Y-97202380D01*
X155476190Y-96202380D02*
X155571428Y-96202380D01*
X155666666Y-96250000D01*
X155714285Y-96297619D01*
X155761904Y-96392857D01*
X155809523Y-96583333D01*
X155809523Y-96821428D01*
X155761904Y-97011904D01*
X155714285Y-97107142D01*
X155666666Y-97154761D01*
X155571428Y-97202380D01*
X155476190Y-97202380D01*
X155380952Y-97154761D01*
X155333333Y-97107142D01*
X155285714Y-97011904D01*
X155238095Y-96821428D01*
X155238095Y-96583333D01*
X155285714Y-96392857D01*
X155333333Y-96297619D01*
X155380952Y-96250000D01*
X155476190Y-96202380D01*
X132630952Y-72928571D02*
X132964285Y-72928571D01*
X133107142Y-73452380D02*
X132630952Y-73452380D01*
X132630952Y-72452380D01*
X133107142Y-72452380D01*
X134011904Y-73452380D02*
X133535714Y-73452380D01*
X133535714Y-72452380D01*
X134916666Y-73452380D02*
X134583333Y-72976190D01*
X134345238Y-73452380D02*
X134345238Y-72452380D01*
X134726190Y-72452380D01*
X134821428Y-72500000D01*
X134869047Y-72547619D01*
X134916666Y-72642857D01*
X134916666Y-72785714D01*
X134869047Y-72880952D01*
X134821428Y-72928571D01*
X134726190Y-72976190D01*
X134345238Y-72976190D01*
D11*
%TO.C,C18*%
X140857142Y-99107142D02*
X140809523Y-99154761D01*
X140666666Y-99202380D01*
X140571428Y-99202380D01*
X140428571Y-99154761D01*
X140333333Y-99059523D01*
X140285714Y-98964285D01*
X140238095Y-98773809D01*
X140238095Y-98630952D01*
X140285714Y-98440476D01*
X140333333Y-98345238D01*
X140428571Y-98250000D01*
X140571428Y-98202380D01*
X140666666Y-98202380D01*
X140809523Y-98250000D01*
X140857142Y-98297619D01*
X141809523Y-99202380D02*
X141238095Y-99202380D01*
X141523809Y-99202380D02*
X141523809Y-98202380D01*
X141428571Y-98345238D01*
X141333333Y-98440476D01*
X141238095Y-98488095D01*
X142380952Y-98630952D02*
X142285714Y-98583333D01*
X142238095Y-98535714D01*
X142190476Y-98440476D01*
X142190476Y-98392857D01*
X142238095Y-98297619D01*
X142285714Y-98250000D01*
X142380952Y-98202380D01*
X142571428Y-98202380D01*
X142666666Y-98250000D01*
X142714285Y-98297619D01*
X142761904Y-98392857D01*
X142761904Y-98440476D01*
X142714285Y-98535714D01*
X142666666Y-98583333D01*
X142571428Y-98630952D01*
X142380952Y-98630952D01*
X142285714Y-98678571D01*
X142238095Y-98726190D01*
X142190476Y-98821428D01*
X142190476Y-99011904D01*
X142238095Y-99107142D01*
X142285714Y-99154761D01*
X142380952Y-99202380D01*
X142571428Y-99202380D01*
X142666666Y-99154761D01*
X142714285Y-99107142D01*
X142761904Y-99011904D01*
X142761904Y-98821428D01*
X142714285Y-98726190D01*
X142666666Y-98678571D01*
X142571428Y-98630952D01*
%TO.C,U8*%
X156452380Y-86011904D02*
X157261904Y-86011904D01*
X157357142Y-85964285D01*
X157404761Y-85916666D01*
X157452380Y-85821428D01*
X157452380Y-85630952D01*
X157404761Y-85535714D01*
X157357142Y-85488095D01*
X157261904Y-85440476D01*
X156452380Y-85440476D01*
X156880952Y-84821428D02*
X156833333Y-84916666D01*
X156785714Y-84964285D01*
X156690476Y-85011904D01*
X156642857Y-85011904D01*
X156547619Y-84964285D01*
X156500000Y-84916666D01*
X156452380Y-84821428D01*
X156452380Y-84630952D01*
X156500000Y-84535714D01*
X156547619Y-84488095D01*
X156642857Y-84440476D01*
X156690476Y-84440476D01*
X156785714Y-84488095D01*
X156833333Y-84535714D01*
X156880952Y-84630952D01*
X156880952Y-84821428D01*
X156928571Y-84916666D01*
X156976190Y-84964285D01*
X157071428Y-85011904D01*
X157261904Y-85011904D01*
X157357142Y-84964285D01*
X157404761Y-84916666D01*
X157452380Y-84821428D01*
X157452380Y-84630952D01*
X157404761Y-84535714D01*
X157357142Y-84488095D01*
X157261904Y-84440476D01*
X157071428Y-84440476D01*
X156976190Y-84488095D01*
X156928571Y-84535714D01*
X156880952Y-84630952D01*
%TO.C,C11*%
X158607142Y-108107142D02*
X158559523Y-108154761D01*
X158416666Y-108202380D01*
X158321428Y-108202380D01*
X158178571Y-108154761D01*
X158083333Y-108059523D01*
X158035714Y-107964285D01*
X157988095Y-107773809D01*
X157988095Y-107630952D01*
X158035714Y-107440476D01*
X158083333Y-107345238D01*
X158178571Y-107250000D01*
X158321428Y-107202380D01*
X158416666Y-107202380D01*
X158559523Y-107250000D01*
X158607142Y-107297619D01*
X159559523Y-108202380D02*
X158988095Y-108202380D01*
X159273809Y-108202380D02*
X159273809Y-107202380D01*
X159178571Y-107345238D01*
X159083333Y-107440476D01*
X158988095Y-107488095D01*
X160511904Y-108202380D02*
X159940476Y-108202380D01*
X160226190Y-108202380D02*
X160226190Y-107202380D01*
X160130952Y-107345238D01*
X160035714Y-107440476D01*
X159940476Y-107488095D01*
%TO.C,R30*%
X158607142Y-100052380D02*
X158273809Y-99576190D01*
X158035714Y-100052380D02*
X158035714Y-99052380D01*
X158416666Y-99052380D01*
X158511904Y-99100000D01*
X158559523Y-99147619D01*
X158607142Y-99242857D01*
X158607142Y-99385714D01*
X158559523Y-99480952D01*
X158511904Y-99528571D01*
X158416666Y-99576190D01*
X158035714Y-99576190D01*
X158940476Y-99052380D02*
X159559523Y-99052380D01*
X159226190Y-99433333D01*
X159369047Y-99433333D01*
X159464285Y-99480952D01*
X159511904Y-99528571D01*
X159559523Y-99623809D01*
X159559523Y-99861904D01*
X159511904Y-99957142D01*
X159464285Y-100004761D01*
X159369047Y-100052380D01*
X159083333Y-100052380D01*
X158988095Y-100004761D01*
X158940476Y-99957142D01*
X160178571Y-99052380D02*
X160273809Y-99052380D01*
X160369047Y-99100000D01*
X160416666Y-99147619D01*
X160464285Y-99242857D01*
X160511904Y-99433333D01*
X160511904Y-99671428D01*
X160464285Y-99861904D01*
X160416666Y-99957142D01*
X160369047Y-100004761D01*
X160273809Y-100052380D01*
X160178571Y-100052380D01*
X160083333Y-100004761D01*
X160035714Y-99957142D01*
X159988095Y-99861904D01*
X159940476Y-99671428D01*
X159940476Y-99433333D01*
X159988095Y-99242857D01*
X160035714Y-99147619D01*
X160083333Y-99100000D01*
X160178571Y-99052380D01*
%TO.C,R5*%
X140833333Y-95352380D02*
X140500000Y-94876190D01*
X140261904Y-95352380D02*
X140261904Y-94352380D01*
X140642857Y-94352380D01*
X140738095Y-94400000D01*
X140785714Y-94447619D01*
X140833333Y-94542857D01*
X140833333Y-94685714D01*
X140785714Y-94780952D01*
X140738095Y-94828571D01*
X140642857Y-94876190D01*
X140261904Y-94876190D01*
X141738095Y-94352380D02*
X141261904Y-94352380D01*
X141214285Y-94828571D01*
X141261904Y-94780952D01*
X141357142Y-94733333D01*
X141595238Y-94733333D01*
X141690476Y-94780952D01*
X141738095Y-94828571D01*
X141785714Y-94923809D01*
X141785714Y-95161904D01*
X141738095Y-95257142D01*
X141690476Y-95304761D01*
X141595238Y-95352380D01*
X141357142Y-95352380D01*
X141261904Y-95304761D01*
X141214285Y-95257142D01*
%TO.C,C19*%
X163107142Y-80787142D02*
X163059523Y-80834761D01*
X162916666Y-80882380D01*
X162821428Y-80882380D01*
X162678571Y-80834761D01*
X162583333Y-80739523D01*
X162535714Y-80644285D01*
X162488095Y-80453809D01*
X162488095Y-80310952D01*
X162535714Y-80120476D01*
X162583333Y-80025238D01*
X162678571Y-79930000D01*
X162821428Y-79882380D01*
X162916666Y-79882380D01*
X163059523Y-79930000D01*
X163107142Y-79977619D01*
X164059523Y-80882380D02*
X163488095Y-80882380D01*
X163773809Y-80882380D02*
X163773809Y-79882380D01*
X163678571Y-80025238D01*
X163583333Y-80120476D01*
X163488095Y-80168095D01*
X164535714Y-80882380D02*
X164726190Y-80882380D01*
X164821428Y-80834761D01*
X164869047Y-80787142D01*
X164964285Y-80644285D01*
X165011904Y-80453809D01*
X165011904Y-80072857D01*
X164964285Y-79977619D01*
X164916666Y-79930000D01*
X164821428Y-79882380D01*
X164630952Y-79882380D01*
X164535714Y-79930000D01*
X164488095Y-79977619D01*
X164440476Y-80072857D01*
X164440476Y-80310952D01*
X164488095Y-80406190D01*
X164535714Y-80453809D01*
X164630952Y-80501428D01*
X164821428Y-80501428D01*
X164916666Y-80453809D01*
X164964285Y-80406190D01*
X165011904Y-80310952D01*
%TO.C,D1*%
X136824404Y-95352380D02*
X136824404Y-94352380D01*
X137062500Y-94352380D01*
X137205357Y-94400000D01*
X137300595Y-94495238D01*
X137348214Y-94590476D01*
X137395833Y-94780952D01*
X137395833Y-94923809D01*
X137348214Y-95114285D01*
X137300595Y-95209523D01*
X137205357Y-95304761D01*
X137062500Y-95352380D01*
X136824404Y-95352380D01*
X138348214Y-95352380D02*
X137776785Y-95352380D01*
X138062500Y-95352380D02*
X138062500Y-94352380D01*
X137967261Y-94495238D01*
X137872023Y-94590476D01*
X137776785Y-94638095D01*
%TO.C,J1*%
X130452380Y-90833333D02*
X131166666Y-90833333D01*
X131309523Y-90880952D01*
X131404761Y-90976190D01*
X131452380Y-91119047D01*
X131452380Y-91214285D01*
X131452380Y-89833333D02*
X131452380Y-90404761D01*
X131452380Y-90119047D02*
X130452380Y-90119047D01*
X130595238Y-90214285D01*
X130690476Y-90309523D01*
X130738095Y-90404761D01*
%TO.C,J5*%
X140166666Y-106952380D02*
X140166666Y-107666666D01*
X140119047Y-107809523D01*
X140023809Y-107904761D01*
X139880952Y-107952380D01*
X139785714Y-107952380D01*
X141119047Y-106952380D02*
X140642857Y-106952380D01*
X140595238Y-107428571D01*
X140642857Y-107380952D01*
X140738095Y-107333333D01*
X140976190Y-107333333D01*
X141071428Y-107380952D01*
X141119047Y-107428571D01*
X141166666Y-107523809D01*
X141166666Y-107761904D01*
X141119047Y-107857142D01*
X141071428Y-107904761D01*
X140976190Y-107952380D01*
X140738095Y-107952380D01*
X140642857Y-107904761D01*
X140595238Y-107857142D01*
%TO.C,C14*%
X149107142Y-103857142D02*
X149059523Y-103904761D01*
X148916666Y-103952380D01*
X148821428Y-103952380D01*
X148678571Y-103904761D01*
X148583333Y-103809523D01*
X148535714Y-103714285D01*
X148488095Y-103523809D01*
X148488095Y-103380952D01*
X148535714Y-103190476D01*
X148583333Y-103095238D01*
X148678571Y-103000000D01*
X148821428Y-102952380D01*
X148916666Y-102952380D01*
X149059523Y-103000000D01*
X149107142Y-103047619D01*
X150059523Y-103952380D02*
X149488095Y-103952380D01*
X149773809Y-103952380D02*
X149773809Y-102952380D01*
X149678571Y-103095238D01*
X149583333Y-103190476D01*
X149488095Y-103238095D01*
X150916666Y-103285714D02*
X150916666Y-103952380D01*
X150678571Y-102904761D02*
X150440476Y-103619047D01*
X151059523Y-103619047D01*
%TO.C,C9*%
X157357142Y-97916666D02*
X157404761Y-97964285D01*
X157452380Y-98107142D01*
X157452380Y-98202380D01*
X157404761Y-98345238D01*
X157309523Y-98440476D01*
X157214285Y-98488095D01*
X157023809Y-98535714D01*
X156880952Y-98535714D01*
X156690476Y-98488095D01*
X156595238Y-98440476D01*
X156500000Y-98345238D01*
X156452380Y-98202380D01*
X156452380Y-98107142D01*
X156500000Y-97964285D01*
X156547619Y-97916666D01*
X157452380Y-97440476D02*
X157452380Y-97250000D01*
X157404761Y-97154761D01*
X157357142Y-97107142D01*
X157214285Y-97011904D01*
X157023809Y-96964285D01*
X156642857Y-96964285D01*
X156547619Y-97011904D01*
X156500000Y-97059523D01*
X156452380Y-97154761D01*
X156452380Y-97345238D01*
X156500000Y-97440476D01*
X156547619Y-97488095D01*
X156642857Y-97535714D01*
X156880952Y-97535714D01*
X156976190Y-97488095D01*
X157023809Y-97440476D01*
X157071428Y-97345238D01*
X157071428Y-97154761D01*
X157023809Y-97059523D01*
X156976190Y-97011904D01*
X156880952Y-96964285D01*
%TO.C,R12*%
X154702380Y-75642857D02*
X154226190Y-75976190D01*
X154702380Y-76214285D02*
X153702380Y-76214285D01*
X153702380Y-75833333D01*
X153750000Y-75738095D01*
X153797619Y-75690476D01*
X153892857Y-75642857D01*
X154035714Y-75642857D01*
X154130952Y-75690476D01*
X154178571Y-75738095D01*
X154226190Y-75833333D01*
X154226190Y-76214285D01*
X154702380Y-74690476D02*
X154702380Y-75261904D01*
X154702380Y-74976190D02*
X153702380Y-74976190D01*
X153845238Y-75071428D01*
X153940476Y-75166666D01*
X153988095Y-75261904D01*
X153797619Y-74309523D02*
X153750000Y-74261904D01*
X153702380Y-74166666D01*
X153702380Y-73928571D01*
X153750000Y-73833333D01*
X153797619Y-73785714D01*
X153892857Y-73738095D01*
X153988095Y-73738095D01*
X154130952Y-73785714D01*
X154702380Y-74357142D01*
X154702380Y-73738095D01*
%TO.C,R21*%
X163107142Y-91952380D02*
X162773809Y-91476190D01*
X162535714Y-91952380D02*
X162535714Y-90952380D01*
X162916666Y-90952380D01*
X163011904Y-91000000D01*
X163059523Y-91047619D01*
X163107142Y-91142857D01*
X163107142Y-91285714D01*
X163059523Y-91380952D01*
X163011904Y-91428571D01*
X162916666Y-91476190D01*
X162535714Y-91476190D01*
X163488095Y-91047619D02*
X163535714Y-91000000D01*
X163630952Y-90952380D01*
X163869047Y-90952380D01*
X163964285Y-91000000D01*
X164011904Y-91047619D01*
X164059523Y-91142857D01*
X164059523Y-91238095D01*
X164011904Y-91380952D01*
X163440476Y-91952380D01*
X164059523Y-91952380D01*
X165011904Y-91952380D02*
X164440476Y-91952380D01*
X164726190Y-91952380D02*
X164726190Y-90952380D01*
X164630952Y-91095238D01*
X164535714Y-91190476D01*
X164440476Y-91238095D01*
%TO.C,R20*%
X161952380Y-83142857D02*
X161476190Y-83476190D01*
X161952380Y-83714285D02*
X160952380Y-83714285D01*
X160952380Y-83333333D01*
X161000000Y-83238095D01*
X161047619Y-83190476D01*
X161142857Y-83142857D01*
X161285714Y-83142857D01*
X161380952Y-83190476D01*
X161428571Y-83238095D01*
X161476190Y-83333333D01*
X161476190Y-83714285D01*
X161047619Y-82761904D02*
X161000000Y-82714285D01*
X160952380Y-82619047D01*
X160952380Y-82380952D01*
X161000000Y-82285714D01*
X161047619Y-82238095D01*
X161142857Y-82190476D01*
X161238095Y-82190476D01*
X161380952Y-82238095D01*
X161952380Y-82809523D01*
X161952380Y-82190476D01*
X160952380Y-81571428D02*
X160952380Y-81476190D01*
X161000000Y-81380952D01*
X161047619Y-81333333D01*
X161142857Y-81285714D01*
X161333333Y-81238095D01*
X161571428Y-81238095D01*
X161761904Y-81285714D01*
X161857142Y-81333333D01*
X161904761Y-81380952D01*
X161952380Y-81476190D01*
X161952380Y-81571428D01*
X161904761Y-81666666D01*
X161857142Y-81714285D01*
X161761904Y-81761904D01*
X161571428Y-81809523D01*
X161333333Y-81809523D01*
X161142857Y-81761904D01*
X161047619Y-81714285D01*
X161000000Y-81666666D01*
X160952380Y-81571428D01*
%TO.C,R19*%
X163107142Y-72202380D02*
X162773809Y-71726190D01*
X162535714Y-72202380D02*
X162535714Y-71202380D01*
X162916666Y-71202380D01*
X163011904Y-71250000D01*
X163059523Y-71297619D01*
X163107142Y-71392857D01*
X163107142Y-71535714D01*
X163059523Y-71630952D01*
X163011904Y-71678571D01*
X162916666Y-71726190D01*
X162535714Y-71726190D01*
X164059523Y-72202380D02*
X163488095Y-72202380D01*
X163773809Y-72202380D02*
X163773809Y-71202380D01*
X163678571Y-71345238D01*
X163583333Y-71440476D01*
X163488095Y-71488095D01*
X164535714Y-72202380D02*
X164726190Y-72202380D01*
X164821428Y-72154761D01*
X164869047Y-72107142D01*
X164964285Y-71964285D01*
X165011904Y-71773809D01*
X165011904Y-71392857D01*
X164964285Y-71297619D01*
X164916666Y-71250000D01*
X164821428Y-71202380D01*
X164630952Y-71202380D01*
X164535714Y-71250000D01*
X164488095Y-71297619D01*
X164440476Y-71392857D01*
X164440476Y-71630952D01*
X164488095Y-71726190D01*
X164535714Y-71773809D01*
X164630952Y-71821428D01*
X164821428Y-71821428D01*
X164916666Y-71773809D01*
X164964285Y-71726190D01*
X165011904Y-71630952D01*
%TO.C,C21*%
X161857142Y-98892857D02*
X161904761Y-98940476D01*
X161952380Y-99083333D01*
X161952380Y-99178571D01*
X161904761Y-99321428D01*
X161809523Y-99416666D01*
X161714285Y-99464285D01*
X161523809Y-99511904D01*
X161380952Y-99511904D01*
X161190476Y-99464285D01*
X161095238Y-99416666D01*
X161000000Y-99321428D01*
X160952380Y-99178571D01*
X160952380Y-99083333D01*
X161000000Y-98940476D01*
X161047619Y-98892857D01*
X161047619Y-98511904D02*
X161000000Y-98464285D01*
X160952380Y-98369047D01*
X160952380Y-98130952D01*
X161000000Y-98035714D01*
X161047619Y-97988095D01*
X161142857Y-97940476D01*
X161238095Y-97940476D01*
X161380952Y-97988095D01*
X161952380Y-98559523D01*
X161952380Y-97940476D01*
X161952380Y-96988095D02*
X161952380Y-97559523D01*
X161952380Y-97273809D02*
X160952380Y-97273809D01*
X161095238Y-97369047D01*
X161190476Y-97464285D01*
X161238095Y-97559523D01*
%TO.C,R3*%
X135102380Y-93166666D02*
X134626190Y-93500000D01*
X135102380Y-93738095D02*
X134102380Y-93738095D01*
X134102380Y-93357142D01*
X134150000Y-93261904D01*
X134197619Y-93214285D01*
X134292857Y-93166666D01*
X134435714Y-93166666D01*
X134530952Y-93214285D01*
X134578571Y-93261904D01*
X134626190Y-93357142D01*
X134626190Y-93738095D01*
X134102380Y-92833333D02*
X134102380Y-92214285D01*
X134483333Y-92547619D01*
X134483333Y-92404761D01*
X134530952Y-92309523D01*
X134578571Y-92261904D01*
X134673809Y-92214285D01*
X134911904Y-92214285D01*
X135007142Y-92261904D01*
X135054761Y-92309523D01*
X135102380Y-92404761D01*
X135102380Y-92690476D01*
X135054761Y-92785714D01*
X135007142Y-92833333D01*
%TO.C,C8*%
X159083333Y-89857142D02*
X159035714Y-89904761D01*
X158892857Y-89952380D01*
X158797619Y-89952380D01*
X158654761Y-89904761D01*
X158559523Y-89809523D01*
X158511904Y-89714285D01*
X158464285Y-89523809D01*
X158464285Y-89380952D01*
X158511904Y-89190476D01*
X158559523Y-89095238D01*
X158654761Y-89000000D01*
X158797619Y-88952380D01*
X158892857Y-88952380D01*
X159035714Y-89000000D01*
X159083333Y-89047619D01*
X159654761Y-89380952D02*
X159559523Y-89333333D01*
X159511904Y-89285714D01*
X159464285Y-89190476D01*
X159464285Y-89142857D01*
X159511904Y-89047619D01*
X159559523Y-89000000D01*
X159654761Y-88952380D01*
X159845238Y-88952380D01*
X159940476Y-89000000D01*
X159988095Y-89047619D01*
X160035714Y-89142857D01*
X160035714Y-89190476D01*
X159988095Y-89285714D01*
X159940476Y-89333333D01*
X159845238Y-89380952D01*
X159654761Y-89380952D01*
X159559523Y-89428571D01*
X159511904Y-89476190D01*
X159464285Y-89571428D01*
X159464285Y-89761904D01*
X159511904Y-89857142D01*
X159559523Y-89904761D01*
X159654761Y-89952380D01*
X159845238Y-89952380D01*
X159940476Y-89904761D01*
X159988095Y-89857142D01*
X160035714Y-89761904D01*
X160035714Y-89571428D01*
X159988095Y-89476190D01*
X159940476Y-89428571D01*
X159845238Y-89380952D01*
%TO.C,C20*%
X163107142Y-89857142D02*
X163059523Y-89904761D01*
X162916666Y-89952380D01*
X162821428Y-89952380D01*
X162678571Y-89904761D01*
X162583333Y-89809523D01*
X162535714Y-89714285D01*
X162488095Y-89523809D01*
X162488095Y-89380952D01*
X162535714Y-89190476D01*
X162583333Y-89095238D01*
X162678571Y-89000000D01*
X162821428Y-88952380D01*
X162916666Y-88952380D01*
X163059523Y-89000000D01*
X163107142Y-89047619D01*
X163488095Y-89047619D02*
X163535714Y-89000000D01*
X163630952Y-88952380D01*
X163869047Y-88952380D01*
X163964285Y-89000000D01*
X164011904Y-89047619D01*
X164059523Y-89142857D01*
X164059523Y-89238095D01*
X164011904Y-89380952D01*
X163440476Y-89952380D01*
X164059523Y-89952380D01*
X164678571Y-88952380D02*
X164773809Y-88952380D01*
X164869047Y-89000000D01*
X164916666Y-89047619D01*
X164964285Y-89142857D01*
X165011904Y-89333333D01*
X165011904Y-89571428D01*
X164964285Y-89761904D01*
X164916666Y-89857142D01*
X164869047Y-89904761D01*
X164773809Y-89952380D01*
X164678571Y-89952380D01*
X164583333Y-89904761D01*
X164535714Y-89857142D01*
X164488095Y-89761904D01*
X164440476Y-89571428D01*
X164440476Y-89333333D01*
X164488095Y-89142857D01*
X164535714Y-89047619D01*
X164583333Y-89000000D01*
X164678571Y-88952380D01*
%TO.C,R10*%
X148952380Y-106392857D02*
X148476190Y-106726190D01*
X148952380Y-106964285D02*
X147952380Y-106964285D01*
X147952380Y-106583333D01*
X148000000Y-106488095D01*
X148047619Y-106440476D01*
X148142857Y-106392857D01*
X148285714Y-106392857D01*
X148380952Y-106440476D01*
X148428571Y-106488095D01*
X148476190Y-106583333D01*
X148476190Y-106964285D01*
X148952380Y-105440476D02*
X148952380Y-106011904D01*
X148952380Y-105726190D02*
X147952380Y-105726190D01*
X148095238Y-105821428D01*
X148190476Y-105916666D01*
X148238095Y-106011904D01*
X147952380Y-104821428D02*
X147952380Y-104726190D01*
X148000000Y-104630952D01*
X148047619Y-104583333D01*
X148142857Y-104535714D01*
X148333333Y-104488095D01*
X148571428Y-104488095D01*
X148761904Y-104535714D01*
X148857142Y-104583333D01*
X148904761Y-104630952D01*
X148952380Y-104726190D01*
X148952380Y-104821428D01*
X148904761Y-104916666D01*
X148857142Y-104964285D01*
X148761904Y-105011904D01*
X148571428Y-105059523D01*
X148333333Y-105059523D01*
X148142857Y-105011904D01*
X148047619Y-104964285D01*
X148000000Y-104916666D01*
X147952380Y-104821428D01*
%TO.C,J4*%
X158166666Y-69702380D02*
X158166666Y-70416666D01*
X158119047Y-70559523D01*
X158023809Y-70654761D01*
X157880952Y-70702380D01*
X157785714Y-70702380D01*
X159071428Y-70035714D02*
X159071428Y-70702380D01*
X158833333Y-69654761D02*
X158595238Y-70369047D01*
X159214285Y-70369047D01*
%TO.C,R1*%
X137402380Y-90166666D02*
X136926190Y-90500000D01*
X137402380Y-90738095D02*
X136402380Y-90738095D01*
X136402380Y-90357142D01*
X136450000Y-90261904D01*
X136497619Y-90214285D01*
X136592857Y-90166666D01*
X136735714Y-90166666D01*
X136830952Y-90214285D01*
X136878571Y-90261904D01*
X136926190Y-90357142D01*
X136926190Y-90738095D01*
X137402380Y-89214285D02*
X137402380Y-89785714D01*
X137402380Y-89500000D02*
X136402380Y-89500000D01*
X136545238Y-89595238D01*
X136640476Y-89690476D01*
X136688095Y-89785714D01*
%TO.C,TP1*%
X125738095Y-97202380D02*
X126309523Y-97202380D01*
X126023809Y-98202380D02*
X126023809Y-97202380D01*
X126642857Y-98202380D02*
X126642857Y-97202380D01*
X127023809Y-97202380D01*
X127119047Y-97250000D01*
X127166666Y-97297619D01*
X127214285Y-97392857D01*
X127214285Y-97535714D01*
X127166666Y-97630952D01*
X127119047Y-97678571D01*
X127023809Y-97726190D01*
X126642857Y-97726190D01*
X128166666Y-98202380D02*
X127595238Y-98202380D01*
X127880952Y-98202380D02*
X127880952Y-97202380D01*
X127785714Y-97345238D01*
X127690476Y-97440476D01*
X127595238Y-97488095D01*
%TO.C,R6*%
X159333333Y-109452380D02*
X159000000Y-108976190D01*
X158761904Y-109452380D02*
X158761904Y-108452380D01*
X159142857Y-108452380D01*
X159238095Y-108500000D01*
X159285714Y-108547619D01*
X159333333Y-108642857D01*
X159333333Y-108785714D01*
X159285714Y-108880952D01*
X159238095Y-108928571D01*
X159142857Y-108976190D01*
X158761904Y-108976190D01*
X160190476Y-108452380D02*
X160000000Y-108452380D01*
X159904761Y-108500000D01*
X159857142Y-108547619D01*
X159761904Y-108690476D01*
X159714285Y-108880952D01*
X159714285Y-109261904D01*
X159761904Y-109357142D01*
X159809523Y-109404761D01*
X159904761Y-109452380D01*
X160095238Y-109452380D01*
X160190476Y-109404761D01*
X160238095Y-109357142D01*
X160285714Y-109261904D01*
X160285714Y-109023809D01*
X160238095Y-108928571D01*
X160190476Y-108880952D01*
X160095238Y-108833333D01*
X159904761Y-108833333D01*
X159809523Y-108880952D01*
X159761904Y-108928571D01*
X159714285Y-109023809D01*
%TO.C,H3*%
X129238095Y-114452380D02*
X129238095Y-113452380D01*
X129238095Y-113928571D02*
X129809523Y-113928571D01*
X129809523Y-114452380D02*
X129809523Y-113452380D01*
X130190476Y-113452380D02*
X130809523Y-113452380D01*
X130476190Y-113833333D01*
X130619047Y-113833333D01*
X130714285Y-113880952D01*
X130761904Y-113928571D01*
X130809523Y-114023809D01*
X130809523Y-114261904D01*
X130761904Y-114357142D01*
X130714285Y-114404761D01*
X130619047Y-114452380D01*
X130333333Y-114452380D01*
X130238095Y-114404761D01*
X130190476Y-114357142D01*
%TO.C,H4*%
X166238095Y-114452380D02*
X166238095Y-113452380D01*
X166238095Y-113928571D02*
X166809523Y-113928571D01*
X166809523Y-114452380D02*
X166809523Y-113452380D01*
X167714285Y-113785714D02*
X167714285Y-114452380D01*
X167476190Y-113404761D02*
X167238095Y-114119047D01*
X167857142Y-114119047D01*
%TO.C,R27*%
X158607142Y-72802380D02*
X158273809Y-72326190D01*
X158035714Y-72802380D02*
X158035714Y-71802380D01*
X158416666Y-71802380D01*
X158511904Y-71850000D01*
X158559523Y-71897619D01*
X158607142Y-71992857D01*
X158607142Y-72135714D01*
X158559523Y-72230952D01*
X158511904Y-72278571D01*
X158416666Y-72326190D01*
X158035714Y-72326190D01*
X158988095Y-71897619D02*
X159035714Y-71850000D01*
X159130952Y-71802380D01*
X159369047Y-71802380D01*
X159464285Y-71850000D01*
X159511904Y-71897619D01*
X159559523Y-71992857D01*
X159559523Y-72088095D01*
X159511904Y-72230952D01*
X158940476Y-72802380D01*
X159559523Y-72802380D01*
X159892857Y-71802380D02*
X160559523Y-71802380D01*
X160130952Y-72802380D01*
%TO.C,R28*%
X157202380Y-83392857D02*
X156726190Y-83726190D01*
X157202380Y-83964285D02*
X156202380Y-83964285D01*
X156202380Y-83583333D01*
X156250000Y-83488095D01*
X156297619Y-83440476D01*
X156392857Y-83392857D01*
X156535714Y-83392857D01*
X156630952Y-83440476D01*
X156678571Y-83488095D01*
X156726190Y-83583333D01*
X156726190Y-83964285D01*
X156297619Y-83011904D02*
X156250000Y-82964285D01*
X156202380Y-82869047D01*
X156202380Y-82630952D01*
X156250000Y-82535714D01*
X156297619Y-82488095D01*
X156392857Y-82440476D01*
X156488095Y-82440476D01*
X156630952Y-82488095D01*
X157202380Y-83059523D01*
X157202380Y-82440476D01*
X156630952Y-81869047D02*
X156583333Y-81964285D01*
X156535714Y-82011904D01*
X156440476Y-82059523D01*
X156392857Y-82059523D01*
X156297619Y-82011904D01*
X156250000Y-81964285D01*
X156202380Y-81869047D01*
X156202380Y-81678571D01*
X156250000Y-81583333D01*
X156297619Y-81535714D01*
X156392857Y-81488095D01*
X156440476Y-81488095D01*
X156535714Y-81535714D01*
X156583333Y-81583333D01*
X156630952Y-81678571D01*
X156630952Y-81869047D01*
X156678571Y-81964285D01*
X156726190Y-82011904D01*
X156821428Y-82059523D01*
X157011904Y-82059523D01*
X157107142Y-82011904D01*
X157154761Y-81964285D01*
X157202380Y-81869047D01*
X157202380Y-81678571D01*
X157154761Y-81583333D01*
X157107142Y-81535714D01*
X157011904Y-81488095D01*
X156821428Y-81488095D01*
X156726190Y-81535714D01*
X156678571Y-81583333D01*
X156630952Y-81678571D01*
%TO.C,R17*%
X154357142Y-99202380D02*
X154023809Y-98726190D01*
X153785714Y-99202380D02*
X153785714Y-98202380D01*
X154166666Y-98202380D01*
X154261904Y-98250000D01*
X154309523Y-98297619D01*
X154357142Y-98392857D01*
X154357142Y-98535714D01*
X154309523Y-98630952D01*
X154261904Y-98678571D01*
X154166666Y-98726190D01*
X153785714Y-98726190D01*
X155309523Y-99202380D02*
X154738095Y-99202380D01*
X155023809Y-99202380D02*
X155023809Y-98202380D01*
X154928571Y-98345238D01*
X154833333Y-98440476D01*
X154738095Y-98488095D01*
X155642857Y-98202380D02*
X156309523Y-98202380D01*
X155880952Y-99202380D01*
%TO.C,J2*%
X165269880Y-89833333D02*
X165984166Y-89833333D01*
X166127023Y-89880952D01*
X166222261Y-89976190D01*
X166269880Y-90119047D01*
X166269880Y-90214285D01*
X165365119Y-89404761D02*
X165317500Y-89357142D01*
X165269880Y-89261904D01*
X165269880Y-89023809D01*
X165317500Y-88928571D01*
X165365119Y-88880952D01*
X165460357Y-88833333D01*
X165555595Y-88833333D01*
X165698452Y-88880952D01*
X166269880Y-89452380D01*
X166269880Y-88833333D01*
%TO.C,R23*%
X163107142Y-73452380D02*
X162773809Y-72976190D01*
X162535714Y-73452380D02*
X162535714Y-72452380D01*
X162916666Y-72452380D01*
X163011904Y-72500000D01*
X163059523Y-72547619D01*
X163107142Y-72642857D01*
X163107142Y-72785714D01*
X163059523Y-72880952D01*
X163011904Y-72928571D01*
X162916666Y-72976190D01*
X162535714Y-72976190D01*
X163488095Y-72547619D02*
X163535714Y-72500000D01*
X163630952Y-72452380D01*
X163869047Y-72452380D01*
X163964285Y-72500000D01*
X164011904Y-72547619D01*
X164059523Y-72642857D01*
X164059523Y-72738095D01*
X164011904Y-72880952D01*
X163440476Y-73452380D01*
X164059523Y-73452380D01*
X164392857Y-72452380D02*
X165011904Y-72452380D01*
X164678571Y-72833333D01*
X164821428Y-72833333D01*
X164916666Y-72880952D01*
X164964285Y-72928571D01*
X165011904Y-73023809D01*
X165011904Y-73261904D01*
X164964285Y-73357142D01*
X164916666Y-73404761D01*
X164821428Y-73452380D01*
X164535714Y-73452380D01*
X164440476Y-73404761D01*
X164392857Y-73357142D01*
%TO.C,C22*%
X163107142Y-107787142D02*
X163059523Y-107834761D01*
X162916666Y-107882380D01*
X162821428Y-107882380D01*
X162678571Y-107834761D01*
X162583333Y-107739523D01*
X162535714Y-107644285D01*
X162488095Y-107453809D01*
X162488095Y-107310952D01*
X162535714Y-107120476D01*
X162583333Y-107025238D01*
X162678571Y-106930000D01*
X162821428Y-106882380D01*
X162916666Y-106882380D01*
X163059523Y-106930000D01*
X163107142Y-106977619D01*
X163488095Y-106977619D02*
X163535714Y-106930000D01*
X163630952Y-106882380D01*
X163869047Y-106882380D01*
X163964285Y-106930000D01*
X164011904Y-106977619D01*
X164059523Y-107072857D01*
X164059523Y-107168095D01*
X164011904Y-107310952D01*
X163440476Y-107882380D01*
X164059523Y-107882380D01*
X164440476Y-106977619D02*
X164488095Y-106930000D01*
X164583333Y-106882380D01*
X164821428Y-106882380D01*
X164916666Y-106930000D01*
X164964285Y-106977619D01*
X165011904Y-107072857D01*
X165011904Y-107168095D01*
X164964285Y-107310952D01*
X164392857Y-107882380D01*
X165011904Y-107882380D01*
%TO.C,H2*%
X166238095Y-67452380D02*
X166238095Y-66452380D01*
X166238095Y-66928571D02*
X166809523Y-66928571D01*
X166809523Y-67452380D02*
X166809523Y-66452380D01*
X167238095Y-66547619D02*
X167285714Y-66500000D01*
X167380952Y-66452380D01*
X167619047Y-66452380D01*
X167714285Y-66500000D01*
X167761904Y-66547619D01*
X167809523Y-66642857D01*
X167809523Y-66738095D01*
X167761904Y-66880952D01*
X167190476Y-67452380D01*
X167809523Y-67452380D01*
%TO.C,U10*%
X156452380Y-104988095D02*
X157261904Y-104988095D01*
X157357142Y-104940476D01*
X157404761Y-104892857D01*
X157452380Y-104797619D01*
X157452380Y-104607142D01*
X157404761Y-104511904D01*
X157357142Y-104464285D01*
X157261904Y-104416666D01*
X156452380Y-104416666D01*
X157452380Y-103416666D02*
X157452380Y-103988095D01*
X157452380Y-103702380D02*
X156452380Y-103702380D01*
X156595238Y-103797619D01*
X156690476Y-103892857D01*
X156738095Y-103988095D01*
X156452380Y-102797619D02*
X156452380Y-102702380D01*
X156500000Y-102607142D01*
X156547619Y-102559523D01*
X156642857Y-102511904D01*
X156833333Y-102464285D01*
X157071428Y-102464285D01*
X157261904Y-102511904D01*
X157357142Y-102559523D01*
X157404761Y-102607142D01*
X157452380Y-102702380D01*
X157452380Y-102797619D01*
X157404761Y-102892857D01*
X157357142Y-102940476D01*
X157261904Y-102988095D01*
X157071428Y-103035714D01*
X156833333Y-103035714D01*
X156642857Y-102988095D01*
X156547619Y-102940476D01*
X156500000Y-102892857D01*
X156452380Y-102797619D01*
%TO.C,C7*%
X159083333Y-81107142D02*
X159035714Y-81154761D01*
X158892857Y-81202380D01*
X158797619Y-81202380D01*
X158654761Y-81154761D01*
X158559523Y-81059523D01*
X158511904Y-80964285D01*
X158464285Y-80773809D01*
X158464285Y-80630952D01*
X158511904Y-80440476D01*
X158559523Y-80345238D01*
X158654761Y-80250000D01*
X158797619Y-80202380D01*
X158892857Y-80202380D01*
X159035714Y-80250000D01*
X159083333Y-80297619D01*
X159416666Y-80202380D02*
X160083333Y-80202380D01*
X159654761Y-81202380D01*
%TO.C,U3*%
X140988095Y-81452380D02*
X140988095Y-82261904D01*
X141035714Y-82357142D01*
X141083333Y-82404761D01*
X141178571Y-82452380D01*
X141369047Y-82452380D01*
X141464285Y-82404761D01*
X141511904Y-82357142D01*
X141559523Y-82261904D01*
X141559523Y-81452380D01*
X141940476Y-81452380D02*
X142559523Y-81452380D01*
X142226190Y-81833333D01*
X142369047Y-81833333D01*
X142464285Y-81880952D01*
X142511904Y-81928571D01*
X142559523Y-82023809D01*
X142559523Y-82261904D01*
X142511904Y-82357142D01*
X142464285Y-82404761D01*
X142369047Y-82452380D01*
X142083333Y-82452380D01*
X141988095Y-82404761D01*
X141940476Y-82357142D01*
%TO.C,C13*%
X143607142Y-82357142D02*
X143559523Y-82404761D01*
X143416666Y-82452380D01*
X143321428Y-82452380D01*
X143178571Y-82404761D01*
X143083333Y-82309523D01*
X143035714Y-82214285D01*
X142988095Y-82023809D01*
X142988095Y-81880952D01*
X143035714Y-81690476D01*
X143083333Y-81595238D01*
X143178571Y-81500000D01*
X143321428Y-81452380D01*
X143416666Y-81452380D01*
X143559523Y-81500000D01*
X143607142Y-81547619D01*
X144559523Y-82452380D02*
X143988095Y-82452380D01*
X144273809Y-82452380D02*
X144273809Y-81452380D01*
X144178571Y-81595238D01*
X144083333Y-81690476D01*
X143988095Y-81738095D01*
X144892857Y-81452380D02*
X145511904Y-81452380D01*
X145178571Y-81833333D01*
X145321428Y-81833333D01*
X145416666Y-81880952D01*
X145464285Y-81928571D01*
X145511904Y-82023809D01*
X145511904Y-82261904D01*
X145464285Y-82357142D01*
X145416666Y-82404761D01*
X145321428Y-82452380D01*
X145035714Y-82452380D01*
X144940476Y-82404761D01*
X144892857Y-82357142D01*
%TO.C,R2*%
X135152380Y-88166666D02*
X134676190Y-88500000D01*
X135152380Y-88738095D02*
X134152380Y-88738095D01*
X134152380Y-88357142D01*
X134200000Y-88261904D01*
X134247619Y-88214285D01*
X134342857Y-88166666D01*
X134485714Y-88166666D01*
X134580952Y-88214285D01*
X134628571Y-88261904D01*
X134676190Y-88357142D01*
X134676190Y-88738095D01*
X134247619Y-87785714D02*
X134200000Y-87738095D01*
X134152380Y-87642857D01*
X134152380Y-87404761D01*
X134200000Y-87309523D01*
X134247619Y-87261904D01*
X134342857Y-87214285D01*
X134438095Y-87214285D01*
X134580952Y-87261904D01*
X135152380Y-87833333D01*
X135152380Y-87214285D01*
%TO.C,R13*%
X151857142Y-103952380D02*
X151523809Y-103476190D01*
X151285714Y-103952380D02*
X151285714Y-102952380D01*
X151666666Y-102952380D01*
X151761904Y-103000000D01*
X151809523Y-103047619D01*
X151857142Y-103142857D01*
X151857142Y-103285714D01*
X151809523Y-103380952D01*
X151761904Y-103428571D01*
X151666666Y-103476190D01*
X151285714Y-103476190D01*
X152809523Y-103952380D02*
X152238095Y-103952380D01*
X152523809Y-103952380D02*
X152523809Y-102952380D01*
X152428571Y-103095238D01*
X152333333Y-103190476D01*
X152238095Y-103238095D01*
X153142857Y-102952380D02*
X153761904Y-102952380D01*
X153428571Y-103333333D01*
X153571428Y-103333333D01*
X153666666Y-103380952D01*
X153714285Y-103428571D01*
X153761904Y-103523809D01*
X153761904Y-103761904D01*
X153714285Y-103857142D01*
X153666666Y-103904761D01*
X153571428Y-103952380D01*
X153285714Y-103952380D01*
X153190476Y-103904761D01*
X153142857Y-103857142D01*
%TO.C,R11*%
X139452380Y-75642857D02*
X138976190Y-75976190D01*
X139452380Y-76214285D02*
X138452380Y-76214285D01*
X138452380Y-75833333D01*
X138500000Y-75738095D01*
X138547619Y-75690476D01*
X138642857Y-75642857D01*
X138785714Y-75642857D01*
X138880952Y-75690476D01*
X138928571Y-75738095D01*
X138976190Y-75833333D01*
X138976190Y-76214285D01*
X139452380Y-74690476D02*
X139452380Y-75261904D01*
X139452380Y-74976190D02*
X138452380Y-74976190D01*
X138595238Y-75071428D01*
X138690476Y-75166666D01*
X138738095Y-75261904D01*
X139452380Y-73738095D02*
X139452380Y-74309523D01*
X139452380Y-74023809D02*
X138452380Y-74023809D01*
X138595238Y-74119047D01*
X138690476Y-74214285D01*
X138738095Y-74309523D01*
%TO.C,C2*%
X124383333Y-83607142D02*
X124335714Y-83654761D01*
X124192857Y-83702380D01*
X124097619Y-83702380D01*
X123954761Y-83654761D01*
X123859523Y-83559523D01*
X123811904Y-83464285D01*
X123764285Y-83273809D01*
X123764285Y-83130952D01*
X123811904Y-82940476D01*
X123859523Y-82845238D01*
X123954761Y-82750000D01*
X124097619Y-82702380D01*
X124192857Y-82702380D01*
X124335714Y-82750000D01*
X124383333Y-82797619D01*
X124764285Y-82797619D02*
X124811904Y-82750000D01*
X124907142Y-82702380D01*
X125145238Y-82702380D01*
X125240476Y-82750000D01*
X125288095Y-82797619D01*
X125335714Y-82892857D01*
X125335714Y-82988095D01*
X125288095Y-83130952D01*
X124716666Y-83702380D01*
X125335714Y-83702380D01*
%TO.C,C16*%
X141357142Y-103857142D02*
X141309523Y-103904761D01*
X141166666Y-103952380D01*
X141071428Y-103952380D01*
X140928571Y-103904761D01*
X140833333Y-103809523D01*
X140785714Y-103714285D01*
X140738095Y-103523809D01*
X140738095Y-103380952D01*
X140785714Y-103190476D01*
X140833333Y-103095238D01*
X140928571Y-103000000D01*
X141071428Y-102952380D01*
X141166666Y-102952380D01*
X141309523Y-103000000D01*
X141357142Y-103047619D01*
X142309523Y-103952380D02*
X141738095Y-103952380D01*
X142023809Y-103952380D02*
X142023809Y-102952380D01*
X141928571Y-103095238D01*
X141833333Y-103190476D01*
X141738095Y-103238095D01*
X143166666Y-102952380D02*
X142976190Y-102952380D01*
X142880952Y-103000000D01*
X142833333Y-103047619D01*
X142738095Y-103190476D01*
X142690476Y-103380952D01*
X142690476Y-103761904D01*
X142738095Y-103857142D01*
X142785714Y-103904761D01*
X142880952Y-103952380D01*
X143071428Y-103952380D01*
X143166666Y-103904761D01*
X143214285Y-103857142D01*
X143261904Y-103761904D01*
X143261904Y-103523809D01*
X143214285Y-103428571D01*
X143166666Y-103380952D01*
X143071428Y-103333333D01*
X142880952Y-103333333D01*
X142785714Y-103380952D01*
X142738095Y-103428571D01*
X142690476Y-103523809D01*
%TO.C,C6*%
X130633333Y-77107142D02*
X130585714Y-77154761D01*
X130442857Y-77202380D01*
X130347619Y-77202380D01*
X130204761Y-77154761D01*
X130109523Y-77059523D01*
X130061904Y-76964285D01*
X130014285Y-76773809D01*
X130014285Y-76630952D01*
X130061904Y-76440476D01*
X130109523Y-76345238D01*
X130204761Y-76250000D01*
X130347619Y-76202380D01*
X130442857Y-76202380D01*
X130585714Y-76250000D01*
X130633333Y-76297619D01*
X131490476Y-76202380D02*
X131300000Y-76202380D01*
X131204761Y-76250000D01*
X131157142Y-76297619D01*
X131061904Y-76440476D01*
X131014285Y-76630952D01*
X131014285Y-77011904D01*
X131061904Y-77107142D01*
X131109523Y-77154761D01*
X131204761Y-77202380D01*
X131395238Y-77202380D01*
X131490476Y-77154761D01*
X131538095Y-77107142D01*
X131585714Y-77011904D01*
X131585714Y-76773809D01*
X131538095Y-76678571D01*
X131490476Y-76630952D01*
X131395238Y-76583333D01*
X131204761Y-76583333D01*
X131109523Y-76630952D01*
X131061904Y-76678571D01*
X131014285Y-76773809D01*
%TO.C,C10*%
X146787142Y-75642857D02*
X146834761Y-75690476D01*
X146882380Y-75833333D01*
X146882380Y-75928571D01*
X146834761Y-76071428D01*
X146739523Y-76166666D01*
X146644285Y-76214285D01*
X146453809Y-76261904D01*
X146310952Y-76261904D01*
X146120476Y-76214285D01*
X146025238Y-76166666D01*
X145930000Y-76071428D01*
X145882380Y-75928571D01*
X145882380Y-75833333D01*
X145930000Y-75690476D01*
X145977619Y-75642857D01*
X146882380Y-74690476D02*
X146882380Y-75261904D01*
X146882380Y-74976190D02*
X145882380Y-74976190D01*
X146025238Y-75071428D01*
X146120476Y-75166666D01*
X146168095Y-75261904D01*
X145882380Y-74071428D02*
X145882380Y-73976190D01*
X145930000Y-73880952D01*
X145977619Y-73833333D01*
X146072857Y-73785714D01*
X146263333Y-73738095D01*
X146501428Y-73738095D01*
X146691904Y-73785714D01*
X146787142Y-73833333D01*
X146834761Y-73880952D01*
X146882380Y-73976190D01*
X146882380Y-74071428D01*
X146834761Y-74166666D01*
X146787142Y-74214285D01*
X146691904Y-74261904D01*
X146501428Y-74309523D01*
X146263333Y-74309523D01*
X146072857Y-74261904D01*
X145977619Y-74214285D01*
X145930000Y-74166666D01*
X145882380Y-74071428D01*
%TO.C,R14*%
X144107142Y-103952380D02*
X143773809Y-103476190D01*
X143535714Y-103952380D02*
X143535714Y-102952380D01*
X143916666Y-102952380D01*
X144011904Y-103000000D01*
X144059523Y-103047619D01*
X144107142Y-103142857D01*
X144107142Y-103285714D01*
X144059523Y-103380952D01*
X144011904Y-103428571D01*
X143916666Y-103476190D01*
X143535714Y-103476190D01*
X145059523Y-103952380D02*
X144488095Y-103952380D01*
X144773809Y-103952380D02*
X144773809Y-102952380D01*
X144678571Y-103095238D01*
X144583333Y-103190476D01*
X144488095Y-103238095D01*
X145916666Y-103285714D02*
X145916666Y-103952380D01*
X145678571Y-102904761D02*
X145440476Y-103619047D01*
X146059523Y-103619047D01*
%TO.C,U4*%
X149988095Y-81452380D02*
X149988095Y-82261904D01*
X150035714Y-82357142D01*
X150083333Y-82404761D01*
X150178571Y-82452380D01*
X150369047Y-82452380D01*
X150464285Y-82404761D01*
X150511904Y-82357142D01*
X150559523Y-82261904D01*
X150559523Y-81452380D01*
X151464285Y-81785714D02*
X151464285Y-82452380D01*
X151226190Y-81404761D02*
X150988095Y-82119047D01*
X151607142Y-82119047D01*
%TO.C,R29*%
X158607142Y-91552380D02*
X158273809Y-91076190D01*
X158035714Y-91552380D02*
X158035714Y-90552380D01*
X158416666Y-90552380D01*
X158511904Y-90600000D01*
X158559523Y-90647619D01*
X158607142Y-90742857D01*
X158607142Y-90885714D01*
X158559523Y-90980952D01*
X158511904Y-91028571D01*
X158416666Y-91076190D01*
X158035714Y-91076190D01*
X158988095Y-90647619D02*
X159035714Y-90600000D01*
X159130952Y-90552380D01*
X159369047Y-90552380D01*
X159464285Y-90600000D01*
X159511904Y-90647619D01*
X159559523Y-90742857D01*
X159559523Y-90838095D01*
X159511904Y-90980952D01*
X158940476Y-91552380D01*
X159559523Y-91552380D01*
X160035714Y-91552380D02*
X160226190Y-91552380D01*
X160321428Y-91504761D01*
X160369047Y-91457142D01*
X160464285Y-91314285D01*
X160511904Y-91123809D01*
X160511904Y-90742857D01*
X160464285Y-90647619D01*
X160416666Y-90600000D01*
X160321428Y-90552380D01*
X160130952Y-90552380D01*
X160035714Y-90600000D01*
X159988095Y-90647619D01*
X159940476Y-90742857D01*
X159940476Y-90980952D01*
X159988095Y-91076190D01*
X160035714Y-91123809D01*
X160130952Y-91171428D01*
X160321428Y-91171428D01*
X160416666Y-91123809D01*
X160464285Y-91076190D01*
X160511904Y-90980952D01*
%TO.C,R25*%
X163107142Y-93202380D02*
X162773809Y-92726190D01*
X162535714Y-93202380D02*
X162535714Y-92202380D01*
X162916666Y-92202380D01*
X163011904Y-92250000D01*
X163059523Y-92297619D01*
X163107142Y-92392857D01*
X163107142Y-92535714D01*
X163059523Y-92630952D01*
X163011904Y-92678571D01*
X162916666Y-92726190D01*
X162535714Y-92726190D01*
X163488095Y-92297619D02*
X163535714Y-92250000D01*
X163630952Y-92202380D01*
X163869047Y-92202380D01*
X163964285Y-92250000D01*
X164011904Y-92297619D01*
X164059523Y-92392857D01*
X164059523Y-92488095D01*
X164011904Y-92630952D01*
X163440476Y-93202380D01*
X164059523Y-93202380D01*
X164964285Y-92202380D02*
X164488095Y-92202380D01*
X164440476Y-92678571D01*
X164488095Y-92630952D01*
X164583333Y-92583333D01*
X164821428Y-92583333D01*
X164916666Y-92630952D01*
X164964285Y-92678571D01*
X165011904Y-92773809D01*
X165011904Y-93011904D01*
X164964285Y-93107142D01*
X164916666Y-93154761D01*
X164821428Y-93202380D01*
X164583333Y-93202380D01*
X164488095Y-93154761D01*
X164440476Y-93107142D01*
%TO.C,C3*%
X139833333Y-85857142D02*
X139785714Y-85904761D01*
X139642857Y-85952380D01*
X139547619Y-85952380D01*
X139404761Y-85904761D01*
X139309523Y-85809523D01*
X139261904Y-85714285D01*
X139214285Y-85523809D01*
X139214285Y-85380952D01*
X139261904Y-85190476D01*
X139309523Y-85095238D01*
X139404761Y-85000000D01*
X139547619Y-84952380D01*
X139642857Y-84952380D01*
X139785714Y-85000000D01*
X139833333Y-85047619D01*
X140166666Y-84952380D02*
X140785714Y-84952380D01*
X140452380Y-85333333D01*
X140595238Y-85333333D01*
X140690476Y-85380952D01*
X140738095Y-85428571D01*
X140785714Y-85523809D01*
X140785714Y-85761904D01*
X140738095Y-85857142D01*
X140690476Y-85904761D01*
X140595238Y-85952380D01*
X140309523Y-85952380D01*
X140214285Y-85904761D01*
X140166666Y-85857142D01*
%TO.C,R16*%
X147607142Y-82452380D02*
X147273809Y-81976190D01*
X147035714Y-82452380D02*
X147035714Y-81452380D01*
X147416666Y-81452380D01*
X147511904Y-81500000D01*
X147559523Y-81547619D01*
X147607142Y-81642857D01*
X147607142Y-81785714D01*
X147559523Y-81880952D01*
X147511904Y-81928571D01*
X147416666Y-81976190D01*
X147035714Y-81976190D01*
X148559523Y-82452380D02*
X147988095Y-82452380D01*
X148273809Y-82452380D02*
X148273809Y-81452380D01*
X148178571Y-81595238D01*
X148083333Y-81690476D01*
X147988095Y-81738095D01*
X149416666Y-81452380D02*
X149226190Y-81452380D01*
X149130952Y-81500000D01*
X149083333Y-81547619D01*
X148988095Y-81690476D01*
X148940476Y-81880952D01*
X148940476Y-82261904D01*
X148988095Y-82357142D01*
X149035714Y-82404761D01*
X149130952Y-82452380D01*
X149321428Y-82452380D01*
X149416666Y-82404761D01*
X149464285Y-82357142D01*
X149511904Y-82261904D01*
X149511904Y-82023809D01*
X149464285Y-81928571D01*
X149416666Y-81880952D01*
X149321428Y-81833333D01*
X149130952Y-81833333D01*
X149035714Y-81880952D01*
X148988095Y-81928571D01*
X148940476Y-82023809D01*
%TO.C,U2*%
X129102380Y-80761904D02*
X129911904Y-80761904D01*
X130007142Y-80714285D01*
X130054761Y-80666666D01*
X130102380Y-80571428D01*
X130102380Y-80380952D01*
X130054761Y-80285714D01*
X130007142Y-80238095D01*
X129911904Y-80190476D01*
X129102380Y-80190476D01*
X129197619Y-79761904D02*
X129150000Y-79714285D01*
X129102380Y-79619047D01*
X129102380Y-79380952D01*
X129150000Y-79285714D01*
X129197619Y-79238095D01*
X129292857Y-79190476D01*
X129388095Y-79190476D01*
X129530952Y-79238095D01*
X130102380Y-79809523D01*
X130102380Y-79190476D01*
%TO.C,U6*%
X143238095Y-98202380D02*
X143238095Y-99011904D01*
X143285714Y-99107142D01*
X143333333Y-99154761D01*
X143428571Y-99202380D01*
X143619047Y-99202380D01*
X143714285Y-99154761D01*
X143761904Y-99107142D01*
X143809523Y-99011904D01*
X143809523Y-98202380D01*
X144714285Y-98202380D02*
X144523809Y-98202380D01*
X144428571Y-98250000D01*
X144380952Y-98297619D01*
X144285714Y-98440476D01*
X144238095Y-98630952D01*
X144238095Y-99011904D01*
X144285714Y-99107142D01*
X144333333Y-99154761D01*
X144428571Y-99202380D01*
X144619047Y-99202380D01*
X144714285Y-99154761D01*
X144761904Y-99107142D01*
X144809523Y-99011904D01*
X144809523Y-98773809D01*
X144761904Y-98678571D01*
X144714285Y-98630952D01*
X144619047Y-98583333D01*
X144428571Y-98583333D01*
X144333333Y-98630952D01*
X144285714Y-98678571D01*
X144238095Y-98773809D01*
%TO.C,R15*%
X138052380Y-80142857D02*
X137576190Y-80476190D01*
X138052380Y-80714285D02*
X137052380Y-80714285D01*
X137052380Y-80333333D01*
X137100000Y-80238095D01*
X137147619Y-80190476D01*
X137242857Y-80142857D01*
X137385714Y-80142857D01*
X137480952Y-80190476D01*
X137528571Y-80238095D01*
X137576190Y-80333333D01*
X137576190Y-80714285D01*
X138052380Y-79190476D02*
X138052380Y-79761904D01*
X138052380Y-79476190D02*
X137052380Y-79476190D01*
X137195238Y-79571428D01*
X137290476Y-79666666D01*
X137338095Y-79761904D01*
X137052380Y-78285714D02*
X137052380Y-78761904D01*
X137528571Y-78809523D01*
X137480952Y-78761904D01*
X137433333Y-78666666D01*
X137433333Y-78428571D01*
X137480952Y-78333333D01*
X137528571Y-78285714D01*
X137623809Y-78238095D01*
X137861904Y-78238095D01*
X137957142Y-78285714D01*
X138004761Y-78333333D01*
X138052380Y-78428571D01*
X138052380Y-78666666D01*
X138004761Y-78761904D01*
X137957142Y-78809523D01*
%TO.C,J3*%
X165269880Y-109333333D02*
X165984166Y-109333333D01*
X166127023Y-109380952D01*
X166222261Y-109476190D01*
X166269880Y-109619047D01*
X166269880Y-109714285D01*
X165269880Y-108952380D02*
X165269880Y-108333333D01*
X165650833Y-108666666D01*
X165650833Y-108523809D01*
X165698452Y-108428571D01*
X165746071Y-108380952D01*
X165841309Y-108333333D01*
X166079404Y-108333333D01*
X166174642Y-108380952D01*
X166222261Y-108428571D01*
X166269880Y-108523809D01*
X166269880Y-108809523D01*
X166222261Y-108904761D01*
X166174642Y-108952380D01*
%TO.C,C1*%
X148333333Y-85857142D02*
X148285714Y-85904761D01*
X148142857Y-85952380D01*
X148047619Y-85952380D01*
X147904761Y-85904761D01*
X147809523Y-85809523D01*
X147761904Y-85714285D01*
X147714285Y-85523809D01*
X147714285Y-85380952D01*
X147761904Y-85190476D01*
X147809523Y-85095238D01*
X147904761Y-85000000D01*
X148047619Y-84952380D01*
X148142857Y-84952380D01*
X148285714Y-85000000D01*
X148333333Y-85047619D01*
X149285714Y-85952380D02*
X148714285Y-85952380D01*
X149000000Y-85952380D02*
X149000000Y-84952380D01*
X148904761Y-85095238D01*
X148809523Y-85190476D01*
X148714285Y-85238095D01*
%TO.C,R22*%
X163302380Y-101642857D02*
X162826190Y-101976190D01*
X163302380Y-102214285D02*
X162302380Y-102214285D01*
X162302380Y-101833333D01*
X162350000Y-101738095D01*
X162397619Y-101690476D01*
X162492857Y-101642857D01*
X162635714Y-101642857D01*
X162730952Y-101690476D01*
X162778571Y-101738095D01*
X162826190Y-101833333D01*
X162826190Y-102214285D01*
X162397619Y-101261904D02*
X162350000Y-101214285D01*
X162302380Y-101119047D01*
X162302380Y-100880952D01*
X162350000Y-100785714D01*
X162397619Y-100738095D01*
X162492857Y-100690476D01*
X162588095Y-100690476D01*
X162730952Y-100738095D01*
X163302380Y-101309523D01*
X163302380Y-100690476D01*
X162397619Y-100309523D02*
X162350000Y-100261904D01*
X162302380Y-100166666D01*
X162302380Y-99928571D01*
X162350000Y-99833333D01*
X162397619Y-99785714D01*
X162492857Y-99738095D01*
X162588095Y-99738095D01*
X162730952Y-99785714D01*
X163302380Y-100357142D01*
X163302380Y-99738095D01*
%TO.C,R26*%
X161952380Y-104392857D02*
X161476190Y-104726190D01*
X161952380Y-104964285D02*
X160952380Y-104964285D01*
X160952380Y-104583333D01*
X161000000Y-104488095D01*
X161047619Y-104440476D01*
X161142857Y-104392857D01*
X161285714Y-104392857D01*
X161380952Y-104440476D01*
X161428571Y-104488095D01*
X161476190Y-104583333D01*
X161476190Y-104964285D01*
X161047619Y-104011904D02*
X161000000Y-103964285D01*
X160952380Y-103869047D01*
X160952380Y-103630952D01*
X161000000Y-103535714D01*
X161047619Y-103488095D01*
X161142857Y-103440476D01*
X161238095Y-103440476D01*
X161380952Y-103488095D01*
X161952380Y-104059523D01*
X161952380Y-103440476D01*
X160952380Y-102583333D02*
X160952380Y-102773809D01*
X161000000Y-102869047D01*
X161047619Y-102916666D01*
X161190476Y-103011904D01*
X161380952Y-103059523D01*
X161761904Y-103059523D01*
X161857142Y-103011904D01*
X161904761Y-102964285D01*
X161952380Y-102869047D01*
X161952380Y-102678571D01*
X161904761Y-102583333D01*
X161857142Y-102535714D01*
X161761904Y-102488095D01*
X161523809Y-102488095D01*
X161428571Y-102535714D01*
X161380952Y-102583333D01*
X161333333Y-102678571D01*
X161333333Y-102869047D01*
X161380952Y-102964285D01*
X161428571Y-103011904D01*
X161523809Y-103059523D01*
%TO.C,C15*%
X155357142Y-80142857D02*
X155404761Y-80190476D01*
X155452380Y-80333333D01*
X155452380Y-80428571D01*
X155404761Y-80571428D01*
X155309523Y-80666666D01*
X155214285Y-80714285D01*
X155023809Y-80761904D01*
X154880952Y-80761904D01*
X154690476Y-80714285D01*
X154595238Y-80666666D01*
X154500000Y-80571428D01*
X154452380Y-80428571D01*
X154452380Y-80333333D01*
X154500000Y-80190476D01*
X154547619Y-80142857D01*
X155452380Y-79190476D02*
X155452380Y-79761904D01*
X155452380Y-79476190D02*
X154452380Y-79476190D01*
X154595238Y-79571428D01*
X154690476Y-79666666D01*
X154738095Y-79761904D01*
X154452380Y-78285714D02*
X154452380Y-78761904D01*
X154928571Y-78809523D01*
X154880952Y-78761904D01*
X154833333Y-78666666D01*
X154833333Y-78428571D01*
X154880952Y-78333333D01*
X154928571Y-78285714D01*
X155023809Y-78238095D01*
X155261904Y-78238095D01*
X155357142Y-78285714D01*
X155404761Y-78333333D01*
X155452380Y-78428571D01*
X155452380Y-78666666D01*
X155404761Y-78761904D01*
X155357142Y-78809523D01*
%TO.C,R24*%
X163107142Y-88702380D02*
X162773809Y-88226190D01*
X162535714Y-88702380D02*
X162535714Y-87702380D01*
X162916666Y-87702380D01*
X163011904Y-87750000D01*
X163059523Y-87797619D01*
X163107142Y-87892857D01*
X163107142Y-88035714D01*
X163059523Y-88130952D01*
X163011904Y-88178571D01*
X162916666Y-88226190D01*
X162535714Y-88226190D01*
X163488095Y-87797619D02*
X163535714Y-87750000D01*
X163630952Y-87702380D01*
X163869047Y-87702380D01*
X163964285Y-87750000D01*
X164011904Y-87797619D01*
X164059523Y-87892857D01*
X164059523Y-87988095D01*
X164011904Y-88130952D01*
X163440476Y-88702380D01*
X164059523Y-88702380D01*
X164916666Y-88035714D02*
X164916666Y-88702380D01*
X164678571Y-87654761D02*
X164440476Y-88369047D01*
X165059523Y-88369047D01*
%TO.C,U1*%
X142052380Y-91761904D02*
X142861904Y-91761904D01*
X142957142Y-91714285D01*
X143004761Y-91666666D01*
X143052380Y-91571428D01*
X143052380Y-91380952D01*
X143004761Y-91285714D01*
X142957142Y-91238095D01*
X142861904Y-91190476D01*
X142052380Y-91190476D01*
X143052380Y-90190476D02*
X143052380Y-90761904D01*
X143052380Y-90476190D02*
X142052380Y-90476190D01*
X142195238Y-90571428D01*
X142290476Y-90666666D01*
X142338095Y-90761904D01*
%TO.C,R7*%
X137952380Y-75166666D02*
X137476190Y-75500000D01*
X137952380Y-75738095D02*
X136952380Y-75738095D01*
X136952380Y-75357142D01*
X137000000Y-75261904D01*
X137047619Y-75214285D01*
X137142857Y-75166666D01*
X137285714Y-75166666D01*
X137380952Y-75214285D01*
X137428571Y-75261904D01*
X137476190Y-75357142D01*
X137476190Y-75738095D01*
X136952380Y-74833333D02*
X136952380Y-74166666D01*
X137952380Y-74595238D01*
%TO.C,R8*%
X148333333Y-77702380D02*
X148000000Y-77226190D01*
X147761904Y-77702380D02*
X147761904Y-76702380D01*
X148142857Y-76702380D01*
X148238095Y-76750000D01*
X148285714Y-76797619D01*
X148333333Y-76892857D01*
X148333333Y-77035714D01*
X148285714Y-77130952D01*
X148238095Y-77178571D01*
X148142857Y-77226190D01*
X147761904Y-77226190D01*
X148904761Y-77130952D02*
X148809523Y-77083333D01*
X148761904Y-77035714D01*
X148714285Y-76940476D01*
X148714285Y-76892857D01*
X148761904Y-76797619D01*
X148809523Y-76750000D01*
X148904761Y-76702380D01*
X149095238Y-76702380D01*
X149190476Y-76750000D01*
X149238095Y-76797619D01*
X149285714Y-76892857D01*
X149285714Y-76940476D01*
X149238095Y-77035714D01*
X149190476Y-77083333D01*
X149095238Y-77130952D01*
X148904761Y-77130952D01*
X148809523Y-77178571D01*
X148761904Y-77226190D01*
X148714285Y-77321428D01*
X148714285Y-77511904D01*
X148761904Y-77607142D01*
X148809523Y-77654761D01*
X148904761Y-77702380D01*
X149095238Y-77702380D01*
X149190476Y-77654761D01*
X149238095Y-77607142D01*
X149285714Y-77511904D01*
X149285714Y-77321428D01*
X149238095Y-77226190D01*
X149190476Y-77178571D01*
X149095238Y-77130952D01*
%TO.C,C17*%
X149357142Y-99107142D02*
X149309523Y-99154761D01*
X149166666Y-99202380D01*
X149071428Y-99202380D01*
X148928571Y-99154761D01*
X148833333Y-99059523D01*
X148785714Y-98964285D01*
X148738095Y-98773809D01*
X148738095Y-98630952D01*
X148785714Y-98440476D01*
X148833333Y-98345238D01*
X148928571Y-98250000D01*
X149071428Y-98202380D01*
X149166666Y-98202380D01*
X149309523Y-98250000D01*
X149357142Y-98297619D01*
X150309523Y-99202380D02*
X149738095Y-99202380D01*
X150023809Y-99202380D02*
X150023809Y-98202380D01*
X149928571Y-98345238D01*
X149833333Y-98440476D01*
X149738095Y-98488095D01*
X150642857Y-98202380D02*
X151309523Y-98202380D01*
X150880952Y-99202380D01*
%TO.C,C12*%
X155857142Y-75642857D02*
X155904761Y-75690476D01*
X155952380Y-75833333D01*
X155952380Y-75928571D01*
X155904761Y-76071428D01*
X155809523Y-76166666D01*
X155714285Y-76214285D01*
X155523809Y-76261904D01*
X155380952Y-76261904D01*
X155190476Y-76214285D01*
X155095238Y-76166666D01*
X155000000Y-76071428D01*
X154952380Y-75928571D01*
X154952380Y-75833333D01*
X155000000Y-75690476D01*
X155047619Y-75642857D01*
X155952380Y-74690476D02*
X155952380Y-75261904D01*
X155952380Y-74976190D02*
X154952380Y-74976190D01*
X155095238Y-75071428D01*
X155190476Y-75166666D01*
X155238095Y-75261904D01*
X155047619Y-74309523D02*
X155000000Y-74261904D01*
X154952380Y-74166666D01*
X154952380Y-73928571D01*
X155000000Y-73833333D01*
X155047619Y-73785714D01*
X155142857Y-73738095D01*
X155238095Y-73738095D01*
X155380952Y-73785714D01*
X155952380Y-74357142D01*
X155952380Y-73738095D01*
%TO.C,U9*%
X156452380Y-96011904D02*
X157261904Y-96011904D01*
X157357142Y-95964285D01*
X157404761Y-95916666D01*
X157452380Y-95821428D01*
X157452380Y-95630952D01*
X157404761Y-95535714D01*
X157357142Y-95488095D01*
X157261904Y-95440476D01*
X156452380Y-95440476D01*
X157452380Y-94916666D02*
X157452380Y-94726190D01*
X157404761Y-94630952D01*
X157357142Y-94583333D01*
X157214285Y-94488095D01*
X157023809Y-94440476D01*
X156642857Y-94440476D01*
X156547619Y-94488095D01*
X156500000Y-94535714D01*
X156452380Y-94630952D01*
X156452380Y-94821428D01*
X156500000Y-94916666D01*
X156547619Y-94964285D01*
X156642857Y-95011904D01*
X156880952Y-95011904D01*
X156976190Y-94964285D01*
X157023809Y-94916666D01*
X157071428Y-94821428D01*
X157071428Y-94630952D01*
X157023809Y-94535714D01*
X156976190Y-94488095D01*
X156880952Y-94440476D01*
%TO.C,U5*%
X151738095Y-98202380D02*
X151738095Y-99011904D01*
X151785714Y-99107142D01*
X151833333Y-99154761D01*
X151928571Y-99202380D01*
X152119047Y-99202380D01*
X152214285Y-99154761D01*
X152261904Y-99107142D01*
X152309523Y-99011904D01*
X152309523Y-98202380D01*
X153261904Y-98202380D02*
X152785714Y-98202380D01*
X152738095Y-98678571D01*
X152785714Y-98630952D01*
X152880952Y-98583333D01*
X153119047Y-98583333D01*
X153214285Y-98630952D01*
X153261904Y-98678571D01*
X153309523Y-98773809D01*
X153309523Y-99011904D01*
X153261904Y-99107142D01*
X153214285Y-99154761D01*
X153119047Y-99202380D01*
X152880952Y-99202380D01*
X152785714Y-99154761D01*
X152738095Y-99107142D01*
%TO.C,R4*%
X128783333Y-75202380D02*
X128450000Y-74726190D01*
X128211904Y-75202380D02*
X128211904Y-74202380D01*
X128592857Y-74202380D01*
X128688095Y-74250000D01*
X128735714Y-74297619D01*
X128783333Y-74392857D01*
X128783333Y-74535714D01*
X128735714Y-74630952D01*
X128688095Y-74678571D01*
X128592857Y-74726190D01*
X128211904Y-74726190D01*
X129640476Y-74535714D02*
X129640476Y-75202380D01*
X129402380Y-74154761D02*
X129164285Y-74869047D01*
X129783333Y-74869047D01*
%TO.C,R18*%
X148602380Y-101642857D02*
X148126190Y-101976190D01*
X148602380Y-102214285D02*
X147602380Y-102214285D01*
X147602380Y-101833333D01*
X147650000Y-101738095D01*
X147697619Y-101690476D01*
X147792857Y-101642857D01*
X147935714Y-101642857D01*
X148030952Y-101690476D01*
X148078571Y-101738095D01*
X148126190Y-101833333D01*
X148126190Y-102214285D01*
X148602380Y-100690476D02*
X148602380Y-101261904D01*
X148602380Y-100976190D02*
X147602380Y-100976190D01*
X147745238Y-101071428D01*
X147840476Y-101166666D01*
X147888095Y-101261904D01*
X148030952Y-100119047D02*
X147983333Y-100214285D01*
X147935714Y-100261904D01*
X147840476Y-100309523D01*
X147792857Y-100309523D01*
X147697619Y-100261904D01*
X147650000Y-100214285D01*
X147602380Y-100119047D01*
X147602380Y-99928571D01*
X147650000Y-99833333D01*
X147697619Y-99785714D01*
X147792857Y-99738095D01*
X147840476Y-99738095D01*
X147935714Y-99785714D01*
X147983333Y-99833333D01*
X148030952Y-99928571D01*
X148030952Y-100119047D01*
X148078571Y-100214285D01*
X148126190Y-100261904D01*
X148221428Y-100309523D01*
X148411904Y-100309523D01*
X148507142Y-100261904D01*
X148554761Y-100214285D01*
X148602380Y-100119047D01*
X148602380Y-99928571D01*
X148554761Y-99833333D01*
X148507142Y-99785714D01*
X148411904Y-99738095D01*
X148221428Y-99738095D01*
X148126190Y-99785714D01*
X148078571Y-99833333D01*
X148030952Y-99928571D01*
%TO.C,SW1*%
X165404761Y-113833333D02*
X165452380Y-113690476D01*
X165452380Y-113452380D01*
X165404761Y-113357142D01*
X165357142Y-113309523D01*
X165261904Y-113261904D01*
X165166666Y-113261904D01*
X165071428Y-113309523D01*
X165023809Y-113357142D01*
X164976190Y-113452380D01*
X164928571Y-113642857D01*
X164880952Y-113738095D01*
X164833333Y-113785714D01*
X164738095Y-113833333D01*
X164642857Y-113833333D01*
X164547619Y-113785714D01*
X164500000Y-113738095D01*
X164452380Y-113642857D01*
X164452380Y-113404761D01*
X164500000Y-113261904D01*
X164452380Y-112928571D02*
X165452380Y-112690476D01*
X164738095Y-112500000D01*
X165452380Y-112309523D01*
X164452380Y-112071428D01*
X165452380Y-111166666D02*
X165452380Y-111738095D01*
X165452380Y-111452380D02*
X164452380Y-111452380D01*
X164595238Y-111547619D01*
X164690476Y-111642857D01*
X164738095Y-111738095D01*
%TO.C,U7*%
X156452380Y-77261904D02*
X157261904Y-77261904D01*
X157357142Y-77214285D01*
X157404761Y-77166666D01*
X157452380Y-77071428D01*
X157452380Y-76880952D01*
X157404761Y-76785714D01*
X157357142Y-76738095D01*
X157261904Y-76690476D01*
X156452380Y-76690476D01*
X156452380Y-76309523D02*
X156452380Y-75642857D01*
X157452380Y-76071428D01*
%TO.C,R9*%
X154833333Y-103952380D02*
X154500000Y-103476190D01*
X154261904Y-103952380D02*
X154261904Y-102952380D01*
X154642857Y-102952380D01*
X154738095Y-103000000D01*
X154785714Y-103047619D01*
X154833333Y-103142857D01*
X154833333Y-103285714D01*
X154785714Y-103380952D01*
X154738095Y-103428571D01*
X154642857Y-103476190D01*
X154261904Y-103476190D01*
X155309523Y-103952380D02*
X155500000Y-103952380D01*
X155595238Y-103904761D01*
X155642857Y-103857142D01*
X155738095Y-103714285D01*
X155785714Y-103523809D01*
X155785714Y-103142857D01*
X155738095Y-103047619D01*
X155690476Y-103000000D01*
X155595238Y-102952380D01*
X155404761Y-102952380D01*
X155309523Y-103000000D01*
X155261904Y-103047619D01*
X155214285Y-103142857D01*
X155214285Y-103380952D01*
X155261904Y-103476190D01*
X155309523Y-103523809D01*
X155404761Y-103571428D01*
X155595238Y-103571428D01*
X155690476Y-103523809D01*
X155738095Y-103476190D01*
X155785714Y-103380952D01*
%TO.C,H1*%
X129238095Y-67452380D02*
X129238095Y-66452380D01*
X129238095Y-66928571D02*
X129809523Y-66928571D01*
X129809523Y-67452380D02*
X129809523Y-66452380D01*
X130809523Y-67452380D02*
X130238095Y-67452380D01*
X130523809Y-67452380D02*
X130523809Y-66452380D01*
X130428571Y-66595238D01*
X130333333Y-66690476D01*
X130238095Y-66738095D01*
%TO.C,J6*%
X138416666Y-86702380D02*
X138416666Y-87416666D01*
X138369047Y-87559523D01*
X138273809Y-87654761D01*
X138130952Y-87702380D01*
X138035714Y-87702380D01*
X139321428Y-86702380D02*
X139130952Y-86702380D01*
X139035714Y-86750000D01*
X138988095Y-86797619D01*
X138892857Y-86940476D01*
X138845238Y-87130952D01*
X138845238Y-87511904D01*
X138892857Y-87607142D01*
X138940476Y-87654761D01*
X139035714Y-87702380D01*
X139226190Y-87702380D01*
X139321428Y-87654761D01*
X139369047Y-87607142D01*
X139416666Y-87511904D01*
X139416666Y-87273809D01*
X139369047Y-87178571D01*
X139321428Y-87130952D01*
X139226190Y-87083333D01*
X139035714Y-87083333D01*
X138940476Y-87130952D01*
X138892857Y-87178571D01*
X138845238Y-87273809D01*
D12*
%TO.C,C18*%
X140765000Y-100738748D02*
X140765000Y-101261252D01*
X142235000Y-100738748D02*
X142235000Y-101261252D01*
%TO.C,U8*%
X159950000Y-84090000D02*
X158550000Y-84090000D01*
X158550000Y-86410000D02*
X160450000Y-86410000D01*
%TO.C,C11*%
X158988748Y-105515000D02*
X159511252Y-105515000D01*
X158988748Y-106985000D02*
X159511252Y-106985000D01*
%TO.C,R30*%
X159022936Y-100515000D02*
X159477064Y-100515000D01*
X159022936Y-101985000D02*
X159477064Y-101985000D01*
%TO.C,R5*%
X141227064Y-93985000D02*
X140772936Y-93985000D01*
X141227064Y-92515000D02*
X140772936Y-92515000D01*
%TO.C,C19*%
X164011252Y-79485000D02*
X163488748Y-79485000D01*
X164011252Y-78015000D02*
X163488748Y-78015000D01*
%TO.C,D1*%
X139247500Y-92290000D02*
X136562500Y-92290000D01*
X139247500Y-94210000D02*
X139247500Y-92290000D01*
X136562500Y-94210000D02*
X139247500Y-94210000D01*
%TO.C,J1*%
X126900000Y-95200000D02*
X124900000Y-95200000D01*
X121100000Y-85800000D02*
X121100000Y-95200000D01*
X123000000Y-95200000D02*
X121100000Y-95200000D01*
X126900000Y-85800000D02*
X124900000Y-85800000D01*
X123000000Y-85800000D02*
X121100000Y-85800000D01*
%TO.C,J5*%
X140075000Y-115617500D02*
X156925000Y-115617500D01*
X147645000Y-109507500D02*
X149355000Y-109507500D01*
X142785000Y-108817500D02*
X142485000Y-108217500D01*
X142485000Y-108217500D02*
X143085000Y-108217500D01*
X140075000Y-109507500D02*
X140075000Y-118927500D01*
X151455000Y-109507500D02*
X153165000Y-109507500D01*
X156925000Y-109507500D02*
X155265000Y-109507500D01*
X143835000Y-109507500D02*
X145545000Y-109507500D01*
X140075000Y-118927500D02*
X156925000Y-118927500D01*
X143085000Y-108217500D02*
X142785000Y-108817500D01*
X140075000Y-109507500D02*
X141735000Y-109507500D01*
X156925000Y-118927500D02*
X156925000Y-109507500D01*
%TO.C,C14*%
X149765000Y-106011252D02*
X149765000Y-105488748D01*
X151235000Y-106011252D02*
X151235000Y-105488748D01*
%TO.C,C9*%
X158988748Y-97015000D02*
X159511252Y-97015000D01*
X158988748Y-98485000D02*
X159511252Y-98485000D01*
%TO.C,R12*%
X151235000Y-75227064D02*
X151235000Y-74772936D01*
X149765000Y-75227064D02*
X149765000Y-74772936D01*
%TO.C,R21*%
X163522936Y-94985000D02*
X163977064Y-94985000D01*
X163522936Y-93515000D02*
X163977064Y-93515000D01*
%TO.C,R20*%
X163522936Y-83235000D02*
X163977064Y-83235000D01*
X163522936Y-81765000D02*
X163977064Y-81765000D01*
%TO.C,R19*%
X163522936Y-74015000D02*
X163977064Y-74015000D01*
X163522936Y-75485000D02*
X163977064Y-75485000D01*
%TO.C,C21*%
X164011252Y-97515000D02*
X163488748Y-97515000D01*
X164011252Y-98985000D02*
X163488748Y-98985000D01*
%TO.C,R3*%
X132265000Y-92772936D02*
X132265000Y-93227064D01*
X133735000Y-92772936D02*
X133735000Y-93227064D01*
%TO.C,C8*%
X158988748Y-87015000D02*
X159511252Y-87015000D01*
X158988748Y-88485000D02*
X159511252Y-88485000D01*
%TO.C,C20*%
X164011252Y-85765000D02*
X163488748Y-85765000D01*
X164011252Y-87235000D02*
X163488748Y-87235000D01*
%TO.C,R10*%
X147485000Y-105522936D02*
X147485000Y-105977064D01*
X146015000Y-105522936D02*
X146015000Y-105977064D01*
%TO.C,J4*%
X156925000Y-71492500D02*
X156925000Y-62072500D01*
X156925000Y-62072500D02*
X140075000Y-62072500D01*
X140075000Y-71492500D02*
X141735000Y-71492500D01*
X156925000Y-71492500D02*
X155265000Y-71492500D01*
X156925000Y-65382500D02*
X140075000Y-65382500D01*
X149355000Y-71492500D02*
X147645000Y-71492500D01*
X145545000Y-71492500D02*
X143835000Y-71492500D01*
X153165000Y-71492500D02*
X151455000Y-71492500D01*
X154515000Y-72782500D02*
X153915000Y-72782500D01*
X154215000Y-72182500D02*
X154515000Y-72782500D01*
X140075000Y-62072500D02*
X140075000Y-71492500D01*
X153915000Y-72782500D02*
X154215000Y-72182500D01*
%TO.C,R1*%
X139335000Y-90227064D02*
X139335000Y-89772936D01*
X137865000Y-90227064D02*
X137865000Y-89772936D01*
%TO.C,R6*%
X158765000Y-111727064D02*
X158765000Y-111272936D01*
X160235000Y-111727064D02*
X160235000Y-111272936D01*
%TO.C,R27*%
X159022936Y-74735000D02*
X159477064Y-74735000D01*
X159022936Y-73265000D02*
X159477064Y-73265000D01*
%TO.C,R28*%
X159022936Y-82015000D02*
X159477064Y-82015000D01*
X159022936Y-83485000D02*
X159477064Y-83485000D01*
%TO.C,R17*%
X155735000Y-100772936D02*
X155735000Y-101227064D01*
X154265000Y-100772936D02*
X154265000Y-101227064D01*
%TO.C,J2*%
X167507500Y-89230000D02*
X167507500Y-87570000D01*
X167507500Y-89230000D02*
X176927500Y-89230000D01*
X167507500Y-81660000D02*
X167507500Y-79950000D01*
X167507500Y-77850000D02*
X167507500Y-76140000D01*
X176927500Y-72380000D02*
X167507500Y-72380000D01*
X167507500Y-72380000D02*
X167507500Y-74040000D01*
X176927500Y-89230000D02*
X176927500Y-72380000D01*
X166817500Y-86520000D02*
X166217500Y-86820000D01*
X167507500Y-85470000D02*
X167507500Y-83760000D01*
X166217500Y-86820000D02*
X166217500Y-86220000D01*
X166217500Y-86220000D02*
X166817500Y-86520000D01*
X173617500Y-89230000D02*
X173617500Y-72380000D01*
%TO.C,R23*%
X163522936Y-76015000D02*
X163977064Y-76015000D01*
X163522936Y-77485000D02*
X163977064Y-77485000D01*
%TO.C,C22*%
X164011252Y-105015000D02*
X163488748Y-105015000D01*
X164011252Y-106485000D02*
X163488748Y-106485000D01*
%TO.C,U10*%
X159950000Y-102590000D02*
X158550000Y-102590000D01*
X158550000Y-104910000D02*
X160450000Y-104910000D01*
%TO.C,C7*%
X158988748Y-79735000D02*
X159511252Y-79735000D01*
X158988748Y-78265000D02*
X159511252Y-78265000D01*
%TO.C,U3*%
X142910000Y-80200000D02*
X142910000Y-78300000D01*
X140590000Y-78800000D02*
X140590000Y-80200000D01*
%TO.C,C13*%
X144985000Y-79761252D02*
X144985000Y-79238748D01*
X143515000Y-79761252D02*
X143515000Y-79238748D01*
%TO.C,R2*%
X132265000Y-88227064D02*
X132265000Y-87772936D01*
X133735000Y-88227064D02*
X133735000Y-87772936D01*
%TO.C,R13*%
X153235000Y-105522936D02*
X153235000Y-105977064D01*
X151765000Y-105522936D02*
X151765000Y-105977064D01*
%TO.C,R11*%
X143485000Y-75227064D02*
X143485000Y-74772936D01*
X142015000Y-75227064D02*
X142015000Y-74772936D01*
%TO.C,C2*%
X126988748Y-83985000D02*
X127511252Y-83985000D01*
X126988748Y-82515000D02*
X127511252Y-82515000D01*
%TO.C,C16*%
X142015000Y-106011252D02*
X142015000Y-105488748D01*
X143485000Y-106011252D02*
X143485000Y-105488748D01*
%TO.C,C6*%
X128261252Y-77485000D02*
X127738748Y-77485000D01*
X128261252Y-76015000D02*
X127738748Y-76015000D01*
%TO.C,C10*%
X145485000Y-74738748D02*
X145485000Y-75261252D01*
X144015000Y-74738748D02*
X144015000Y-75261252D01*
%TO.C,R14*%
X145485000Y-105522936D02*
X145485000Y-105977064D01*
X144015000Y-105522936D02*
X144015000Y-105977064D01*
%TO.C,U4*%
X149590000Y-78800000D02*
X149590000Y-80200000D01*
X151910000Y-80200000D02*
X151910000Y-78300000D01*
%TO.C,R29*%
X159022936Y-92015000D02*
X159477064Y-92015000D01*
X159022936Y-93485000D02*
X159477064Y-93485000D01*
%TO.C,R25*%
X163522936Y-96985000D02*
X163977064Y-96985000D01*
X163522936Y-95515000D02*
X163977064Y-95515000D01*
%TO.C,C3*%
X142761252Y-86235000D02*
X142238748Y-86235000D01*
X142761252Y-84765000D02*
X142238748Y-84765000D01*
%TO.C,R16*%
X148985000Y-79727064D02*
X148985000Y-79272936D01*
X147515000Y-79727064D02*
X147515000Y-79272936D01*
%TO.C,U2*%
X128810000Y-80000000D02*
X128810000Y-80800000D01*
X128810000Y-80000000D02*
X128810000Y-78200000D01*
X125690000Y-80000000D02*
X125690000Y-80800000D01*
X125690000Y-80000000D02*
X125690000Y-79200000D01*
%TO.C,U6*%
X145160000Y-101700000D02*
X145160000Y-100300000D01*
X142840000Y-100300000D02*
X142840000Y-102200000D01*
%TO.C,R15*%
X138515000Y-79727064D02*
X138515000Y-79272936D01*
X139985000Y-79727064D02*
X139985000Y-79272936D01*
%TO.C,J3*%
X166817500Y-105910000D02*
X166217500Y-106210000D01*
X167507500Y-101050000D02*
X167507500Y-99340000D01*
X176927500Y-108620000D02*
X176927500Y-91770000D01*
X167507500Y-108620000D02*
X176927500Y-108620000D01*
X166217500Y-106210000D02*
X166217500Y-105610000D01*
X173617500Y-108620000D02*
X173617500Y-91770000D01*
X167507500Y-91770000D02*
X167507500Y-93430000D01*
X167507500Y-104860000D02*
X167507500Y-103150000D01*
X176927500Y-91770000D02*
X167507500Y-91770000D01*
X167507500Y-108620000D02*
X167507500Y-106960000D01*
X167507500Y-97240000D02*
X167507500Y-95530000D01*
X166217500Y-105610000D02*
X166817500Y-105910000D01*
%TO.C,C1*%
X145738748Y-84765000D02*
X146261252Y-84765000D01*
X145738748Y-86235000D02*
X146261252Y-86235000D01*
%TO.C,R22*%
X163765000Y-101227064D02*
X163765000Y-100772936D01*
X165235000Y-101227064D02*
X165235000Y-100772936D01*
%TO.C,R26*%
X163522936Y-104485000D02*
X163977064Y-104485000D01*
X163522936Y-103015000D02*
X163977064Y-103015000D01*
%TO.C,C15*%
X152515000Y-79761252D02*
X152515000Y-79238748D01*
X153985000Y-79761252D02*
X153985000Y-79238748D01*
%TO.C,R24*%
X163522936Y-83765000D02*
X163977064Y-83765000D01*
X163522936Y-85235000D02*
X163977064Y-85235000D01*
%TO.C,U1*%
X143440000Y-90500000D02*
X143440000Y-88550000D01*
X143440000Y-90500000D02*
X143440000Y-93950000D01*
X153560000Y-90500000D02*
X153560000Y-92450000D01*
X153560000Y-90500000D02*
X153560000Y-88550000D01*
%TO.C,R7*%
X141485000Y-75227064D02*
X141485000Y-74772936D01*
X140015000Y-75227064D02*
X140015000Y-74772936D01*
%TO.C,R8*%
X147765000Y-75227064D02*
X147765000Y-74772936D01*
X149235000Y-75227064D02*
X149235000Y-74772936D01*
%TO.C,C17*%
X150735000Y-100738748D02*
X150735000Y-101261252D01*
X149265000Y-100738748D02*
X149265000Y-101261252D01*
%TO.C,C12*%
X153235000Y-74738748D02*
X153235000Y-75261252D01*
X151765000Y-74738748D02*
X151765000Y-75261252D01*
%TO.C,U9*%
X159950000Y-94090000D02*
X158550000Y-94090000D01*
X158550000Y-96410000D02*
X160450000Y-96410000D01*
%TO.C,U5*%
X153660000Y-101700000D02*
X153660000Y-100300000D01*
X151340000Y-100300000D02*
X151340000Y-102200000D01*
%TO.C,R4*%
X126022936Y-75485000D02*
X126477064Y-75485000D01*
X126022936Y-74015000D02*
X126477064Y-74015000D01*
%TO.C,R18*%
X147235000Y-100772936D02*
X147235000Y-101227064D01*
X145765000Y-100772936D02*
X145765000Y-101227064D01*
%TO.C,SW1*%
X160920000Y-110300000D02*
X160800000Y-110300000D01*
X163070000Y-110300000D02*
X161930000Y-110300000D01*
X164080000Y-114700000D02*
X164200000Y-114700000D01*
X160800000Y-114700000D02*
X160920000Y-114700000D01*
X160800000Y-110300000D02*
X160800000Y-114700000D01*
X164200000Y-114700000D02*
X164200000Y-110300000D01*
X164200000Y-110300000D02*
X164080000Y-110300000D01*
X161930000Y-114700000D02*
X163070000Y-114700000D01*
%TO.C,U7*%
X159950000Y-75340000D02*
X158550000Y-75340000D01*
X158550000Y-77660000D02*
X160450000Y-77660000D01*
%TO.C,R9*%
X155235000Y-105522936D02*
X155235000Y-105977064D01*
X153765000Y-105522936D02*
X153765000Y-105977064D01*
%TO.C,J6*%
X142715000Y-87942470D02*
X142715000Y-87140000D01*
X139990000Y-89360000D02*
X139990000Y-88250000D01*
X141510000Y-89360000D02*
X142715000Y-89360000D01*
X140750000Y-89360000D02*
X139990000Y-89360000D01*
X142715000Y-89360000D02*
X142715000Y-88557530D01*
X141510000Y-87140000D02*
X142715000Y-87140000D01*
X141510000Y-87686529D02*
X141510000Y-87140000D01*
X141510000Y-89360000D02*
X141510000Y-88813471D01*
%TD*%
%LPC*%
D13*
%TO.C,C18*%
X141500000Y-100050000D03*
X141500000Y-101950000D03*
%TD*%
D14*
%TO.C,U8*%
X160200000Y-85900000D03*
X160200000Y-85250000D03*
X160200000Y-84600000D03*
X158300000Y-84600000D03*
X158300000Y-85900000D03*
%TD*%
D15*
%TO.C,C11*%
X158300000Y-106250000D03*
X160200000Y-106250000D03*
%TD*%
D16*
%TO.C,R30*%
X158337500Y-101250000D03*
X160162500Y-101250000D03*
%TD*%
D17*
%TO.C,R5*%
X141912500Y-93250000D03*
X140087500Y-93250000D03*
%TD*%
D18*
%TO.C,C19*%
X164700000Y-78750000D03*
X162800000Y-78750000D03*
%TD*%
D19*
%TO.C,D1*%
X138500000Y-93250000D03*
X136625000Y-93250000D03*
%TD*%
D20*
%TO.C,J1*%
X127600000Y-93390000D03*
X127600000Y-87610000D03*
D21*
X129045000Y-87250000D03*
X129045000Y-88050000D03*
D22*
X129045000Y-89250000D03*
X129045000Y-90250000D03*
X129045000Y-90750000D03*
X129045000Y-91750000D03*
D21*
X129045000Y-92950000D03*
X129045000Y-93750000D03*
X129045000Y-93750000D03*
X129045000Y-92950000D03*
D22*
X129045000Y-92250000D03*
X129045000Y-91250000D03*
X129045000Y-89750000D03*
X129045000Y-88750000D03*
D21*
X129045000Y-88050000D03*
X129045000Y-87250000D03*
D23*
X128130000Y-86180000D03*
D24*
X123950000Y-86180000D03*
X123950000Y-94820000D03*
D23*
X128130000Y-94820000D03*
%TD*%
D25*
%TO.C,J5*%
X142785000Y-110817500D03*
D26*
X146595000Y-110817500D03*
X150405000Y-110817500D03*
X154215000Y-110817500D03*
%TD*%
D27*
%TO.C,C14*%
X150500000Y-106700000D03*
X150500000Y-104800000D03*
%TD*%
D15*
%TO.C,C9*%
X158300000Y-97750000D03*
X160200000Y-97750000D03*
%TD*%
D28*
%TO.C,R12*%
X150500000Y-75912500D03*
X150500000Y-74087500D03*
%TD*%
D16*
%TO.C,R21*%
X162837500Y-94250000D03*
X164662500Y-94250000D03*
%TD*%
%TO.C,R20*%
X162837500Y-82500000D03*
X164662500Y-82500000D03*
%TD*%
%TO.C,R19*%
X162837500Y-74750000D03*
X164662500Y-74750000D03*
%TD*%
D18*
%TO.C,C21*%
X164700000Y-98250000D03*
X162800000Y-98250000D03*
%TD*%
D29*
%TO.C,R3*%
X133000000Y-92087500D03*
X133000000Y-93912500D03*
%TD*%
D15*
%TO.C,C8*%
X158300000Y-87750000D03*
X160200000Y-87750000D03*
%TD*%
D18*
%TO.C,C20*%
X164700000Y-86500000D03*
X162800000Y-86500000D03*
%TD*%
D29*
%TO.C,R10*%
X146750000Y-104837500D03*
X146750000Y-106662500D03*
%TD*%
D30*
%TO.C,J4*%
X154215000Y-70182500D03*
D26*
X150405000Y-70182500D03*
X146595000Y-70182500D03*
X142785000Y-70182500D03*
%TD*%
D28*
%TO.C,R1*%
X138600000Y-90912500D03*
X138600000Y-89087500D03*
%TD*%
%TO.C,R6*%
X159500000Y-112412500D03*
X159500000Y-110587500D03*
%TD*%
D31*
%TO.C,H3*%
X125000000Y-114000000D03*
%TD*%
%TO.C,H4*%
X172000000Y-114000000D03*
%TD*%
D16*
%TO.C,R27*%
X158337500Y-74000000D03*
X160162500Y-74000000D03*
%TD*%
%TO.C,R28*%
X158337500Y-82750000D03*
X160162500Y-82750000D03*
%TD*%
D29*
%TO.C,R17*%
X155000000Y-100087500D03*
X155000000Y-101912500D03*
%TD*%
D32*
%TO.C,J2*%
X168817500Y-86520000D03*
D33*
X168817500Y-82710000D03*
X168817500Y-78900000D03*
X168817500Y-75090000D03*
%TD*%
D16*
%TO.C,R23*%
X162837500Y-76750000D03*
X164662500Y-76750000D03*
%TD*%
D18*
%TO.C,C22*%
X164700000Y-105750000D03*
X162800000Y-105750000D03*
%TD*%
D31*
%TO.C,H2*%
X172000000Y-67000000D03*
%TD*%
D14*
%TO.C,U10*%
X160200000Y-104400000D03*
X160200000Y-103750000D03*
X160200000Y-103100000D03*
X158300000Y-103100000D03*
X158300000Y-104400000D03*
%TD*%
D15*
%TO.C,C7*%
X158300000Y-79000000D03*
X160200000Y-79000000D03*
%TD*%
D34*
%TO.C,U3*%
X142400000Y-78550000D03*
X141750000Y-78550000D03*
X141100000Y-78550000D03*
X141100000Y-80450000D03*
X142400000Y-80450000D03*
%TD*%
D27*
%TO.C,C13*%
X144250000Y-80450000D03*
X144250000Y-78550000D03*
%TD*%
D28*
%TO.C,R2*%
X133000000Y-88912500D03*
X133000000Y-87087500D03*
%TD*%
D29*
%TO.C,R13*%
X152500000Y-104837500D03*
X152500000Y-106662500D03*
%TD*%
D28*
%TO.C,R11*%
X142750000Y-75912500D03*
X142750000Y-74087500D03*
%TD*%
D15*
%TO.C,C2*%
X126300000Y-83250000D03*
X128200000Y-83250000D03*
%TD*%
D27*
%TO.C,C16*%
X142750000Y-106700000D03*
X142750000Y-104800000D03*
%TD*%
D18*
%TO.C,C6*%
X128950000Y-76750000D03*
X127050000Y-76750000D03*
%TD*%
D13*
%TO.C,C10*%
X144750000Y-74050000D03*
X144750000Y-75950000D03*
%TD*%
D29*
%TO.C,R14*%
X144750000Y-104837500D03*
X144750000Y-106662500D03*
%TD*%
D34*
%TO.C,U4*%
X151400000Y-78550000D03*
X150750000Y-78550000D03*
X150100000Y-78550000D03*
X150100000Y-80450000D03*
X151400000Y-80450000D03*
%TD*%
D16*
%TO.C,R29*%
X158337500Y-92750000D03*
X160162500Y-92750000D03*
%TD*%
%TO.C,R25*%
X162837500Y-96250000D03*
X164662500Y-96250000D03*
%TD*%
D18*
%TO.C,C3*%
X143450000Y-85500000D03*
X141550000Y-85500000D03*
%TD*%
D28*
%TO.C,R16*%
X148250000Y-80412500D03*
X148250000Y-78587500D03*
%TD*%
D35*
%TO.C,U2*%
X128200000Y-78862500D03*
X127250000Y-78862500D03*
X126300000Y-78862500D03*
X126300000Y-81137500D03*
X128200000Y-81137500D03*
%TD*%
D34*
%TO.C,U6*%
X143350000Y-101950000D03*
X144000000Y-101950000D03*
X144650000Y-101950000D03*
X144650000Y-100050000D03*
X143350000Y-100050000D03*
%TD*%
D28*
%TO.C,R15*%
X139250000Y-80412500D03*
X139250000Y-78587500D03*
%TD*%
D32*
%TO.C,J3*%
X168817500Y-105910000D03*
D33*
X168817500Y-102100000D03*
X168817500Y-98290000D03*
X168817500Y-94480000D03*
%TD*%
D15*
%TO.C,C1*%
X145050000Y-85500000D03*
X146950000Y-85500000D03*
%TD*%
D28*
%TO.C,R22*%
X164500000Y-101912500D03*
X164500000Y-100087500D03*
%TD*%
D16*
%TO.C,R26*%
X162837500Y-103750000D03*
X164662500Y-103750000D03*
%TD*%
D27*
%TO.C,C15*%
X153250000Y-80450000D03*
X153250000Y-78550000D03*
%TD*%
D16*
%TO.C,R24*%
X162837500Y-84500000D03*
X164662500Y-84500000D03*
%TD*%
D36*
%TO.C,U1*%
X144055000Y-93075000D03*
X145325000Y-93075000D03*
X146595000Y-93075000D03*
X147865000Y-93075000D03*
X149135000Y-93075000D03*
X150405000Y-93075000D03*
X151675000Y-93075000D03*
X152945000Y-93075000D03*
X152945000Y-87925000D03*
X151675000Y-87925000D03*
X150405000Y-87925000D03*
X149135000Y-87925000D03*
X147865000Y-87925000D03*
X146595000Y-87925000D03*
X145325000Y-87925000D03*
X144055000Y-87925000D03*
%TD*%
D28*
%TO.C,R7*%
X140750000Y-75912500D03*
X140750000Y-74087500D03*
%TD*%
%TO.C,R8*%
X148500000Y-75912500D03*
X148500000Y-74087500D03*
%TD*%
D13*
%TO.C,C17*%
X150000000Y-100050000D03*
X150000000Y-101950000D03*
%TD*%
%TO.C,C12*%
X152500000Y-74050000D03*
X152500000Y-75950000D03*
%TD*%
D14*
%TO.C,U9*%
X160200000Y-95900000D03*
X160200000Y-95250000D03*
X160200000Y-94600000D03*
X158300000Y-94600000D03*
X158300000Y-95900000D03*
%TD*%
D34*
%TO.C,U5*%
X151850000Y-101950000D03*
X152500000Y-101950000D03*
X153150000Y-101950000D03*
X153150000Y-100050000D03*
X151850000Y-100050000D03*
%TD*%
D16*
%TO.C,R4*%
X125337500Y-74750000D03*
X127162500Y-74750000D03*
%TD*%
D29*
%TO.C,R18*%
X146500000Y-100087500D03*
X146500000Y-101912500D03*
%TD*%
D37*
%TO.C,SW1*%
X161425000Y-110425000D03*
X161425000Y-114575000D03*
X163575000Y-110425000D03*
X163575000Y-114575000D03*
%TD*%
D14*
%TO.C,U7*%
X160200000Y-77150000D03*
X160200000Y-76500000D03*
X160200000Y-75850000D03*
X158300000Y-75850000D03*
X158300000Y-77150000D03*
%TD*%
D29*
%TO.C,R9*%
X154500000Y-104837500D03*
X154500000Y-106662500D03*
%TD*%
D31*
%TO.C,H1*%
X125000000Y-67000000D03*
%TD*%
D38*
%TO.C,J6*%
X140750000Y-88250000D03*
D39*
X142020000Y-88250000D03*
%TD*%
M02*
