%FSLAX45Y45*%
G04 Gerber Fmt 4.5, Leading zero omitted, Abs format (unit mm)*
G04 Created by KiCad (PCBNEW 6.0.2+dfsg-1) date 2026-02-14 00:25:55*
%MOMM*%
%LPD*%
G01*
G04 APERTURE LIST*
%TA.AperFunction,Profile*%
%ADD10C,0.100000*%
%TD*%
%ADD11C,0.200000*%
%ADD12C,0.040000*%
%ADD13C,0.060000*%
%ADD14C,0.065000*%
%ADD15C,0.120000*%
%ADD16C,0.320000*%
G04 APERTURE END LIST*
D10*
X17600000Y-6700000D02*
G75*
G03*
X17200000Y-6300000I-400000J0D01*
G01*
X12500000Y-6300000D02*
G75*
G03*
X12100000Y-6700000I0J-400000D01*
G01*
X12100000Y-6700000D02*
X12100000Y-11400000D01*
X17600000Y-6700000D02*
X17600000Y-11400000D01*
X12100000Y-11400000D02*
G75*
G03*
X12500000Y-11800000I400000J0D01*
G01*
X17200000Y-11800000D02*
G75*
G03*
X17600000Y-11400000I0J400000D01*
G01*
X12500000Y-6300000D02*
X17200000Y-6300000D01*
X12500000Y-11800000D02*
X17200000Y-11800000D01*
D11*
D12*
X12705000Y-7305000D02*
X12745000Y-7345000D01*
X12745000Y-7305000D02*
X12705000Y-7345000D01*
X12930000Y-8305000D02*
X12970000Y-8345000D01*
X12970000Y-8305000D02*
X12930000Y-8345000D01*
X13140000Y-8690000D02*
X13180000Y-8730000D01*
X13180000Y-8690000D02*
X13140000Y-8730000D01*
X13140000Y-9370000D02*
X13180000Y-9410000D01*
X13180000Y-9370000D02*
X13140000Y-9410000D01*
X14005000Y-8530000D02*
X14045000Y-8570000D01*
X14045000Y-8530000D02*
X14005000Y-8570000D01*
X14030000Y-7730000D02*
X14070000Y-7770000D01*
X14070000Y-7730000D02*
X14030000Y-7770000D01*
X14130000Y-10280000D02*
X14170000Y-10320000D01*
X14170000Y-10280000D02*
X14130000Y-10320000D01*
X14405000Y-7730000D02*
X14445000Y-7770000D01*
X14445000Y-7730000D02*
X14405000Y-7770000D01*
X14805000Y-8530000D02*
X14845000Y-8570000D01*
X14845000Y-8530000D02*
X14805000Y-8570000D01*
X14930000Y-7730000D02*
X14970000Y-7770000D01*
X14970000Y-7730000D02*
X14930000Y-7770000D01*
X14980000Y-10280000D02*
X15020000Y-10320000D01*
X15020000Y-10280000D02*
X14980000Y-10320000D01*
X15305000Y-7730000D02*
X15345000Y-7770000D01*
X15345000Y-7730000D02*
X15305000Y-7770000D01*
X15355000Y-10280000D02*
X15395000Y-10320000D01*
X15395000Y-10280000D02*
X15355000Y-10320000D01*
X15930000Y-11330000D02*
X15970000Y-11370000D01*
X15970000Y-11330000D02*
X15930000Y-11370000D01*
X16105000Y-7505000D02*
X16145000Y-7545000D01*
X16145000Y-7505000D02*
X16105000Y-7545000D01*
X16105000Y-7880000D02*
X16145000Y-7920000D01*
X16145000Y-7880000D02*
X16105000Y-7920000D01*
X16105000Y-8380000D02*
X16145000Y-8420000D01*
X16145000Y-8380000D02*
X16105000Y-8420000D01*
X16105000Y-8755000D02*
X16145000Y-8795000D01*
X16145000Y-8755000D02*
X16105000Y-8795000D01*
X16105000Y-9380000D02*
X16145000Y-9420000D01*
X16145000Y-9380000D02*
X16105000Y-9420000D01*
X16105000Y-10230000D02*
X16145000Y-10270000D01*
X16145000Y-10230000D02*
X16105000Y-10270000D01*
X16105000Y-10605000D02*
X16145000Y-10645000D01*
X16145000Y-10605000D02*
X16105000Y-10645000D01*
X16130000Y-9755000D02*
X16170000Y-9795000D01*
X16170000Y-9755000D02*
X16130000Y-9795000D01*
D13*
X12425000Y-8618000D02*
G75*
G03*
X12425000Y-8618000I-30000J0D01*
G01*
D11*
X12425000Y-8598000D02*
X12365000Y-8598000D01*
X12425000Y-8638000D02*
X12365000Y-8638000D01*
X12365000Y-8598000D02*
G75*
G03*
X12365000Y-8638000I0J-20000D01*
G01*
X12425000Y-8638000D02*
G75*
G03*
X12425000Y-8598000I0J20000D01*
G01*
D13*
X12425000Y-9482000D02*
G75*
G03*
X12425000Y-9482000I-30000J0D01*
G01*
D11*
X12425000Y-9462000D02*
X12365000Y-9462000D01*
X12425000Y-9502000D02*
X12365000Y-9502000D01*
X12365000Y-9462000D02*
G75*
G03*
X12365000Y-9502000I0J-20000D01*
G01*
X12425000Y-9502000D02*
G75*
G03*
X12425000Y-9462000I0J20000D01*
G01*
D13*
X12843000Y-8618000D02*
G75*
G03*
X12843000Y-8618000I-30000J0D01*
G01*
D11*
X12868000Y-8598000D02*
X12758000Y-8598000D01*
X12868000Y-8638000D02*
X12758000Y-8638000D01*
X12758000Y-8598000D02*
G75*
G03*
X12758000Y-8638000I0J-20000D01*
G01*
X12868000Y-8638000D02*
G75*
G03*
X12868000Y-8598000I0J20000D01*
G01*
D13*
X12843000Y-9482000D02*
G75*
G03*
X12843000Y-9482000I-30000J0D01*
G01*
D11*
X12868000Y-9462000D02*
X12758000Y-9462000D01*
X12868000Y-9502000D02*
X12758000Y-9502000D01*
X12758000Y-9462000D02*
G75*
G03*
X12758000Y-9502000I0J-20000D01*
G01*
X12868000Y-9502000D02*
G75*
G03*
X12868000Y-9462000I0J20000D01*
G01*
D14*
X14075000Y-8792500D02*
X14075000Y-8857500D01*
X14042500Y-8825000D02*
X14107500Y-8825000D01*
X14202000Y-8792500D02*
X14202000Y-8857500D01*
X14169500Y-8825000D02*
X14234500Y-8825000D01*
D15*
X14320927Y-7060677D02*
X14320927Y-6975823D01*
X14236073Y-6975823D01*
X14236073Y-7060677D01*
X14320927Y-7060677D01*
X14320927Y-11124177D02*
X14320927Y-11039323D01*
X14236073Y-11039323D01*
X14236073Y-11124177D01*
X14320927Y-11124177D01*
X14701927Y-7060677D02*
X14701927Y-6975823D01*
X14617073Y-6975823D01*
X14617073Y-7060677D01*
X14701927Y-7060677D01*
X14701927Y-11124177D02*
X14701927Y-11039323D01*
X14617073Y-11039323D01*
X14617073Y-11124177D01*
X14701927Y-11124177D01*
X15082927Y-7060677D02*
X15082927Y-6975823D01*
X14998073Y-6975823D01*
X14998073Y-7060677D01*
X15082927Y-7060677D01*
X15082927Y-11124177D02*
X15082927Y-11039323D01*
X14998073Y-11039323D01*
X14998073Y-11124177D01*
X15082927Y-11124177D01*
X15463927Y-7060677D02*
X15463927Y-6975823D01*
X15379073Y-6975823D01*
X15379073Y-7060677D01*
X15463927Y-7060677D01*
X15463927Y-11124177D02*
X15463927Y-11039323D01*
X15379073Y-11039323D01*
X15379073Y-11124177D01*
X15463927Y-11124177D01*
X16924177Y-7551427D02*
X16924177Y-7466573D01*
X16839323Y-7466573D01*
X16839323Y-7551427D01*
X16924177Y-7551427D01*
X16924177Y-7932427D02*
X16924177Y-7847573D01*
X16839323Y-7847573D01*
X16839323Y-7932427D01*
X16924177Y-7932427D01*
X16924177Y-8313427D02*
X16924177Y-8228573D01*
X16839323Y-8228573D01*
X16839323Y-8313427D01*
X16924177Y-8313427D01*
X16924177Y-8694427D02*
X16924177Y-8609573D01*
X16839323Y-8609573D01*
X16839323Y-8694427D01*
X16924177Y-8694427D01*
X16924177Y-9490427D02*
X16924177Y-9405573D01*
X16839323Y-9405573D01*
X16839323Y-9490427D01*
X16924177Y-9490427D01*
X16924177Y-9871427D02*
X16924177Y-9786573D01*
X16839323Y-9786573D01*
X16839323Y-9871427D01*
X16924177Y-9871427D01*
X16924177Y-10252427D02*
X16924177Y-10167573D01*
X16839323Y-10167573D01*
X16839323Y-10252427D01*
X16924177Y-10252427D01*
X16924177Y-10633427D02*
X16924177Y-10548573D01*
X16839323Y-10548573D01*
X16839323Y-10633427D01*
X16924177Y-10633427D01*
D16*
X12500000Y-6860000D02*
X12660000Y-6700000D01*
X12500000Y-6540000D01*
X12340000Y-6700000D01*
X12500000Y-6860000D01*
X12500000Y-11560000D02*
X12660000Y-11400000D01*
X12500000Y-11240000D01*
X12340000Y-11400000D01*
X12500000Y-11560000D01*
X17200000Y-6860000D02*
X17360000Y-6700000D01*
X17200000Y-6540000D01*
X17040000Y-6700000D01*
X17200000Y-6860000D01*
X17200000Y-11560000D02*
X17360000Y-11400000D01*
X17200000Y-11240000D01*
X17040000Y-11400000D01*
X17200000Y-11560000D01*
D11*
X12352619Y-12115476D02*
X12352619Y-11915476D01*
X12400238Y-11915476D01*
X12428809Y-11925000D01*
X12447857Y-11944048D01*
X12457381Y-11963095D01*
X12466905Y-12001190D01*
X12466905Y-12029762D01*
X12457381Y-12067857D01*
X12447857Y-12086905D01*
X12428809Y-12105952D01*
X12400238Y-12115476D01*
X12352619Y-12115476D01*
X12552619Y-12115476D02*
X12552619Y-11982143D01*
X12552619Y-12020238D02*
X12562143Y-12001190D01*
X12571667Y-11991667D01*
X12590714Y-11982143D01*
X12609762Y-11982143D01*
X12676428Y-12115476D02*
X12676428Y-11982143D01*
X12676428Y-11915476D02*
X12666905Y-11925000D01*
X12676428Y-11934524D01*
X12685952Y-11925000D01*
X12676428Y-11915476D01*
X12676428Y-11934524D01*
X12800238Y-12115476D02*
X12781190Y-12105952D01*
X12771667Y-12086905D01*
X12771667Y-11915476D01*
X12905000Y-12115476D02*
X12885952Y-12105952D01*
X12876428Y-12086905D01*
X12876428Y-11915476D01*
X13133571Y-12115476D02*
X13133571Y-11915476D01*
X13200238Y-12058333D01*
X13266905Y-11915476D01*
X13266905Y-12115476D01*
X13447857Y-12115476D02*
X13447857Y-12010714D01*
X13438333Y-11991667D01*
X13419286Y-11982143D01*
X13381190Y-11982143D01*
X13362143Y-11991667D01*
X13447857Y-12105952D02*
X13428809Y-12115476D01*
X13381190Y-12115476D01*
X13362143Y-12105952D01*
X13352619Y-12086905D01*
X13352619Y-12067857D01*
X13362143Y-12048809D01*
X13381190Y-12039286D01*
X13428809Y-12039286D01*
X13447857Y-12029762D01*
X13543095Y-11982143D02*
X13543095Y-12182143D01*
X13543095Y-11991667D02*
X13562143Y-11982143D01*
X13600238Y-11982143D01*
X13619286Y-11991667D01*
X13628809Y-12001190D01*
X13638333Y-12020238D01*
X13638333Y-12077381D01*
X13628809Y-12096428D01*
X13619286Y-12105952D01*
X13600238Y-12115476D01*
X13562143Y-12115476D01*
X13543095Y-12105952D01*
X13724048Y-12096428D02*
X13733571Y-12105952D01*
X13724048Y-12115476D01*
X13714524Y-12105952D01*
X13724048Y-12096428D01*
X13724048Y-12115476D01*
X13724048Y-11991667D02*
X13733571Y-12001190D01*
X13724048Y-12010714D01*
X13714524Y-12001190D01*
X13724048Y-11991667D01*
X13724048Y-12010714D01*
D12*
X12055000Y-12425000D02*
X12095000Y-12465000D01*
X12095000Y-12425000D02*
X12055000Y-12465000D01*
D11*
X12390714Y-12335476D02*
X12409762Y-12335476D01*
X12428809Y-12345000D01*
X12438333Y-12354524D01*
X12447857Y-12373571D01*
X12457381Y-12411667D01*
X12457381Y-12459286D01*
X12447857Y-12497381D01*
X12438333Y-12516428D01*
X12428809Y-12525952D01*
X12409762Y-12535476D01*
X12390714Y-12535476D01*
X12371667Y-12525952D01*
X12362143Y-12516428D01*
X12352619Y-12497381D01*
X12343095Y-12459286D01*
X12343095Y-12411667D01*
X12352619Y-12373571D01*
X12362143Y-12354524D01*
X12371667Y-12345000D01*
X12390714Y-12335476D01*
X12543095Y-12516428D02*
X12552619Y-12525952D01*
X12543095Y-12535476D01*
X12533571Y-12525952D01*
X12543095Y-12516428D01*
X12543095Y-12535476D01*
X12724048Y-12402143D02*
X12724048Y-12535476D01*
X12676428Y-12325952D02*
X12628809Y-12468809D01*
X12752619Y-12468809D01*
X12866905Y-12335476D02*
X12885952Y-12335476D01*
X12905000Y-12345000D01*
X12914524Y-12354524D01*
X12924048Y-12373571D01*
X12933571Y-12411667D01*
X12933571Y-12459286D01*
X12924048Y-12497381D01*
X12914524Y-12516428D01*
X12905000Y-12525952D01*
X12885952Y-12535476D01*
X12866905Y-12535476D01*
X12847857Y-12525952D01*
X12838333Y-12516428D01*
X12828809Y-12497381D01*
X12819286Y-12459286D01*
X12819286Y-12411667D01*
X12828809Y-12373571D01*
X12838333Y-12354524D01*
X12847857Y-12345000D01*
X12866905Y-12335476D01*
X13057381Y-12335476D02*
X13076428Y-12335476D01*
X13095476Y-12345000D01*
X13105000Y-12354524D01*
X13114524Y-12373571D01*
X13124048Y-12411667D01*
X13124048Y-12459286D01*
X13114524Y-12497381D01*
X13105000Y-12516428D01*
X13095476Y-12525952D01*
X13076428Y-12535476D01*
X13057381Y-12535476D01*
X13038333Y-12525952D01*
X13028809Y-12516428D01*
X13019286Y-12497381D01*
X13009762Y-12459286D01*
X13009762Y-12411667D01*
X13019286Y-12373571D01*
X13028809Y-12354524D01*
X13038333Y-12345000D01*
X13057381Y-12335476D01*
X13209762Y-12535476D02*
X13209762Y-12402143D01*
X13209762Y-12421190D02*
X13219286Y-12411667D01*
X13238333Y-12402143D01*
X13266905Y-12402143D01*
X13285952Y-12411667D01*
X13295476Y-12430714D01*
X13295476Y-12535476D01*
X13295476Y-12430714D02*
X13305000Y-12411667D01*
X13324048Y-12402143D01*
X13352619Y-12402143D01*
X13371667Y-12411667D01*
X13381190Y-12430714D01*
X13381190Y-12535476D01*
X13476428Y-12535476D02*
X13476428Y-12402143D01*
X13476428Y-12421190D02*
X13485952Y-12411667D01*
X13505000Y-12402143D01*
X13533571Y-12402143D01*
X13552619Y-12411667D01*
X13562143Y-12430714D01*
X13562143Y-12535476D01*
X13562143Y-12430714D02*
X13571667Y-12411667D01*
X13590714Y-12402143D01*
X13619286Y-12402143D01*
X13638333Y-12411667D01*
X13647857Y-12430714D01*
X13647857Y-12535476D01*
X14038333Y-12325952D02*
X13866905Y-12583095D01*
X14295476Y-12335476D02*
X14314524Y-12335476D01*
X14333571Y-12345000D01*
X14343095Y-12354524D01*
X14352619Y-12373571D01*
X14362143Y-12411667D01*
X14362143Y-12459286D01*
X14352619Y-12497381D01*
X14343095Y-12516428D01*
X14333571Y-12525952D01*
X14314524Y-12535476D01*
X14295476Y-12535476D01*
X14276428Y-12525952D01*
X14266905Y-12516428D01*
X14257381Y-12497381D01*
X14247857Y-12459286D01*
X14247857Y-12411667D01*
X14257381Y-12373571D01*
X14266905Y-12354524D01*
X14276428Y-12345000D01*
X14295476Y-12335476D01*
X14447857Y-12516428D02*
X14457381Y-12525952D01*
X14447857Y-12535476D01*
X14438333Y-12525952D01*
X14447857Y-12516428D01*
X14447857Y-12535476D01*
X14581190Y-12335476D02*
X14600238Y-12335476D01*
X14619286Y-12345000D01*
X14628809Y-12354524D01*
X14638333Y-12373571D01*
X14647857Y-12411667D01*
X14647857Y-12459286D01*
X14638333Y-12497381D01*
X14628809Y-12516428D01*
X14619286Y-12525952D01*
X14600238Y-12535476D01*
X14581190Y-12535476D01*
X14562143Y-12525952D01*
X14552619Y-12516428D01*
X14543095Y-12497381D01*
X14533571Y-12459286D01*
X14533571Y-12411667D01*
X14543095Y-12373571D01*
X14552619Y-12354524D01*
X14562143Y-12345000D01*
X14581190Y-12335476D01*
X14838333Y-12535476D02*
X14724048Y-12535476D01*
X14781190Y-12535476D02*
X14781190Y-12335476D01*
X14762143Y-12364048D01*
X14743095Y-12383095D01*
X14724048Y-12392619D01*
X15019286Y-12335476D02*
X14924048Y-12335476D01*
X14914524Y-12430714D01*
X14924048Y-12421190D01*
X14943095Y-12411667D01*
X14990714Y-12411667D01*
X15009762Y-12421190D01*
X15019286Y-12430714D01*
X15028809Y-12449762D01*
X15028809Y-12497381D01*
X15019286Y-12516428D01*
X15009762Y-12525952D01*
X14990714Y-12535476D01*
X14943095Y-12535476D01*
X14924048Y-12525952D01*
X14914524Y-12516428D01*
X15095476Y-12335476D02*
X15228809Y-12335476D01*
X15143095Y-12535476D01*
X15295476Y-12335476D02*
X15295476Y-12373571D01*
X15371667Y-12335476D02*
X15371667Y-12373571D01*
X15666905Y-12611667D02*
X15657381Y-12602143D01*
X15638333Y-12573571D01*
X15628809Y-12554524D01*
X15619286Y-12525952D01*
X15609762Y-12478333D01*
X15609762Y-12440238D01*
X15619286Y-12392619D01*
X15628809Y-12364048D01*
X15638333Y-12345000D01*
X15657381Y-12316428D01*
X15666905Y-12306905D01*
X15733571Y-12354524D02*
X15743095Y-12345000D01*
X15762143Y-12335476D01*
X15809762Y-12335476D01*
X15828809Y-12345000D01*
X15838333Y-12354524D01*
X15847857Y-12373571D01*
X15847857Y-12392619D01*
X15838333Y-12421190D01*
X15724048Y-12535476D01*
X15847857Y-12535476D01*
X15924048Y-12354524D02*
X15933571Y-12345000D01*
X15952619Y-12335476D01*
X16000238Y-12335476D01*
X16019286Y-12345000D01*
X16028809Y-12354524D01*
X16038333Y-12373571D01*
X16038333Y-12392619D01*
X16028809Y-12421190D01*
X15914524Y-12535476D01*
X16038333Y-12535476D01*
X16276428Y-12535476D02*
X16276428Y-12335476D01*
X16362143Y-12535476D02*
X16362143Y-12430714D01*
X16352619Y-12411667D01*
X16333571Y-12402143D01*
X16305000Y-12402143D01*
X16285952Y-12411667D01*
X16276428Y-12421190D01*
X16485952Y-12535476D02*
X16466905Y-12525952D01*
X16457381Y-12516428D01*
X16447857Y-12497381D01*
X16447857Y-12440238D01*
X16457381Y-12421190D01*
X16466905Y-12411667D01*
X16485952Y-12402143D01*
X16514524Y-12402143D01*
X16533571Y-12411667D01*
X16543095Y-12421190D01*
X16552619Y-12440238D01*
X16552619Y-12497381D01*
X16543095Y-12516428D01*
X16533571Y-12525952D01*
X16514524Y-12535476D01*
X16485952Y-12535476D01*
X16666905Y-12535476D02*
X16647857Y-12525952D01*
X16638333Y-12506905D01*
X16638333Y-12335476D01*
X16819286Y-12525952D02*
X16800238Y-12535476D01*
X16762143Y-12535476D01*
X16743095Y-12525952D01*
X16733571Y-12506905D01*
X16733571Y-12430714D01*
X16743095Y-12411667D01*
X16762143Y-12402143D01*
X16800238Y-12402143D01*
X16819286Y-12411667D01*
X16828810Y-12430714D01*
X16828810Y-12449762D01*
X16733571Y-12468809D01*
X16905000Y-12525952D02*
X16924048Y-12535476D01*
X16962143Y-12535476D01*
X16981190Y-12525952D01*
X16990714Y-12506905D01*
X16990714Y-12497381D01*
X16981190Y-12478333D01*
X16962143Y-12468809D01*
X16933571Y-12468809D01*
X16914524Y-12459286D01*
X16905000Y-12440238D01*
X16905000Y-12430714D01*
X16914524Y-12411667D01*
X16933571Y-12402143D01*
X16962143Y-12402143D01*
X16981190Y-12411667D01*
X17057381Y-12611667D02*
X17066905Y-12602143D01*
X17085952Y-12573571D01*
X17095476Y-12554524D01*
X17105000Y-12525952D01*
X17114524Y-12478333D01*
X17114524Y-12440238D01*
X17105000Y-12392619D01*
X17095476Y-12364048D01*
X17085952Y-12345000D01*
X17066905Y-12316428D01*
X17057381Y-12306905D01*
D13*
X12095000Y-12709000D02*
G75*
G03*
X12095000Y-12709000I-30000J0D01*
G01*
D11*
X12390714Y-12599476D02*
X12409762Y-12599476D01*
X12428809Y-12609000D01*
X12438333Y-12618524D01*
X12447857Y-12637571D01*
X12457381Y-12675667D01*
X12457381Y-12723286D01*
X12447857Y-12761381D01*
X12438333Y-12780428D01*
X12428809Y-12789952D01*
X12409762Y-12799476D01*
X12390714Y-12799476D01*
X12371667Y-12789952D01*
X12362143Y-12780428D01*
X12352619Y-12761381D01*
X12343095Y-12723286D01*
X12343095Y-12675667D01*
X12352619Y-12637571D01*
X12362143Y-12618524D01*
X12371667Y-12609000D01*
X12390714Y-12599476D01*
X12543095Y-12780428D02*
X12552619Y-12789952D01*
X12543095Y-12799476D01*
X12533571Y-12789952D01*
X12543095Y-12780428D01*
X12543095Y-12799476D01*
X12724048Y-12599476D02*
X12685952Y-12599476D01*
X12666905Y-12609000D01*
X12657381Y-12618524D01*
X12638333Y-12647095D01*
X12628809Y-12685190D01*
X12628809Y-12761381D01*
X12638333Y-12780428D01*
X12647857Y-12789952D01*
X12666905Y-12799476D01*
X12705000Y-12799476D01*
X12724048Y-12789952D01*
X12733571Y-12780428D01*
X12743095Y-12761381D01*
X12743095Y-12713762D01*
X12733571Y-12694714D01*
X12724048Y-12685190D01*
X12705000Y-12675667D01*
X12666905Y-12675667D01*
X12647857Y-12685190D01*
X12638333Y-12694714D01*
X12628809Y-12713762D01*
X12866905Y-12599476D02*
X12885952Y-12599476D01*
X12905000Y-12609000D01*
X12914524Y-12618524D01*
X12924048Y-12637571D01*
X12933571Y-12675667D01*
X12933571Y-12723286D01*
X12924048Y-12761381D01*
X12914524Y-12780428D01*
X12905000Y-12789952D01*
X12885952Y-12799476D01*
X12866905Y-12799476D01*
X12847857Y-12789952D01*
X12838333Y-12780428D01*
X12828809Y-12761381D01*
X12819286Y-12723286D01*
X12819286Y-12675667D01*
X12828809Y-12637571D01*
X12838333Y-12618524D01*
X12847857Y-12609000D01*
X12866905Y-12599476D01*
X13057381Y-12599476D02*
X13076428Y-12599476D01*
X13095476Y-12609000D01*
X13105000Y-12618524D01*
X13114524Y-12637571D01*
X13124048Y-12675667D01*
X13124048Y-12723286D01*
X13114524Y-12761381D01*
X13105000Y-12780428D01*
X13095476Y-12789952D01*
X13076428Y-12799476D01*
X13057381Y-12799476D01*
X13038333Y-12789952D01*
X13028809Y-12780428D01*
X13019286Y-12761381D01*
X13009762Y-12723286D01*
X13009762Y-12675667D01*
X13019286Y-12637571D01*
X13028809Y-12618524D01*
X13038333Y-12609000D01*
X13057381Y-12599476D01*
X13209762Y-12799476D02*
X13209762Y-12666143D01*
X13209762Y-12685190D02*
X13219286Y-12675667D01*
X13238333Y-12666143D01*
X13266905Y-12666143D01*
X13285952Y-12675667D01*
X13295476Y-12694714D01*
X13295476Y-12799476D01*
X13295476Y-12694714D02*
X13305000Y-12675667D01*
X13324048Y-12666143D01*
X13352619Y-12666143D01*
X13371667Y-12675667D01*
X13381190Y-12694714D01*
X13381190Y-12799476D01*
X13476428Y-12799476D02*
X13476428Y-12666143D01*
X13476428Y-12685190D02*
X13485952Y-12675667D01*
X13505000Y-12666143D01*
X13533571Y-12666143D01*
X13552619Y-12675667D01*
X13562143Y-12694714D01*
X13562143Y-12799476D01*
X13562143Y-12694714D02*
X13571667Y-12675667D01*
X13590714Y-12666143D01*
X13619286Y-12666143D01*
X13638333Y-12675667D01*
X13647857Y-12694714D01*
X13647857Y-12799476D01*
X14038333Y-12589952D02*
X13866905Y-12847095D01*
X14295476Y-12599476D02*
X14314524Y-12599476D01*
X14333571Y-12609000D01*
X14343095Y-12618524D01*
X14352619Y-12637571D01*
X14362143Y-12675667D01*
X14362143Y-12723286D01*
X14352619Y-12761381D01*
X14343095Y-12780428D01*
X14333571Y-12789952D01*
X14314524Y-12799476D01*
X14295476Y-12799476D01*
X14276428Y-12789952D01*
X14266905Y-12780428D01*
X14257381Y-12761381D01*
X14247857Y-12723286D01*
X14247857Y-12675667D01*
X14257381Y-12637571D01*
X14266905Y-12618524D01*
X14276428Y-12609000D01*
X14295476Y-12599476D01*
X14447857Y-12780428D02*
X14457381Y-12789952D01*
X14447857Y-12799476D01*
X14438333Y-12789952D01*
X14447857Y-12780428D01*
X14447857Y-12799476D01*
X14581190Y-12599476D02*
X14600238Y-12599476D01*
X14619286Y-12609000D01*
X14628809Y-12618524D01*
X14638333Y-12637571D01*
X14647857Y-12675667D01*
X14647857Y-12723286D01*
X14638333Y-12761381D01*
X14628809Y-12780428D01*
X14619286Y-12789952D01*
X14600238Y-12799476D01*
X14581190Y-12799476D01*
X14562143Y-12789952D01*
X14552619Y-12780428D01*
X14543095Y-12761381D01*
X14533571Y-12723286D01*
X14533571Y-12675667D01*
X14543095Y-12637571D01*
X14552619Y-12618524D01*
X14562143Y-12609000D01*
X14581190Y-12599476D01*
X14724048Y-12618524D02*
X14733571Y-12609000D01*
X14752619Y-12599476D01*
X14800238Y-12599476D01*
X14819286Y-12609000D01*
X14828809Y-12618524D01*
X14838333Y-12637571D01*
X14838333Y-12656619D01*
X14828809Y-12685190D01*
X14714524Y-12799476D01*
X14838333Y-12799476D01*
X14905000Y-12599476D02*
X15028809Y-12599476D01*
X14962143Y-12675667D01*
X14990714Y-12675667D01*
X15009762Y-12685190D01*
X15019286Y-12694714D01*
X15028809Y-12713762D01*
X15028809Y-12761381D01*
X15019286Y-12780428D01*
X15009762Y-12789952D01*
X14990714Y-12799476D01*
X14933571Y-12799476D01*
X14914524Y-12789952D01*
X14905000Y-12780428D01*
X15200238Y-12599476D02*
X15162143Y-12599476D01*
X15143095Y-12609000D01*
X15133571Y-12618524D01*
X15114524Y-12647095D01*
X15105000Y-12685190D01*
X15105000Y-12761381D01*
X15114524Y-12780428D01*
X15124048Y-12789952D01*
X15143095Y-12799476D01*
X15181190Y-12799476D01*
X15200238Y-12789952D01*
X15209762Y-12780428D01*
X15219286Y-12761381D01*
X15219286Y-12713762D01*
X15209762Y-12694714D01*
X15200238Y-12685190D01*
X15181190Y-12675667D01*
X15143095Y-12675667D01*
X15124048Y-12685190D01*
X15114524Y-12694714D01*
X15105000Y-12713762D01*
X15295476Y-12599476D02*
X15295476Y-12637571D01*
X15371667Y-12599476D02*
X15371667Y-12637571D01*
X15666905Y-12875667D02*
X15657381Y-12866143D01*
X15638333Y-12837571D01*
X15628809Y-12818524D01*
X15619286Y-12789952D01*
X15609762Y-12742333D01*
X15609762Y-12704238D01*
X15619286Y-12656619D01*
X15628809Y-12628048D01*
X15638333Y-12609000D01*
X15657381Y-12580428D01*
X15666905Y-12570905D01*
X15781190Y-12599476D02*
X15800238Y-12599476D01*
X15819286Y-12609000D01*
X15828809Y-12618524D01*
X15838333Y-12637571D01*
X15847857Y-12675667D01*
X15847857Y-12723286D01*
X15838333Y-12761381D01*
X15828809Y-12780428D01*
X15819286Y-12789952D01*
X15800238Y-12799476D01*
X15781190Y-12799476D01*
X15762143Y-12789952D01*
X15752619Y-12780428D01*
X15743095Y-12761381D01*
X15733571Y-12723286D01*
X15733571Y-12675667D01*
X15743095Y-12637571D01*
X15752619Y-12618524D01*
X15762143Y-12609000D01*
X15781190Y-12599476D01*
X16085952Y-12799476D02*
X16085952Y-12599476D01*
X16171667Y-12799476D02*
X16171667Y-12694714D01*
X16162143Y-12675667D01*
X16143095Y-12666143D01*
X16114524Y-12666143D01*
X16095476Y-12675667D01*
X16085952Y-12685190D01*
X16295476Y-12799476D02*
X16276428Y-12789952D01*
X16266905Y-12780428D01*
X16257381Y-12761381D01*
X16257381Y-12704238D01*
X16266905Y-12685190D01*
X16276428Y-12675667D01*
X16295476Y-12666143D01*
X16324048Y-12666143D01*
X16343095Y-12675667D01*
X16352619Y-12685190D01*
X16362143Y-12704238D01*
X16362143Y-12761381D01*
X16352619Y-12780428D01*
X16343095Y-12789952D01*
X16324048Y-12799476D01*
X16295476Y-12799476D01*
X16476428Y-12799476D02*
X16457381Y-12789952D01*
X16447857Y-12770905D01*
X16447857Y-12599476D01*
X16628809Y-12789952D02*
X16609762Y-12799476D01*
X16571667Y-12799476D01*
X16552619Y-12789952D01*
X16543095Y-12770905D01*
X16543095Y-12694714D01*
X16552619Y-12675667D01*
X16571667Y-12666143D01*
X16609762Y-12666143D01*
X16628809Y-12675667D01*
X16638333Y-12694714D01*
X16638333Y-12713762D01*
X16543095Y-12732809D01*
X16714524Y-12789952D02*
X16733571Y-12799476D01*
X16771667Y-12799476D01*
X16790714Y-12789952D01*
X16800238Y-12770905D01*
X16800238Y-12761381D01*
X16790714Y-12742333D01*
X16771667Y-12732809D01*
X16743095Y-12732809D01*
X16724048Y-12723286D01*
X16714524Y-12704238D01*
X16714524Y-12694714D01*
X16724048Y-12675667D01*
X16743095Y-12666143D01*
X16771667Y-12666143D01*
X16790714Y-12675667D01*
X17038333Y-12723286D02*
X17190714Y-12723286D01*
X17114524Y-12799476D02*
X17114524Y-12647095D01*
X17524048Y-12666143D02*
X17524048Y-12799476D01*
X17476429Y-12589952D02*
X17428810Y-12732809D01*
X17552619Y-12732809D01*
X17771667Y-12789952D02*
X17790714Y-12799476D01*
X17828810Y-12799476D01*
X17847857Y-12789952D01*
X17857381Y-12770905D01*
X17857381Y-12761381D01*
X17847857Y-12742333D01*
X17828810Y-12732809D01*
X17800238Y-12732809D01*
X17781190Y-12723286D01*
X17771667Y-12704238D01*
X17771667Y-12694714D01*
X17781190Y-12675667D01*
X17800238Y-12666143D01*
X17828810Y-12666143D01*
X17847857Y-12675667D01*
X17971667Y-12799476D02*
X17952619Y-12789952D01*
X17943095Y-12770905D01*
X17943095Y-12599476D01*
X18076429Y-12799476D02*
X18057381Y-12789952D01*
X18047857Y-12780428D01*
X18038333Y-12761381D01*
X18038333Y-12704238D01*
X18047857Y-12685190D01*
X18057381Y-12675667D01*
X18076429Y-12666143D01*
X18105000Y-12666143D01*
X18124048Y-12675667D01*
X18133571Y-12685190D01*
X18143095Y-12704238D01*
X18143095Y-12761381D01*
X18133571Y-12780428D01*
X18124048Y-12789952D01*
X18105000Y-12799476D01*
X18076429Y-12799476D01*
X18200238Y-12666143D02*
X18276429Y-12666143D01*
X18228810Y-12599476D02*
X18228810Y-12770905D01*
X18238333Y-12789952D01*
X18257381Y-12799476D01*
X18276429Y-12799476D01*
X18333571Y-12789952D02*
X18352619Y-12799476D01*
X18390714Y-12799476D01*
X18409762Y-12789952D01*
X18419286Y-12770905D01*
X18419286Y-12761381D01*
X18409762Y-12742333D01*
X18390714Y-12732809D01*
X18362143Y-12732809D01*
X18343095Y-12723286D01*
X18333571Y-12704238D01*
X18333571Y-12694714D01*
X18343095Y-12675667D01*
X18362143Y-12666143D01*
X18390714Y-12666143D01*
X18409762Y-12675667D01*
X18485952Y-12875667D02*
X18495476Y-12866143D01*
X18514524Y-12837571D01*
X18524048Y-12818524D01*
X18533571Y-12789952D01*
X18543095Y-12742333D01*
X18543095Y-12704238D01*
X18533571Y-12656619D01*
X18524048Y-12628048D01*
X18514524Y-12609000D01*
X18495476Y-12580428D01*
X18485952Y-12570905D01*
D14*
X12062500Y-12940500D02*
X12062500Y-13005500D01*
X12030000Y-12973000D02*
X12095000Y-12973000D01*
D11*
X12390714Y-12863476D02*
X12409762Y-12863476D01*
X12428809Y-12873000D01*
X12438333Y-12882524D01*
X12447857Y-12901571D01*
X12457381Y-12939667D01*
X12457381Y-12987286D01*
X12447857Y-13025381D01*
X12438333Y-13044428D01*
X12428809Y-13053952D01*
X12409762Y-13063476D01*
X12390714Y-13063476D01*
X12371667Y-13053952D01*
X12362143Y-13044428D01*
X12352619Y-13025381D01*
X12343095Y-12987286D01*
X12343095Y-12939667D01*
X12352619Y-12901571D01*
X12362143Y-12882524D01*
X12371667Y-12873000D01*
X12390714Y-12863476D01*
X12543095Y-13044428D02*
X12552619Y-13053952D01*
X12543095Y-13063476D01*
X12533571Y-13053952D01*
X12543095Y-13044428D01*
X12543095Y-13063476D01*
X12724048Y-12863476D02*
X12685952Y-12863476D01*
X12666905Y-12873000D01*
X12657381Y-12882524D01*
X12638333Y-12911095D01*
X12628809Y-12949190D01*
X12628809Y-13025381D01*
X12638333Y-13044428D01*
X12647857Y-13053952D01*
X12666905Y-13063476D01*
X12705000Y-13063476D01*
X12724048Y-13053952D01*
X12733571Y-13044428D01*
X12743095Y-13025381D01*
X12743095Y-12977762D01*
X12733571Y-12958714D01*
X12724048Y-12949190D01*
X12705000Y-12939667D01*
X12666905Y-12939667D01*
X12647857Y-12949190D01*
X12638333Y-12958714D01*
X12628809Y-12977762D01*
X12924048Y-12863476D02*
X12828809Y-12863476D01*
X12819286Y-12958714D01*
X12828809Y-12949190D01*
X12847857Y-12939667D01*
X12895476Y-12939667D01*
X12914524Y-12949190D01*
X12924048Y-12958714D01*
X12933571Y-12977762D01*
X12933571Y-13025381D01*
X12924048Y-13044428D01*
X12914524Y-13053952D01*
X12895476Y-13063476D01*
X12847857Y-13063476D01*
X12828809Y-13053952D01*
X12819286Y-13044428D01*
X13057381Y-12863476D02*
X13076428Y-12863476D01*
X13095476Y-12873000D01*
X13105000Y-12882524D01*
X13114524Y-12901571D01*
X13124048Y-12939667D01*
X13124048Y-12987286D01*
X13114524Y-13025381D01*
X13105000Y-13044428D01*
X13095476Y-13053952D01*
X13076428Y-13063476D01*
X13057381Y-13063476D01*
X13038333Y-13053952D01*
X13028809Y-13044428D01*
X13019286Y-13025381D01*
X13009762Y-12987286D01*
X13009762Y-12939667D01*
X13019286Y-12901571D01*
X13028809Y-12882524D01*
X13038333Y-12873000D01*
X13057381Y-12863476D01*
X13209762Y-13063476D02*
X13209762Y-12930143D01*
X13209762Y-12949190D02*
X13219286Y-12939667D01*
X13238333Y-12930143D01*
X13266905Y-12930143D01*
X13285952Y-12939667D01*
X13295476Y-12958714D01*
X13295476Y-13063476D01*
X13295476Y-12958714D02*
X13305000Y-12939667D01*
X13324048Y-12930143D01*
X13352619Y-12930143D01*
X13371667Y-12939667D01*
X13381190Y-12958714D01*
X13381190Y-13063476D01*
X13476428Y-13063476D02*
X13476428Y-12930143D01*
X13476428Y-12949190D02*
X13485952Y-12939667D01*
X13505000Y-12930143D01*
X13533571Y-12930143D01*
X13552619Y-12939667D01*
X13562143Y-12958714D01*
X13562143Y-13063476D01*
X13562143Y-12958714D02*
X13571667Y-12939667D01*
X13590714Y-12930143D01*
X13619286Y-12930143D01*
X13638333Y-12939667D01*
X13647857Y-12958714D01*
X13647857Y-13063476D01*
X14038333Y-12853952D02*
X13866905Y-13111095D01*
X14295476Y-12863476D02*
X14314524Y-12863476D01*
X14333571Y-12873000D01*
X14343095Y-12882524D01*
X14352619Y-12901571D01*
X14362143Y-12939667D01*
X14362143Y-12987286D01*
X14352619Y-13025381D01*
X14343095Y-13044428D01*
X14333571Y-13053952D01*
X14314524Y-13063476D01*
X14295476Y-13063476D01*
X14276428Y-13053952D01*
X14266905Y-13044428D01*
X14257381Y-13025381D01*
X14247857Y-12987286D01*
X14247857Y-12939667D01*
X14257381Y-12901571D01*
X14266905Y-12882524D01*
X14276428Y-12873000D01*
X14295476Y-12863476D01*
X14447857Y-13044428D02*
X14457381Y-13053952D01*
X14447857Y-13063476D01*
X14438333Y-13053952D01*
X14447857Y-13044428D01*
X14447857Y-13063476D01*
X14581190Y-12863476D02*
X14600238Y-12863476D01*
X14619286Y-12873000D01*
X14628809Y-12882524D01*
X14638333Y-12901571D01*
X14647857Y-12939667D01*
X14647857Y-12987286D01*
X14638333Y-13025381D01*
X14628809Y-13044428D01*
X14619286Y-13053952D01*
X14600238Y-13063476D01*
X14581190Y-13063476D01*
X14562143Y-13053952D01*
X14552619Y-13044428D01*
X14543095Y-13025381D01*
X14533571Y-12987286D01*
X14533571Y-12939667D01*
X14543095Y-12901571D01*
X14552619Y-12882524D01*
X14562143Y-12873000D01*
X14581190Y-12863476D01*
X14724048Y-12882524D02*
X14733571Y-12873000D01*
X14752619Y-12863476D01*
X14800238Y-12863476D01*
X14819286Y-12873000D01*
X14828809Y-12882524D01*
X14838333Y-12901571D01*
X14838333Y-12920619D01*
X14828809Y-12949190D01*
X14714524Y-13063476D01*
X14838333Y-13063476D01*
X15019286Y-12863476D02*
X14924048Y-12863476D01*
X14914524Y-12958714D01*
X14924048Y-12949190D01*
X14943095Y-12939667D01*
X14990714Y-12939667D01*
X15009762Y-12949190D01*
X15019286Y-12958714D01*
X15028809Y-12977762D01*
X15028809Y-13025381D01*
X15019286Y-13044428D01*
X15009762Y-13053952D01*
X14990714Y-13063476D01*
X14943095Y-13063476D01*
X14924048Y-13053952D01*
X14914524Y-13044428D01*
X15200238Y-12863476D02*
X15162143Y-12863476D01*
X15143095Y-12873000D01*
X15133571Y-12882524D01*
X15114524Y-12911095D01*
X15105000Y-12949190D01*
X15105000Y-13025381D01*
X15114524Y-13044428D01*
X15124048Y-13053952D01*
X15143095Y-13063476D01*
X15181190Y-13063476D01*
X15200238Y-13053952D01*
X15209762Y-13044428D01*
X15219286Y-13025381D01*
X15219286Y-12977762D01*
X15209762Y-12958714D01*
X15200238Y-12949190D01*
X15181190Y-12939667D01*
X15143095Y-12939667D01*
X15124048Y-12949190D01*
X15114524Y-12958714D01*
X15105000Y-12977762D01*
X15295476Y-12863476D02*
X15295476Y-12901571D01*
X15371667Y-12863476D02*
X15371667Y-12901571D01*
X15666905Y-13139667D02*
X15657381Y-13130143D01*
X15638333Y-13101571D01*
X15628809Y-13082524D01*
X15619286Y-13053952D01*
X15609762Y-13006333D01*
X15609762Y-12968238D01*
X15619286Y-12920619D01*
X15628809Y-12892048D01*
X15638333Y-12873000D01*
X15657381Y-12844428D01*
X15666905Y-12834905D01*
X15733571Y-12882524D02*
X15743095Y-12873000D01*
X15762143Y-12863476D01*
X15809762Y-12863476D01*
X15828809Y-12873000D01*
X15838333Y-12882524D01*
X15847857Y-12901571D01*
X15847857Y-12920619D01*
X15838333Y-12949190D01*
X15724048Y-13063476D01*
X15847857Y-13063476D01*
X16085952Y-13063476D02*
X16085952Y-12863476D01*
X16171667Y-13063476D02*
X16171667Y-12958714D01*
X16162143Y-12939667D01*
X16143095Y-12930143D01*
X16114524Y-12930143D01*
X16095476Y-12939667D01*
X16085952Y-12949190D01*
X16295476Y-13063476D02*
X16276428Y-13053952D01*
X16266905Y-13044428D01*
X16257381Y-13025381D01*
X16257381Y-12968238D01*
X16266905Y-12949190D01*
X16276428Y-12939667D01*
X16295476Y-12930143D01*
X16324048Y-12930143D01*
X16343095Y-12939667D01*
X16352619Y-12949190D01*
X16362143Y-12968238D01*
X16362143Y-13025381D01*
X16352619Y-13044428D01*
X16343095Y-13053952D01*
X16324048Y-13063476D01*
X16295476Y-13063476D01*
X16476428Y-13063476D02*
X16457381Y-13053952D01*
X16447857Y-13034905D01*
X16447857Y-12863476D01*
X16628809Y-13053952D02*
X16609762Y-13063476D01*
X16571667Y-13063476D01*
X16552619Y-13053952D01*
X16543095Y-13034905D01*
X16543095Y-12958714D01*
X16552619Y-12939667D01*
X16571667Y-12930143D01*
X16609762Y-12930143D01*
X16628809Y-12939667D01*
X16638333Y-12958714D01*
X16638333Y-12977762D01*
X16543095Y-12996809D01*
X16714524Y-13053952D02*
X16733571Y-13063476D01*
X16771667Y-13063476D01*
X16790714Y-13053952D01*
X16800238Y-13034905D01*
X16800238Y-13025381D01*
X16790714Y-13006333D01*
X16771667Y-12996809D01*
X16743095Y-12996809D01*
X16724048Y-12987286D01*
X16714524Y-12968238D01*
X16714524Y-12958714D01*
X16724048Y-12939667D01*
X16743095Y-12930143D01*
X16771667Y-12930143D01*
X16790714Y-12939667D01*
X16866905Y-13139667D02*
X16876429Y-13130143D01*
X16895476Y-13101571D01*
X16905000Y-13082524D01*
X16914524Y-13053952D01*
X16924048Y-13006333D01*
X16924048Y-12968238D01*
X16914524Y-12920619D01*
X16905000Y-12892048D01*
X16895476Y-12873000D01*
X16876429Y-12844428D01*
X16866905Y-12834905D01*
D15*
X12077427Y-13279427D02*
X12077427Y-13194573D01*
X11992573Y-13194573D01*
X11992573Y-13279427D01*
X12077427Y-13279427D01*
D11*
X12457381Y-13327476D02*
X12343095Y-13327476D01*
X12400238Y-13327476D02*
X12400238Y-13127476D01*
X12381190Y-13156048D01*
X12362143Y-13175095D01*
X12343095Y-13184619D01*
X12543095Y-13308428D02*
X12552619Y-13317952D01*
X12543095Y-13327476D01*
X12533571Y-13317952D01*
X12543095Y-13308428D01*
X12543095Y-13327476D01*
X12628809Y-13146524D02*
X12638333Y-13137000D01*
X12657381Y-13127476D01*
X12705000Y-13127476D01*
X12724048Y-13137000D01*
X12733571Y-13146524D01*
X12743095Y-13165571D01*
X12743095Y-13184619D01*
X12733571Y-13213190D01*
X12619286Y-13327476D01*
X12743095Y-13327476D01*
X12866905Y-13127476D02*
X12885952Y-13127476D01*
X12905000Y-13137000D01*
X12914524Y-13146524D01*
X12924048Y-13165571D01*
X12933571Y-13203667D01*
X12933571Y-13251286D01*
X12924048Y-13289381D01*
X12914524Y-13308428D01*
X12905000Y-13317952D01*
X12885952Y-13327476D01*
X12866905Y-13327476D01*
X12847857Y-13317952D01*
X12838333Y-13308428D01*
X12828809Y-13289381D01*
X12819286Y-13251286D01*
X12819286Y-13203667D01*
X12828809Y-13165571D01*
X12838333Y-13146524D01*
X12847857Y-13137000D01*
X12866905Y-13127476D01*
X13057381Y-13127476D02*
X13076428Y-13127476D01*
X13095476Y-13137000D01*
X13105000Y-13146524D01*
X13114524Y-13165571D01*
X13124048Y-13203667D01*
X13124048Y-13251286D01*
X13114524Y-13289381D01*
X13105000Y-13308428D01*
X13095476Y-13317952D01*
X13076428Y-13327476D01*
X13057381Y-13327476D01*
X13038333Y-13317952D01*
X13028809Y-13308428D01*
X13019286Y-13289381D01*
X13009762Y-13251286D01*
X13009762Y-13203667D01*
X13019286Y-13165571D01*
X13028809Y-13146524D01*
X13038333Y-13137000D01*
X13057381Y-13127476D01*
X13209762Y-13327476D02*
X13209762Y-13194143D01*
X13209762Y-13213190D02*
X13219286Y-13203667D01*
X13238333Y-13194143D01*
X13266905Y-13194143D01*
X13285952Y-13203667D01*
X13295476Y-13222714D01*
X13295476Y-13327476D01*
X13295476Y-13222714D02*
X13305000Y-13203667D01*
X13324048Y-13194143D01*
X13352619Y-13194143D01*
X13371667Y-13203667D01*
X13381190Y-13222714D01*
X13381190Y-13327476D01*
X13476428Y-13327476D02*
X13476428Y-13194143D01*
X13476428Y-13213190D02*
X13485952Y-13203667D01*
X13505000Y-13194143D01*
X13533571Y-13194143D01*
X13552619Y-13203667D01*
X13562143Y-13222714D01*
X13562143Y-13327476D01*
X13562143Y-13222714D02*
X13571667Y-13203667D01*
X13590714Y-13194143D01*
X13619286Y-13194143D01*
X13638333Y-13203667D01*
X13647857Y-13222714D01*
X13647857Y-13327476D01*
X14038333Y-13117952D02*
X13866905Y-13375095D01*
X14295476Y-13127476D02*
X14314524Y-13127476D01*
X14333571Y-13137000D01*
X14343095Y-13146524D01*
X14352619Y-13165571D01*
X14362143Y-13203667D01*
X14362143Y-13251286D01*
X14352619Y-13289381D01*
X14343095Y-13308428D01*
X14333571Y-13317952D01*
X14314524Y-13327476D01*
X14295476Y-13327476D01*
X14276428Y-13317952D01*
X14266905Y-13308428D01*
X14257381Y-13289381D01*
X14247857Y-13251286D01*
X14247857Y-13203667D01*
X14257381Y-13165571D01*
X14266905Y-13146524D01*
X14276428Y-13137000D01*
X14295476Y-13127476D01*
X14447857Y-13308428D02*
X14457381Y-13317952D01*
X14447857Y-13327476D01*
X14438333Y-13317952D01*
X14447857Y-13308428D01*
X14447857Y-13327476D01*
X14581190Y-13127476D02*
X14600238Y-13127476D01*
X14619286Y-13137000D01*
X14628809Y-13146524D01*
X14638333Y-13165571D01*
X14647857Y-13203667D01*
X14647857Y-13251286D01*
X14638333Y-13289381D01*
X14628809Y-13308428D01*
X14619286Y-13317952D01*
X14600238Y-13327476D01*
X14581190Y-13327476D01*
X14562143Y-13317952D01*
X14552619Y-13308428D01*
X14543095Y-13289381D01*
X14533571Y-13251286D01*
X14533571Y-13203667D01*
X14543095Y-13165571D01*
X14552619Y-13146524D01*
X14562143Y-13137000D01*
X14581190Y-13127476D01*
X14819286Y-13194143D02*
X14819286Y-13327476D01*
X14771667Y-13117952D02*
X14724048Y-13260809D01*
X14847857Y-13260809D01*
X14905000Y-13127476D02*
X15038333Y-13127476D01*
X14952619Y-13327476D01*
X15105000Y-13146524D02*
X15114524Y-13137000D01*
X15133571Y-13127476D01*
X15181190Y-13127476D01*
X15200238Y-13137000D01*
X15209762Y-13146524D01*
X15219286Y-13165571D01*
X15219286Y-13184619D01*
X15209762Y-13213190D01*
X15095476Y-13327476D01*
X15219286Y-13327476D01*
X15295476Y-13127476D02*
X15295476Y-13165571D01*
X15371667Y-13127476D02*
X15371667Y-13165571D01*
X15666905Y-13403667D02*
X15657381Y-13394143D01*
X15638333Y-13365571D01*
X15628809Y-13346524D01*
X15619286Y-13317952D01*
X15609762Y-13270333D01*
X15609762Y-13232238D01*
X15619286Y-13184619D01*
X15628809Y-13156048D01*
X15638333Y-13137000D01*
X15657381Y-13108428D01*
X15666905Y-13098905D01*
X15847857Y-13327476D02*
X15733571Y-13327476D01*
X15790714Y-13327476D02*
X15790714Y-13127476D01*
X15771667Y-13156048D01*
X15752619Y-13175095D01*
X15733571Y-13184619D01*
X16019286Y-13127476D02*
X15981190Y-13127476D01*
X15962143Y-13137000D01*
X15952619Y-13146524D01*
X15933571Y-13175095D01*
X15924048Y-13213190D01*
X15924048Y-13289381D01*
X15933571Y-13308428D01*
X15943095Y-13317952D01*
X15962143Y-13327476D01*
X16000238Y-13327476D01*
X16019286Y-13317952D01*
X16028809Y-13308428D01*
X16038333Y-13289381D01*
X16038333Y-13241762D01*
X16028809Y-13222714D01*
X16019286Y-13213190D01*
X16000238Y-13203667D01*
X15962143Y-13203667D01*
X15943095Y-13213190D01*
X15933571Y-13222714D01*
X15924048Y-13241762D01*
X16276428Y-13327476D02*
X16276428Y-13127476D01*
X16362143Y-13327476D02*
X16362143Y-13222714D01*
X16352619Y-13203667D01*
X16333571Y-13194143D01*
X16305000Y-13194143D01*
X16285952Y-13203667D01*
X16276428Y-13213190D01*
X16485952Y-13327476D02*
X16466905Y-13317952D01*
X16457381Y-13308428D01*
X16447857Y-13289381D01*
X16447857Y-13232238D01*
X16457381Y-13213190D01*
X16466905Y-13203667D01*
X16485952Y-13194143D01*
X16514524Y-13194143D01*
X16533571Y-13203667D01*
X16543095Y-13213190D01*
X16552619Y-13232238D01*
X16552619Y-13289381D01*
X16543095Y-13308428D01*
X16533571Y-13317952D01*
X16514524Y-13327476D01*
X16485952Y-13327476D01*
X16666905Y-13327476D02*
X16647857Y-13317952D01*
X16638333Y-13298905D01*
X16638333Y-13127476D01*
X16819286Y-13317952D02*
X16800238Y-13327476D01*
X16762143Y-13327476D01*
X16743095Y-13317952D01*
X16733571Y-13298905D01*
X16733571Y-13222714D01*
X16743095Y-13203667D01*
X16762143Y-13194143D01*
X16800238Y-13194143D01*
X16819286Y-13203667D01*
X16828810Y-13222714D01*
X16828810Y-13241762D01*
X16733571Y-13260809D01*
X16905000Y-13317952D02*
X16924048Y-13327476D01*
X16962143Y-13327476D01*
X16981190Y-13317952D01*
X16990714Y-13298905D01*
X16990714Y-13289381D01*
X16981190Y-13270333D01*
X16962143Y-13260809D01*
X16933571Y-13260809D01*
X16914524Y-13251286D01*
X16905000Y-13232238D01*
X16905000Y-13222714D01*
X16914524Y-13203667D01*
X16933571Y-13194143D01*
X16962143Y-13194143D01*
X16981190Y-13203667D01*
X17057381Y-13403667D02*
X17066905Y-13394143D01*
X17085952Y-13365571D01*
X17095476Y-13346524D01*
X17105000Y-13317952D01*
X17114524Y-13270333D01*
X17114524Y-13232238D01*
X17105000Y-13184619D01*
X17095476Y-13156048D01*
X17085952Y-13137000D01*
X17066905Y-13108428D01*
X17057381Y-13098905D01*
X11995000Y-13601000D02*
X12095000Y-13501000D01*
X11995000Y-13401000D01*
X11895000Y-13501000D01*
X11995000Y-13601000D01*
X12333571Y-13391476D02*
X12457381Y-13391476D01*
X12390714Y-13467667D01*
X12419286Y-13467667D01*
X12438333Y-13477190D01*
X12447857Y-13486714D01*
X12457381Y-13505762D01*
X12457381Y-13553381D01*
X12447857Y-13572428D01*
X12438333Y-13581952D01*
X12419286Y-13591476D01*
X12362143Y-13591476D01*
X12343095Y-13581952D01*
X12333571Y-13572428D01*
X12543095Y-13572428D02*
X12552619Y-13581952D01*
X12543095Y-13591476D01*
X12533571Y-13581952D01*
X12543095Y-13572428D01*
X12543095Y-13591476D01*
X12628809Y-13410524D02*
X12638333Y-13401000D01*
X12657381Y-13391476D01*
X12705000Y-13391476D01*
X12724048Y-13401000D01*
X12733571Y-13410524D01*
X12743095Y-13429571D01*
X12743095Y-13448619D01*
X12733571Y-13477190D01*
X12619286Y-13591476D01*
X12743095Y-13591476D01*
X12866905Y-13391476D02*
X12885952Y-13391476D01*
X12905000Y-13401000D01*
X12914524Y-13410524D01*
X12924048Y-13429571D01*
X12933571Y-13467667D01*
X12933571Y-13515286D01*
X12924048Y-13553381D01*
X12914524Y-13572428D01*
X12905000Y-13581952D01*
X12885952Y-13591476D01*
X12866905Y-13591476D01*
X12847857Y-13581952D01*
X12838333Y-13572428D01*
X12828809Y-13553381D01*
X12819286Y-13515286D01*
X12819286Y-13467667D01*
X12828809Y-13429571D01*
X12838333Y-13410524D01*
X12847857Y-13401000D01*
X12866905Y-13391476D01*
X13057381Y-13391476D02*
X13076428Y-13391476D01*
X13095476Y-13401000D01*
X13105000Y-13410524D01*
X13114524Y-13429571D01*
X13124048Y-13467667D01*
X13124048Y-13515286D01*
X13114524Y-13553381D01*
X13105000Y-13572428D01*
X13095476Y-13581952D01*
X13076428Y-13591476D01*
X13057381Y-13591476D01*
X13038333Y-13581952D01*
X13028809Y-13572428D01*
X13019286Y-13553381D01*
X13009762Y-13515286D01*
X13009762Y-13467667D01*
X13019286Y-13429571D01*
X13028809Y-13410524D01*
X13038333Y-13401000D01*
X13057381Y-13391476D01*
X13209762Y-13591476D02*
X13209762Y-13458143D01*
X13209762Y-13477190D02*
X13219286Y-13467667D01*
X13238333Y-13458143D01*
X13266905Y-13458143D01*
X13285952Y-13467667D01*
X13295476Y-13486714D01*
X13295476Y-13591476D01*
X13295476Y-13486714D02*
X13305000Y-13467667D01*
X13324048Y-13458143D01*
X13352619Y-13458143D01*
X13371667Y-13467667D01*
X13381190Y-13486714D01*
X13381190Y-13591476D01*
X13476428Y-13591476D02*
X13476428Y-13458143D01*
X13476428Y-13477190D02*
X13485952Y-13467667D01*
X13505000Y-13458143D01*
X13533571Y-13458143D01*
X13552619Y-13467667D01*
X13562143Y-13486714D01*
X13562143Y-13591476D01*
X13562143Y-13486714D02*
X13571667Y-13467667D01*
X13590714Y-13458143D01*
X13619286Y-13458143D01*
X13638333Y-13467667D01*
X13647857Y-13486714D01*
X13647857Y-13591476D01*
X14038333Y-13381952D02*
X13866905Y-13639095D01*
X14295476Y-13391476D02*
X14314524Y-13391476D01*
X14333571Y-13401000D01*
X14343095Y-13410524D01*
X14352619Y-13429571D01*
X14362143Y-13467667D01*
X14362143Y-13515286D01*
X14352619Y-13553381D01*
X14343095Y-13572428D01*
X14333571Y-13581952D01*
X14314524Y-13591476D01*
X14295476Y-13591476D01*
X14276428Y-13581952D01*
X14266905Y-13572428D01*
X14257381Y-13553381D01*
X14247857Y-13515286D01*
X14247857Y-13467667D01*
X14257381Y-13429571D01*
X14266905Y-13410524D01*
X14276428Y-13401000D01*
X14295476Y-13391476D01*
X14447857Y-13572428D02*
X14457381Y-13581952D01*
X14447857Y-13591476D01*
X14438333Y-13581952D01*
X14447857Y-13572428D01*
X14447857Y-13591476D01*
X14647857Y-13591476D02*
X14533571Y-13591476D01*
X14590714Y-13591476D02*
X14590714Y-13391476D01*
X14571667Y-13420048D01*
X14552619Y-13439095D01*
X14533571Y-13448619D01*
X14724048Y-13410524D02*
X14733571Y-13401000D01*
X14752619Y-13391476D01*
X14800238Y-13391476D01*
X14819286Y-13401000D01*
X14828809Y-13410524D01*
X14838333Y-13429571D01*
X14838333Y-13448619D01*
X14828809Y-13477190D01*
X14714524Y-13591476D01*
X14838333Y-13591476D01*
X15009762Y-13391476D02*
X14971667Y-13391476D01*
X14952619Y-13401000D01*
X14943095Y-13410524D01*
X14924048Y-13439095D01*
X14914524Y-13477190D01*
X14914524Y-13553381D01*
X14924048Y-13572428D01*
X14933571Y-13581952D01*
X14952619Y-13591476D01*
X14990714Y-13591476D01*
X15009762Y-13581952D01*
X15019286Y-13572428D01*
X15028809Y-13553381D01*
X15028809Y-13505762D01*
X15019286Y-13486714D01*
X15009762Y-13477190D01*
X14990714Y-13467667D01*
X14952619Y-13467667D01*
X14933571Y-13477190D01*
X14924048Y-13486714D01*
X14914524Y-13505762D01*
X15152619Y-13391476D02*
X15171667Y-13391476D01*
X15190714Y-13401000D01*
X15200238Y-13410524D01*
X15209762Y-13429571D01*
X15219286Y-13467667D01*
X15219286Y-13515286D01*
X15209762Y-13553381D01*
X15200238Y-13572428D01*
X15190714Y-13581952D01*
X15171667Y-13591476D01*
X15152619Y-13591476D01*
X15133571Y-13581952D01*
X15124048Y-13572428D01*
X15114524Y-13553381D01*
X15105000Y-13515286D01*
X15105000Y-13467667D01*
X15114524Y-13429571D01*
X15124048Y-13410524D01*
X15133571Y-13401000D01*
X15152619Y-13391476D01*
X15295476Y-13391476D02*
X15295476Y-13429571D01*
X15371667Y-13391476D02*
X15371667Y-13429571D01*
X15666905Y-13667667D02*
X15657381Y-13658143D01*
X15638333Y-13629571D01*
X15628809Y-13610524D01*
X15619286Y-13581952D01*
X15609762Y-13534333D01*
X15609762Y-13496238D01*
X15619286Y-13448619D01*
X15628809Y-13420048D01*
X15638333Y-13401000D01*
X15657381Y-13372428D01*
X15666905Y-13362905D01*
X15828809Y-13458143D02*
X15828809Y-13591476D01*
X15781190Y-13381952D02*
X15733571Y-13524809D01*
X15857381Y-13524809D01*
X16085952Y-13591476D02*
X16085952Y-13391476D01*
X16171667Y-13591476D02*
X16171667Y-13486714D01*
X16162143Y-13467667D01*
X16143095Y-13458143D01*
X16114524Y-13458143D01*
X16095476Y-13467667D01*
X16085952Y-13477190D01*
X16295476Y-13591476D02*
X16276428Y-13581952D01*
X16266905Y-13572428D01*
X16257381Y-13553381D01*
X16257381Y-13496238D01*
X16266905Y-13477190D01*
X16276428Y-13467667D01*
X16295476Y-13458143D01*
X16324048Y-13458143D01*
X16343095Y-13467667D01*
X16352619Y-13477190D01*
X16362143Y-13496238D01*
X16362143Y-13553381D01*
X16352619Y-13572428D01*
X16343095Y-13581952D01*
X16324048Y-13591476D01*
X16295476Y-13591476D01*
X16476428Y-13591476D02*
X16457381Y-13581952D01*
X16447857Y-13562905D01*
X16447857Y-13391476D01*
X16628809Y-13581952D02*
X16609762Y-13591476D01*
X16571667Y-13591476D01*
X16552619Y-13581952D01*
X16543095Y-13562905D01*
X16543095Y-13486714D01*
X16552619Y-13467667D01*
X16571667Y-13458143D01*
X16609762Y-13458143D01*
X16628809Y-13467667D01*
X16638333Y-13486714D01*
X16638333Y-13505762D01*
X16543095Y-13524809D01*
X16714524Y-13581952D02*
X16733571Y-13591476D01*
X16771667Y-13591476D01*
X16790714Y-13581952D01*
X16800238Y-13562905D01*
X16800238Y-13553381D01*
X16790714Y-13534333D01*
X16771667Y-13524809D01*
X16743095Y-13524809D01*
X16724048Y-13515286D01*
X16714524Y-13496238D01*
X16714524Y-13486714D01*
X16724048Y-13467667D01*
X16743095Y-13458143D01*
X16771667Y-13458143D01*
X16790714Y-13467667D01*
X16866905Y-13667667D02*
X16876429Y-13658143D01*
X16895476Y-13629571D01*
X16905000Y-13610524D01*
X16914524Y-13581952D01*
X16924048Y-13534333D01*
X16924048Y-13496238D01*
X16914524Y-13448619D01*
X16905000Y-13420048D01*
X16895476Y-13401000D01*
X16876429Y-13372428D01*
X16866905Y-13362905D01*
M02*
