M48
; DRILL file {KiCad 6.0.2+dfsg-1} date Sat 14 Feb 2026 12:25:54 AM CET
; FORMAT={-:-/ absolute / metric / decimal}
; #@! TF.CreationDate,2026-02-14T00:25:54+01:00
; #@! TF.GenerationSoftware,Kicad,Pcbnew,6.0.2+dfsg-1
; #@! TF.FileFunction,Plated,1,2,PTH
FMAT,2
METRIC
; #@! TA.AperFunction,Plated,PTH,ViaDrill
T1C0.400
; #@! TA.AperFunction,Plated,PTH,ComponentDrill
T2C0.600
; #@! TA.AperFunction,Plated,PTH,ComponentDrill
T3C0.650
; #@! TA.AperFunction,Plated,PTH,ComponentDrill
T4C1.200
; #@! TA.AperFunction,Plated,PTH,ComponentDrill
T5C3.200
%
G90
G05
T1
X127.25Y-73.25
X129.5Y-83.25
X131.6Y-87.1
X131.6Y-93.9
X140.25Y-85.5
X140.5Y-77.5
X141.5Y-103.0
X144.25Y-77.5
X148.25Y-85.5
X149.5Y-77.5
X150.0Y-103.0
X153.25Y-77.5
X153.75Y-103.0
X159.5Y-113.5
X161.25Y-75.25
X161.25Y-79.0
X161.25Y-84.0
X161.25Y-87.75
X161.25Y-94.0
X161.25Y-102.5
X161.25Y-106.25
X161.5Y-97.75
T3
X140.75Y-88.25
X142.02Y-88.25
T4
X142.785Y-70.182
X142.785Y-110.817
X146.595Y-70.182
X146.595Y-110.817
X150.405Y-70.182
X150.405Y-110.817
X154.215Y-70.182
X154.215Y-110.817
X168.817Y-75.09
X168.817Y-78.9
X168.817Y-82.71
X168.817Y-86.52
X168.817Y-94.48
X168.817Y-98.29
X168.817Y-102.1
X168.817Y-105.91
T5
X125.0Y-67.0
X125.0Y-114.0
X172.0Y-67.0
X172.0Y-114.0
T2
X124.25Y-86.18G85X123.65Y-86.18
G05
X124.25Y-94.82G85X123.65Y-94.82
G05
X128.68Y-86.18G85X127.58Y-86.18
G05
X128.68Y-94.82G85X127.58Y-94.82
G05
T0
M30
