%TF.GenerationSoftware,KiCad,Pcbnew,6.0.2+dfsg-1*%
%TF.CreationDate,2026-02-14T00:25:33+01:00*%
%TF.ProjectId,usb_button_interface,7573625f-6275-4747-946f-6e5f696e7465,rev?*%
%TF.SameCoordinates,Original*%
%TF.FileFunction,Copper,L2,Bot*%
%TF.FilePolarity,Positive*%
%FSLAX46Y46*%
G04 Gerber Fmt 4.6, Leading zero omitted, Abs format (unit mm)*
G04 Created by KiCad (PCBNEW 6.0.2+dfsg-1) date 2026-02-14 00:25:33*
%MOMM*%
%LPD*%
G01*
G04 APERTURE LIST*
G04 Aperture macros list*
%AMRoundRect*
0 Rectangle with rounded corners*
0 $1 Rounding radius*
0 $2 $3 $4 $5 $6 $7 $8 $9 X,Y pos of 4 corners*
0 Add a 4 corners polygon primitive as box body*
4,1,4,$2,$3,$4,$5,$6,$7,$8,$9,$2,$3,0*
0 Add four circle primitives for the rounded corners*
1,1,$1+$1,$2,$3*
1,1,$1+$1,$4,$5*
1,1,$1+$1,$6,$7*
1,1,$1+$1,$8,$9*
0 Add four rect primitives between the rounded corners*
20,1,$1+$1,$2,$3,$4,$5,0*
20,1,$1+$1,$4,$5,$6,$7,0*
20,1,$1+$1,$6,$7,$8,$9,0*
20,1,$1+$1,$8,$9,$2,$3,0*%
G04 Aperture macros list end*
%TA.AperFunction,ComponentPad*%
%ADD10O,2.100000X1.000000*%
%TD*%
%TA.AperFunction,ComponentPad*%
%ADD11O,1.600000X1.000000*%
%TD*%
%TA.AperFunction,ComponentPad*%
%ADD12RoundRect,0.250000X-0.650000X-1.550000X0.650000X-1.550000X0.650000X1.550000X-0.650000X1.550000X0*%
%TD*%
%TA.AperFunction,ComponentPad*%
%ADD13O,1.800000X3.600000*%
%TD*%
%TA.AperFunction,ComponentPad*%
%ADD14RoundRect,0.250000X0.650000X1.550000X-0.650000X1.550000X-0.650000X-1.550000X0.650000X-1.550000X0*%
%TD*%
%TA.AperFunction,ComponentPad*%
%ADD15C,6.400000*%
%TD*%
%TA.AperFunction,ComponentPad*%
%ADD16RoundRect,0.250000X1.550000X-0.650000X1.550000X0.650000X-1.550000X0.650000X-1.550000X-0.650000X0*%
%TD*%
%TA.AperFunction,ComponentPad*%
%ADD17O,3.600000X1.800000*%
%TD*%
%TA.AperFunction,ComponentPad*%
%ADD18R,1.000000X1.000000*%
%TD*%
%TA.AperFunction,ComponentPad*%
%ADD19O,1.000000X1.000000*%
%TD*%
%TA.AperFunction,ViaPad*%
%ADD20C,0.800000*%
%TD*%
G04 APERTURE END LIST*
D10*
%TO.P,J1,S1,SHIELD*%
%TO.N,GND*%
X128130000Y-86180000D03*
D11*
X123950000Y-86180000D03*
X123950000Y-94820000D03*
D10*
X128130000Y-94820000D03*
%TD*%
D12*
%TO.P,J5,1,Pin_1*%
%TO.N,GND*%
X142785000Y-110817500D03*
D13*
%TO.P,J5,2,Pin_2*%
%TO.N,/sw7*%
X146595000Y-110817500D03*
%TO.P,J5,3,Pin_3*%
%TO.N,GND*%
X150405000Y-110817500D03*
%TO.P,J5,4,Pin_4*%
%TO.N,/sw6*%
X154215000Y-110817500D03*
%TD*%
D14*
%TO.P,J4,1,Pin_1*%
%TO.N,GND*%
X154215000Y-70182500D03*
D13*
%TO.P,J4,2,Pin_2*%
%TO.N,/sw5*%
X150405000Y-70182500D03*
%TO.P,J4,3,Pin_3*%
%TO.N,GND*%
X146595000Y-70182500D03*
%TO.P,J4,4,Pin_4*%
%TO.N,/sw4*%
X142785000Y-70182500D03*
%TD*%
D15*
%TO.P,H3,1,1*%
%TO.N,GND*%
X125000000Y-114000000D03*
%TD*%
%TO.P,H4,1,1*%
%TO.N,GND*%
X172000000Y-114000000D03*
%TD*%
D16*
%TO.P,J2,1,Pin_1*%
%TO.N,GND*%
X168817500Y-86520000D03*
D17*
%TO.P,J2,2,Pin_2*%
%TO.N,/sw1*%
X168817500Y-82710000D03*
%TO.P,J2,3,Pin_3*%
%TO.N,GND*%
X168817500Y-78900000D03*
%TO.P,J2,4,Pin_4*%
%TO.N,/sw0*%
X168817500Y-75090000D03*
%TD*%
D15*
%TO.P,H2,1,1*%
%TO.N,GND*%
X172000000Y-67000000D03*
%TD*%
D16*
%TO.P,J3,1,Pin_1*%
%TO.N,GND*%
X168817500Y-105910000D03*
D17*
%TO.P,J3,2,Pin_2*%
%TO.N,/sw3*%
X168817500Y-102100000D03*
%TO.P,J3,3,Pin_3*%
%TO.N,GND*%
X168817500Y-98290000D03*
%TO.P,J3,4,Pin_4*%
%TO.N,/sw2*%
X168817500Y-94480000D03*
%TD*%
D15*
%TO.P,H1,1,1*%
%TO.N,GND*%
X125000000Y-67000000D03*
%TD*%
D18*
%TO.P,J6,1,Pin_1*%
%TO.N,Net-(J6-Pad1)*%
X140750000Y-88250000D03*
D19*
%TO.P,J6,2,Pin_2*%
%TO.N,+3V3*%
X142020000Y-88250000D03*
%TD*%
D20*
%TO.N,GND*%
X149500000Y-77500000D03*
X148250000Y-85500000D03*
X150000000Y-103000000D03*
X161250000Y-94000000D03*
X161250000Y-75250000D03*
X161250000Y-102500000D03*
X131600000Y-87100000D03*
X129500000Y-83250000D03*
X140250000Y-85500000D03*
X141500000Y-103000000D03*
X161250000Y-79000000D03*
X131600000Y-93900000D03*
X153750000Y-103000000D03*
X144250000Y-77500000D03*
X140500000Y-77500000D03*
X153250000Y-77500000D03*
X161250000Y-84000000D03*
X161250000Y-87750000D03*
X161500000Y-97750000D03*
X161250000Y-106250000D03*
X127250000Y-73250000D03*
X159500000Y-113500000D03*
%TD*%
%TA.AperFunction,Conductor*%
%TO.N,GND*%
G36*
X171010312Y-63320002D02*
G01*
X171056805Y-63373658D01*
X171066909Y-63443932D01*
X171037415Y-63508512D01*
X170974802Y-63547707D01*
X170889204Y-63570643D01*
X170882922Y-63572684D01*
X170536824Y-63705539D01*
X170530799Y-63708221D01*
X170200471Y-63876531D01*
X170194761Y-63879828D01*
X169883844Y-64081740D01*
X169878493Y-64085628D01*
X169652957Y-64268264D01*
X169644489Y-64280522D01*
X169650822Y-64291612D01*
X174707522Y-69348312D01*
X174720598Y-69355452D01*
X174730967Y-69347994D01*
X174914372Y-69121507D01*
X174918260Y-69116156D01*
X175120172Y-68805239D01*
X175123469Y-68799529D01*
X175291779Y-68469201D01*
X175294461Y-68463176D01*
X175427316Y-68117078D01*
X175429357Y-68110796D01*
X175452293Y-68025198D01*
X175489245Y-67964575D01*
X175553105Y-67933554D01*
X175623600Y-67941982D01*
X175678347Y-67987185D01*
X175700000Y-68057809D01*
X175700000Y-112942191D01*
X175679998Y-113010312D01*
X175626342Y-113056805D01*
X175556068Y-113066909D01*
X175491488Y-113037415D01*
X175452293Y-112974802D01*
X175429357Y-112889204D01*
X175427316Y-112882922D01*
X175294461Y-112536824D01*
X175291779Y-112530799D01*
X175123469Y-112200471D01*
X175120172Y-112194761D01*
X174918260Y-111883844D01*
X174914372Y-111878493D01*
X174731736Y-111652957D01*
X174719478Y-111644489D01*
X174708388Y-111650822D01*
X169651688Y-116707522D01*
X169644548Y-116720598D01*
X169652006Y-116730967D01*
X169878493Y-116914372D01*
X169883844Y-116918260D01*
X170194761Y-117120172D01*
X170200471Y-117123469D01*
X170530799Y-117291779D01*
X170536824Y-117294461D01*
X170882922Y-117427316D01*
X170889204Y-117429357D01*
X170974802Y-117452293D01*
X171035425Y-117489245D01*
X171066446Y-117553105D01*
X171058018Y-117623600D01*
X171012815Y-117678347D01*
X170942191Y-117700000D01*
X126057809Y-117700000D01*
X125989688Y-117679998D01*
X125943195Y-117626342D01*
X125933091Y-117556068D01*
X125962585Y-117491488D01*
X126025198Y-117452293D01*
X126110796Y-117429357D01*
X126117078Y-117427316D01*
X126463176Y-117294461D01*
X126469201Y-117291779D01*
X126799529Y-117123469D01*
X126805239Y-117120172D01*
X127116156Y-116918260D01*
X127121507Y-116914372D01*
X127347043Y-116731736D01*
X127355511Y-116719478D01*
X127349178Y-116708388D01*
X124641922Y-114001132D01*
X125364408Y-114001132D01*
X125364539Y-114002965D01*
X125368790Y-114009580D01*
X127707522Y-116348312D01*
X127720598Y-116355452D01*
X127730967Y-116347994D01*
X127914372Y-116121507D01*
X127918260Y-116116156D01*
X128120172Y-115805239D01*
X128123469Y-115799529D01*
X128291779Y-115469201D01*
X128294461Y-115463176D01*
X128427316Y-115117078D01*
X128429357Y-115110796D01*
X128525308Y-114752698D01*
X128526679Y-114746248D01*
X128584678Y-114380067D01*
X128585364Y-114373529D01*
X128604767Y-114003301D01*
X168395233Y-114003301D01*
X168414636Y-114373529D01*
X168415322Y-114380067D01*
X168473321Y-114746248D01*
X168474692Y-114752698D01*
X168570643Y-115110796D01*
X168572684Y-115117078D01*
X168705539Y-115463176D01*
X168708221Y-115469201D01*
X168876531Y-115799529D01*
X168879828Y-115805239D01*
X169081740Y-116116156D01*
X169085628Y-116121507D01*
X169268264Y-116347043D01*
X169280522Y-116355511D01*
X169291612Y-116349178D01*
X171627978Y-114012812D01*
X171635592Y-113998868D01*
X171635461Y-113997035D01*
X171631210Y-113990420D01*
X169292478Y-111651688D01*
X169279402Y-111644548D01*
X169269033Y-111652006D01*
X169085628Y-111878493D01*
X169081740Y-111883844D01*
X168879828Y-112194761D01*
X168876531Y-112200471D01*
X168708221Y-112530799D01*
X168705539Y-112536824D01*
X168572684Y-112882922D01*
X168570643Y-112889204D01*
X168474692Y-113247302D01*
X168473321Y-113253752D01*
X168415322Y-113619933D01*
X168414636Y-113626471D01*
X168395233Y-113996699D01*
X168395233Y-114003301D01*
X128604767Y-114003301D01*
X128604767Y-113996699D01*
X128585364Y-113626471D01*
X128584678Y-113619933D01*
X128526679Y-113253752D01*
X128525308Y-113247302D01*
X128429357Y-112889204D01*
X128427316Y-112882922D01*
X128294461Y-112536824D01*
X128291779Y-112530799D01*
X128240762Y-112430673D01*
X141485000Y-112430673D01*
X141485193Y-112435599D01*
X141487396Y-112463581D01*
X141489695Y-112476168D01*
X141531506Y-112620085D01*
X141537755Y-112634524D01*
X141613279Y-112762229D01*
X141622926Y-112774665D01*
X141727835Y-112879574D01*
X141740271Y-112889221D01*
X141867976Y-112964745D01*
X141882415Y-112970994D01*
X142026332Y-113012805D01*
X142038919Y-113015104D01*
X142066901Y-113017307D01*
X142071827Y-113017500D01*
X142512885Y-113017500D01*
X142528124Y-113013025D01*
X142529329Y-113011635D01*
X142531000Y-113003952D01*
X142531000Y-112999385D01*
X143039000Y-112999385D01*
X143043475Y-113014624D01*
X143044865Y-113015829D01*
X143052548Y-113017500D01*
X143498173Y-113017500D01*
X143503099Y-113017307D01*
X143531081Y-113015104D01*
X143543668Y-113012805D01*
X143687585Y-112970994D01*
X143702024Y-112964745D01*
X143829729Y-112889221D01*
X143842165Y-112879574D01*
X143947074Y-112774665D01*
X143956721Y-112762229D01*
X144032245Y-112634524D01*
X144038494Y-112620085D01*
X144080305Y-112476168D01*
X144082604Y-112463581D01*
X144084807Y-112435599D01*
X144085000Y-112430673D01*
X144085000Y-111773470D01*
X145394500Y-111773470D01*
X145409546Y-111937211D01*
X145469435Y-112149564D01*
X145567020Y-112347447D01*
X145570474Y-112352073D01*
X145570475Y-112352074D01*
X145653742Y-112463581D01*
X145699033Y-112524233D01*
X145861051Y-112674001D01*
X146047650Y-112791736D01*
X146252579Y-112873494D01*
X146258239Y-112874620D01*
X146258243Y-112874621D01*
X146463309Y-112915411D01*
X146463312Y-112915411D01*
X146468976Y-112916538D01*
X146474751Y-112916614D01*
X146474755Y-112916614D01*
X146585496Y-112918063D01*
X146689594Y-112919426D01*
X146695292Y-112918447D01*
X146901346Y-112883041D01*
X146901347Y-112883041D01*
X146907043Y-112882062D01*
X147114043Y-112805696D01*
X147303659Y-112692886D01*
X147469543Y-112547410D01*
X147606137Y-112374140D01*
X147708869Y-112178880D01*
X147774297Y-111968167D01*
X147795500Y-111789024D01*
X147795500Y-111771523D01*
X149105000Y-111771523D01*
X149105238Y-111776988D01*
X149119380Y-111938625D01*
X149121283Y-111949418D01*
X149177310Y-112158515D01*
X149181056Y-112168807D01*
X149272540Y-112364996D01*
X149278023Y-112374492D01*
X149402179Y-112551805D01*
X149409235Y-112560213D01*
X149562287Y-112713265D01*
X149570695Y-112720321D01*
X149748008Y-112844477D01*
X149757504Y-112849960D01*
X149953690Y-112941442D01*
X149963986Y-112945190D01*
X150133503Y-112990613D01*
X150147599Y-112990277D01*
X150151000Y-112982335D01*
X150151000Y-112977186D01*
X150659000Y-112977186D01*
X150662973Y-112990717D01*
X150671522Y-112991946D01*
X150846014Y-112945190D01*
X150856310Y-112941442D01*
X151052496Y-112849960D01*
X151061992Y-112844477D01*
X151239305Y-112720321D01*
X151247713Y-112713265D01*
X151400765Y-112560213D01*
X151407821Y-112551805D01*
X151531977Y-112374492D01*
X151537460Y-112364996D01*
X151628944Y-112168807D01*
X151632690Y-112158515D01*
X151688717Y-111949418D01*
X151690620Y-111938625D01*
X151704762Y-111776988D01*
X151704915Y-111773470D01*
X153014500Y-111773470D01*
X153029546Y-111937211D01*
X153089435Y-112149564D01*
X153187020Y-112347447D01*
X153190474Y-112352073D01*
X153190475Y-112352074D01*
X153273742Y-112463581D01*
X153319033Y-112524233D01*
X153481051Y-112674001D01*
X153667650Y-112791736D01*
X153872579Y-112873494D01*
X153878239Y-112874620D01*
X153878243Y-112874621D01*
X154083309Y-112915411D01*
X154083312Y-112915411D01*
X154088976Y-112916538D01*
X154094751Y-112916614D01*
X154094755Y-112916614D01*
X154205496Y-112918063D01*
X154309594Y-112919426D01*
X154315292Y-112918447D01*
X154521346Y-112883041D01*
X154521347Y-112883041D01*
X154527043Y-112882062D01*
X154734043Y-112805696D01*
X154923659Y-112692886D01*
X155089543Y-112547410D01*
X155226137Y-112374140D01*
X155328869Y-112178880D01*
X155394297Y-111968167D01*
X155415500Y-111789024D01*
X155415500Y-111280522D01*
X169644489Y-111280522D01*
X169650822Y-111291612D01*
X171987188Y-113627978D01*
X172001132Y-113635592D01*
X172002965Y-113635461D01*
X172009580Y-113631210D01*
X174348312Y-111292478D01*
X174355452Y-111279402D01*
X174347994Y-111269033D01*
X174121507Y-111085628D01*
X174116156Y-111081740D01*
X173805239Y-110879828D01*
X173799529Y-110876531D01*
X173469201Y-110708221D01*
X173463176Y-110705539D01*
X173117078Y-110572684D01*
X173110796Y-110570643D01*
X172752698Y-110474692D01*
X172746248Y-110473321D01*
X172380067Y-110415322D01*
X172373529Y-110414636D01*
X172003301Y-110395233D01*
X171996699Y-110395233D01*
X171626471Y-110414636D01*
X171619933Y-110415322D01*
X171253752Y-110473321D01*
X171247302Y-110474692D01*
X170889204Y-110570643D01*
X170882922Y-110572684D01*
X170536824Y-110705539D01*
X170530799Y-110708221D01*
X170200471Y-110876531D01*
X170194761Y-110879828D01*
X169883844Y-111081740D01*
X169878493Y-111085628D01*
X169652957Y-111268264D01*
X169644489Y-111280522D01*
X155415500Y-111280522D01*
X155415500Y-109861530D01*
X155400454Y-109697789D01*
X155340565Y-109485436D01*
X155242980Y-109287553D01*
X155229876Y-109270004D01*
X155114420Y-109115391D01*
X155114420Y-109115390D01*
X155110967Y-109110767D01*
X154948949Y-108960999D01*
X154762350Y-108843264D01*
X154557421Y-108761506D01*
X154551761Y-108760380D01*
X154551757Y-108760379D01*
X154346691Y-108719589D01*
X154346688Y-108719589D01*
X154341024Y-108718462D01*
X154335249Y-108718386D01*
X154335245Y-108718386D01*
X154224504Y-108716937D01*
X154120406Y-108715574D01*
X154114709Y-108716553D01*
X154114708Y-108716553D01*
X153908654Y-108751959D01*
X153908653Y-108751959D01*
X153902957Y-108752938D01*
X153695957Y-108829304D01*
X153506341Y-108942114D01*
X153340457Y-109087590D01*
X153203863Y-109260860D01*
X153101131Y-109456120D01*
X153035703Y-109666833D01*
X153014500Y-109845976D01*
X153014500Y-111773470D01*
X151704915Y-111773470D01*
X151705000Y-111771523D01*
X151705000Y-111089615D01*
X151700525Y-111074376D01*
X151699135Y-111073171D01*
X151691452Y-111071500D01*
X150677115Y-111071500D01*
X150661876Y-111075975D01*
X150660671Y-111077365D01*
X150659000Y-111085048D01*
X150659000Y-112977186D01*
X150151000Y-112977186D01*
X150151000Y-111089615D01*
X150146525Y-111074376D01*
X150145135Y-111073171D01*
X150137452Y-111071500D01*
X149123115Y-111071500D01*
X149107876Y-111075975D01*
X149106671Y-111077365D01*
X149105000Y-111085048D01*
X149105000Y-111771523D01*
X147795500Y-111771523D01*
X147795500Y-110545385D01*
X149105000Y-110545385D01*
X149109475Y-110560624D01*
X149110865Y-110561829D01*
X149118548Y-110563500D01*
X150132885Y-110563500D01*
X150148124Y-110559025D01*
X150149329Y-110557635D01*
X150151000Y-110549952D01*
X150151000Y-110545385D01*
X150659000Y-110545385D01*
X150663475Y-110560624D01*
X150664865Y-110561829D01*
X150672548Y-110563500D01*
X151686885Y-110563500D01*
X151702124Y-110559025D01*
X151703329Y-110557635D01*
X151705000Y-110549952D01*
X151705000Y-109863477D01*
X151704762Y-109858012D01*
X151690620Y-109696375D01*
X151688717Y-109685582D01*
X151632690Y-109476485D01*
X151628944Y-109466193D01*
X151537460Y-109270004D01*
X151531977Y-109260508D01*
X151407821Y-109083195D01*
X151400765Y-109074787D01*
X151247713Y-108921735D01*
X151239305Y-108914679D01*
X151061992Y-108790523D01*
X151052496Y-108785040D01*
X150856310Y-108693558D01*
X150846014Y-108689810D01*
X150676497Y-108644387D01*
X150662401Y-108644723D01*
X150659000Y-108652665D01*
X150659000Y-110545385D01*
X150151000Y-110545385D01*
X150151000Y-108657814D01*
X150147027Y-108644283D01*
X150138478Y-108643054D01*
X149963986Y-108689810D01*
X149953690Y-108693558D01*
X149757504Y-108785040D01*
X149748008Y-108790523D01*
X149570695Y-108914679D01*
X149562287Y-108921735D01*
X149409235Y-109074787D01*
X149402179Y-109083195D01*
X149278023Y-109260508D01*
X149272540Y-109270004D01*
X149181056Y-109466193D01*
X149177310Y-109476485D01*
X149121283Y-109685582D01*
X149119380Y-109696375D01*
X149105238Y-109858012D01*
X149105000Y-109863477D01*
X149105000Y-110545385D01*
X147795500Y-110545385D01*
X147795500Y-109861530D01*
X147780454Y-109697789D01*
X147720565Y-109485436D01*
X147622980Y-109287553D01*
X147609876Y-109270004D01*
X147494420Y-109115391D01*
X147494420Y-109115390D01*
X147490967Y-109110767D01*
X147328949Y-108960999D01*
X147142350Y-108843264D01*
X146937421Y-108761506D01*
X146931761Y-108760380D01*
X146931757Y-108760379D01*
X146726691Y-108719589D01*
X146726688Y-108719589D01*
X146721024Y-108718462D01*
X146715249Y-108718386D01*
X146715245Y-108718386D01*
X146604504Y-108716937D01*
X146500406Y-108715574D01*
X146494709Y-108716553D01*
X146494708Y-108716553D01*
X146288654Y-108751959D01*
X146288653Y-108751959D01*
X146282957Y-108752938D01*
X146075957Y-108829304D01*
X145886341Y-108942114D01*
X145720457Y-109087590D01*
X145583863Y-109260860D01*
X145481131Y-109456120D01*
X145415703Y-109666833D01*
X145394500Y-109845976D01*
X145394500Y-111773470D01*
X144085000Y-111773470D01*
X144085000Y-111089615D01*
X144080525Y-111074376D01*
X144079135Y-111073171D01*
X144071452Y-111071500D01*
X143057115Y-111071500D01*
X143041876Y-111075975D01*
X143040671Y-111077365D01*
X143039000Y-111085048D01*
X143039000Y-112999385D01*
X142531000Y-112999385D01*
X142531000Y-111089615D01*
X142526525Y-111074376D01*
X142525135Y-111073171D01*
X142517452Y-111071500D01*
X141503115Y-111071500D01*
X141487876Y-111075975D01*
X141486671Y-111077365D01*
X141485000Y-111085048D01*
X141485000Y-112430673D01*
X128240762Y-112430673D01*
X128123469Y-112200471D01*
X128120172Y-112194761D01*
X127918260Y-111883844D01*
X127914372Y-111878493D01*
X127731736Y-111652957D01*
X127719478Y-111644489D01*
X127708388Y-111650822D01*
X125372022Y-113987188D01*
X125364408Y-114001132D01*
X124641922Y-114001132D01*
X122292478Y-111651688D01*
X122279402Y-111644548D01*
X122269033Y-111652006D01*
X122085628Y-111878493D01*
X122081740Y-111883844D01*
X121879828Y-112194761D01*
X121876531Y-112200471D01*
X121708221Y-112530799D01*
X121705539Y-112536824D01*
X121572684Y-112882922D01*
X121570643Y-112889204D01*
X121547707Y-112974802D01*
X121510755Y-113035425D01*
X121446895Y-113066446D01*
X121376400Y-113058018D01*
X121321653Y-113012815D01*
X121300000Y-112942191D01*
X121300000Y-110376000D01*
X121320002Y-110307879D01*
X121373658Y-110261386D01*
X121426000Y-110250000D01*
X124128795Y-110250000D01*
X124196916Y-110270002D01*
X124243409Y-110323658D01*
X124253513Y-110393932D01*
X124224019Y-110458512D01*
X124161406Y-110497707D01*
X123889204Y-110570643D01*
X123882922Y-110572684D01*
X123536824Y-110705539D01*
X123530799Y-110708221D01*
X123200471Y-110876531D01*
X123194761Y-110879828D01*
X122883844Y-111081740D01*
X122878493Y-111085628D01*
X122652957Y-111268264D01*
X122644489Y-111280522D01*
X122650822Y-111291612D01*
X124987188Y-113627978D01*
X125001132Y-113635592D01*
X125002965Y-113635461D01*
X125009580Y-113631210D01*
X127348312Y-111292478D01*
X127355452Y-111279402D01*
X127347994Y-111269033D01*
X127121507Y-111085628D01*
X127116156Y-111081740D01*
X126805239Y-110879828D01*
X126799529Y-110876531D01*
X126469201Y-110708221D01*
X126463176Y-110705539D01*
X126117078Y-110572684D01*
X126110796Y-110570643D01*
X126016531Y-110545385D01*
X141485000Y-110545385D01*
X141489475Y-110560624D01*
X141490865Y-110561829D01*
X141498548Y-110563500D01*
X142512885Y-110563500D01*
X142528124Y-110559025D01*
X142529329Y-110557635D01*
X142531000Y-110549952D01*
X142531000Y-110545385D01*
X143039000Y-110545385D01*
X143043475Y-110560624D01*
X143044865Y-110561829D01*
X143052548Y-110563500D01*
X144066885Y-110563500D01*
X144082124Y-110559025D01*
X144083329Y-110557635D01*
X144085000Y-110549952D01*
X144085000Y-109204328D01*
X144084807Y-109199401D01*
X144082604Y-109171419D01*
X144080305Y-109158832D01*
X144038494Y-109014915D01*
X144032245Y-109000476D01*
X143956721Y-108872771D01*
X143947074Y-108860335D01*
X143842165Y-108755426D01*
X143829729Y-108745779D01*
X143702024Y-108670255D01*
X143687585Y-108664006D01*
X143543668Y-108622195D01*
X143531081Y-108619896D01*
X143503099Y-108617693D01*
X143498172Y-108617500D01*
X143057115Y-108617500D01*
X143041876Y-108621975D01*
X143040671Y-108623365D01*
X143039000Y-108631048D01*
X143039000Y-110545385D01*
X142531000Y-110545385D01*
X142531000Y-108635615D01*
X142526525Y-108620376D01*
X142525135Y-108619171D01*
X142517452Y-108617500D01*
X142071828Y-108617500D01*
X142066901Y-108617693D01*
X142038919Y-108619896D01*
X142026332Y-108622195D01*
X141882415Y-108664006D01*
X141867976Y-108670255D01*
X141740271Y-108745779D01*
X141727835Y-108755426D01*
X141622926Y-108860335D01*
X141613279Y-108872771D01*
X141537755Y-109000476D01*
X141531506Y-109014915D01*
X141489695Y-109158832D01*
X141487396Y-109171419D01*
X141485193Y-109199401D01*
X141485000Y-109204328D01*
X141485000Y-110545385D01*
X126016531Y-110545385D01*
X125838594Y-110497707D01*
X125777971Y-110460755D01*
X125746950Y-110396895D01*
X125755378Y-110326400D01*
X125800581Y-110271653D01*
X125871205Y-110250000D01*
X133500000Y-110250000D01*
X133500000Y-106623173D01*
X166617500Y-106623173D01*
X166617693Y-106628099D01*
X166619896Y-106656081D01*
X166622195Y-106668668D01*
X166664006Y-106812585D01*
X166670255Y-106827024D01*
X166745779Y-106954729D01*
X166755426Y-106967165D01*
X166860335Y-107072074D01*
X166872771Y-107081721D01*
X167000476Y-107157245D01*
X167014915Y-107163494D01*
X167158832Y-107205305D01*
X167171419Y-107207604D01*
X167199401Y-107209807D01*
X167204327Y-107210000D01*
X168545385Y-107210000D01*
X168560624Y-107205525D01*
X168561829Y-107204135D01*
X168563500Y-107196452D01*
X168563500Y-107191885D01*
X169071500Y-107191885D01*
X169075975Y-107207124D01*
X169077365Y-107208329D01*
X169085048Y-107210000D01*
X170430673Y-107210000D01*
X170435599Y-107209807D01*
X170463581Y-107207604D01*
X170476168Y-107205305D01*
X170620085Y-107163494D01*
X170634524Y-107157245D01*
X170762229Y-107081721D01*
X170774665Y-107072074D01*
X170879574Y-106967165D01*
X170889221Y-106954729D01*
X170964745Y-106827024D01*
X170970994Y-106812585D01*
X171012805Y-106668668D01*
X171015104Y-106656081D01*
X171017307Y-106628099D01*
X171017500Y-106623173D01*
X171017500Y-106182115D01*
X171013025Y-106166876D01*
X171011635Y-106165671D01*
X171003952Y-106164000D01*
X169089615Y-106164000D01*
X169074376Y-106168475D01*
X169073171Y-106169865D01*
X169071500Y-106177548D01*
X169071500Y-107191885D01*
X168563500Y-107191885D01*
X168563500Y-106182115D01*
X168559025Y-106166876D01*
X168557635Y-106165671D01*
X168549952Y-106164000D01*
X166635615Y-106164000D01*
X166620376Y-106168475D01*
X166619171Y-106169865D01*
X166617500Y-106177548D01*
X166617500Y-106623173D01*
X133500000Y-106623173D01*
X133500000Y-105637885D01*
X166617500Y-105637885D01*
X166621975Y-105653124D01*
X166623365Y-105654329D01*
X166631048Y-105656000D01*
X168545385Y-105656000D01*
X168560624Y-105651525D01*
X168561829Y-105650135D01*
X168563500Y-105642452D01*
X168563500Y-105637885D01*
X169071500Y-105637885D01*
X169075975Y-105653124D01*
X169077365Y-105654329D01*
X169085048Y-105656000D01*
X170999385Y-105656000D01*
X171014624Y-105651525D01*
X171015829Y-105650135D01*
X171017500Y-105642452D01*
X171017500Y-105196828D01*
X171017307Y-105191901D01*
X171015104Y-105163919D01*
X171012805Y-105151332D01*
X170970994Y-105007415D01*
X170964745Y-104992976D01*
X170889221Y-104865271D01*
X170879574Y-104852835D01*
X170774665Y-104747926D01*
X170762229Y-104738279D01*
X170634524Y-104662755D01*
X170620085Y-104656506D01*
X170476168Y-104614695D01*
X170463581Y-104612396D01*
X170435599Y-104610193D01*
X170430672Y-104610000D01*
X169089615Y-104610000D01*
X169074376Y-104614475D01*
X169073171Y-104615865D01*
X169071500Y-104623548D01*
X169071500Y-105637885D01*
X168563500Y-105637885D01*
X168563500Y-104628115D01*
X168559025Y-104612876D01*
X168557635Y-104611671D01*
X168549952Y-104610000D01*
X167204328Y-104610000D01*
X167199401Y-104610193D01*
X167171419Y-104612396D01*
X167158832Y-104614695D01*
X167014915Y-104656506D01*
X167000476Y-104662755D01*
X166872771Y-104738279D01*
X166860335Y-104747926D01*
X166755426Y-104852835D01*
X166745779Y-104865271D01*
X166670255Y-104992976D01*
X166664006Y-105007415D01*
X166622195Y-105151332D01*
X166619896Y-105163919D01*
X166617693Y-105191901D01*
X166617500Y-105196828D01*
X166617500Y-105637885D01*
X133500000Y-105637885D01*
X133500000Y-102194594D01*
X166715574Y-102194594D01*
X166716553Y-102200291D01*
X166716553Y-102200292D01*
X166720975Y-102226024D01*
X166752938Y-102412043D01*
X166829304Y-102619043D01*
X166942114Y-102808659D01*
X167087590Y-102974543D01*
X167260860Y-103111137D01*
X167456120Y-103213869D01*
X167666833Y-103279297D01*
X167672570Y-103279976D01*
X167842289Y-103300064D01*
X167842295Y-103300064D01*
X167845976Y-103300500D01*
X169773470Y-103300500D01*
X169937211Y-103285454D01*
X169942773Y-103283885D01*
X169942775Y-103283885D01*
X170043387Y-103255510D01*
X170149564Y-103225565D01*
X170347447Y-103127980D01*
X170370003Y-103111137D01*
X170519609Y-102999420D01*
X170519610Y-102999420D01*
X170524233Y-102995967D01*
X170674001Y-102833949D01*
X170791736Y-102647350D01*
X170873494Y-102442421D01*
X170916538Y-102226024D01*
X170916950Y-102194594D01*
X170919350Y-102011188D01*
X170919426Y-102005406D01*
X170918447Y-101999708D01*
X170883041Y-101793654D01*
X170883041Y-101793653D01*
X170882062Y-101787957D01*
X170805696Y-101580957D01*
X170692886Y-101391341D01*
X170547410Y-101225457D01*
X170374140Y-101088863D01*
X170178880Y-100986131D01*
X169968167Y-100920703D01*
X169954218Y-100919052D01*
X169792711Y-100899936D01*
X169792705Y-100899936D01*
X169789024Y-100899500D01*
X167861530Y-100899500D01*
X167697789Y-100914546D01*
X167692227Y-100916115D01*
X167692225Y-100916115D01*
X167591613Y-100944490D01*
X167485436Y-100974435D01*
X167287553Y-101072020D01*
X167282927Y-101075474D01*
X167282926Y-101075475D01*
X167260209Y-101092439D01*
X167110767Y-101204033D01*
X166960999Y-101366051D01*
X166843264Y-101552650D01*
X166761506Y-101757579D01*
X166718462Y-101973976D01*
X166718386Y-101979751D01*
X166718386Y-101979755D01*
X166717975Y-102011188D01*
X166715574Y-102194594D01*
X133500000Y-102194594D01*
X133500000Y-98556522D01*
X166643054Y-98556522D01*
X166689810Y-98731014D01*
X166693558Y-98741310D01*
X166785040Y-98937496D01*
X166790523Y-98946992D01*
X166914679Y-99124305D01*
X166921735Y-99132713D01*
X167074787Y-99285765D01*
X167083195Y-99292821D01*
X167260508Y-99416977D01*
X167270004Y-99422460D01*
X167466193Y-99513944D01*
X167476485Y-99517690D01*
X167685582Y-99573717D01*
X167696375Y-99575620D01*
X167858012Y-99589762D01*
X167863477Y-99590000D01*
X168545385Y-99590000D01*
X168560624Y-99585525D01*
X168561829Y-99584135D01*
X168563500Y-99576452D01*
X168563500Y-99571885D01*
X169071500Y-99571885D01*
X169075975Y-99587124D01*
X169077365Y-99588329D01*
X169085048Y-99590000D01*
X169771523Y-99590000D01*
X169776988Y-99589762D01*
X169938625Y-99575620D01*
X169949418Y-99573717D01*
X170158515Y-99517690D01*
X170168807Y-99513944D01*
X170364996Y-99422460D01*
X170374492Y-99416977D01*
X170551805Y-99292821D01*
X170560213Y-99285765D01*
X170713265Y-99132713D01*
X170720321Y-99124305D01*
X170844477Y-98946992D01*
X170849960Y-98937496D01*
X170941442Y-98741310D01*
X170945190Y-98731014D01*
X170990613Y-98561497D01*
X170990277Y-98547401D01*
X170982335Y-98544000D01*
X169089615Y-98544000D01*
X169074376Y-98548475D01*
X169073171Y-98549865D01*
X169071500Y-98557548D01*
X169071500Y-99571885D01*
X168563500Y-99571885D01*
X168563500Y-98562115D01*
X168559025Y-98546876D01*
X168557635Y-98545671D01*
X168549952Y-98544000D01*
X166657814Y-98544000D01*
X166644283Y-98547973D01*
X166643054Y-98556522D01*
X133500000Y-98556522D01*
X133500000Y-98018503D01*
X166644387Y-98018503D01*
X166644723Y-98032599D01*
X166652665Y-98036000D01*
X168545385Y-98036000D01*
X168560624Y-98031525D01*
X168561829Y-98030135D01*
X168563500Y-98022452D01*
X168563500Y-98017885D01*
X169071500Y-98017885D01*
X169075975Y-98033124D01*
X169077365Y-98034329D01*
X169085048Y-98036000D01*
X170977186Y-98036000D01*
X170990717Y-98032027D01*
X170991946Y-98023478D01*
X170945190Y-97848986D01*
X170941442Y-97838690D01*
X170849960Y-97642504D01*
X170844477Y-97633008D01*
X170720321Y-97455695D01*
X170713265Y-97447287D01*
X170560213Y-97294235D01*
X170551805Y-97287179D01*
X170374492Y-97163023D01*
X170364996Y-97157540D01*
X170168807Y-97066056D01*
X170158515Y-97062310D01*
X169949418Y-97006283D01*
X169938625Y-97004380D01*
X169776988Y-96990238D01*
X169771523Y-96990000D01*
X169089615Y-96990000D01*
X169074376Y-96994475D01*
X169073171Y-96995865D01*
X169071500Y-97003548D01*
X169071500Y-98017885D01*
X168563500Y-98017885D01*
X168563500Y-97008115D01*
X168559025Y-96992876D01*
X168557635Y-96991671D01*
X168549952Y-96990000D01*
X167863477Y-96990000D01*
X167858012Y-96990238D01*
X167696375Y-97004380D01*
X167685582Y-97006283D01*
X167476485Y-97062310D01*
X167466193Y-97066056D01*
X167270004Y-97157540D01*
X167260508Y-97163023D01*
X167083195Y-97287179D01*
X167074787Y-97294235D01*
X166921735Y-97447287D01*
X166914679Y-97455695D01*
X166790523Y-97633008D01*
X166785040Y-97642504D01*
X166693558Y-97838690D01*
X166689810Y-97848986D01*
X166644387Y-98018503D01*
X133500000Y-98018503D01*
X133500000Y-96750000D01*
X121426000Y-96750000D01*
X121357879Y-96729998D01*
X121311386Y-96676342D01*
X121300000Y-96624000D01*
X121300000Y-95088467D01*
X122786958Y-95088467D01*
X122787963Y-95093192D01*
X122792018Y-95105673D01*
X122863599Y-95266448D01*
X122870165Y-95277820D01*
X122973607Y-95420195D01*
X122982389Y-95429949D01*
X123113172Y-95547707D01*
X123123800Y-95555429D01*
X123276200Y-95643416D01*
X123288202Y-95648760D01*
X123455566Y-95703140D01*
X123468419Y-95705873D01*
X123599566Y-95719656D01*
X123606126Y-95720000D01*
X123677885Y-95720000D01*
X123693124Y-95715525D01*
X123694329Y-95714135D01*
X123696000Y-95706452D01*
X123696000Y-95701885D01*
X124204000Y-95701885D01*
X124208475Y-95717124D01*
X124209865Y-95718329D01*
X124217548Y-95720000D01*
X124293874Y-95720000D01*
X124300434Y-95719656D01*
X124431581Y-95705873D01*
X124444434Y-95703140D01*
X124611798Y-95648760D01*
X124623800Y-95643416D01*
X124776200Y-95555429D01*
X124786828Y-95547707D01*
X124917611Y-95429949D01*
X124926393Y-95420195D01*
X125029835Y-95277821D01*
X125036402Y-95266447D01*
X125107979Y-95105681D01*
X125112038Y-95093186D01*
X125112350Y-95091720D01*
X125112102Y-95088467D01*
X126716958Y-95088467D01*
X126717963Y-95093192D01*
X126722018Y-95105673D01*
X126793599Y-95266448D01*
X126800165Y-95277820D01*
X126903607Y-95420195D01*
X126912389Y-95429949D01*
X127043172Y-95547707D01*
X127053800Y-95555429D01*
X127206200Y-95643416D01*
X127218202Y-95648760D01*
X127385566Y-95703140D01*
X127398419Y-95705873D01*
X127529566Y-95719656D01*
X127536126Y-95720000D01*
X127857885Y-95720000D01*
X127873124Y-95715525D01*
X127874329Y-95714135D01*
X127876000Y-95706452D01*
X127876000Y-95701885D01*
X128384000Y-95701885D01*
X128388475Y-95717124D01*
X128389865Y-95718329D01*
X128397548Y-95720000D01*
X128723874Y-95720000D01*
X128730434Y-95719656D01*
X128861581Y-95705873D01*
X128874434Y-95703140D01*
X129041798Y-95648760D01*
X129053800Y-95643416D01*
X129206200Y-95555429D01*
X129216828Y-95547707D01*
X129347611Y-95429949D01*
X129356393Y-95420195D01*
X129459835Y-95277821D01*
X129466402Y-95266447D01*
X129537979Y-95105681D01*
X129542038Y-95093186D01*
X129542350Y-95091720D01*
X129541277Y-95077659D01*
X129531324Y-95074000D01*
X128402115Y-95074000D01*
X128386876Y-95078475D01*
X128385671Y-95079865D01*
X128384000Y-95087548D01*
X128384000Y-95701885D01*
X127876000Y-95701885D01*
X127876000Y-95092115D01*
X127871525Y-95076876D01*
X127870135Y-95075671D01*
X127862452Y-95074000D01*
X126731998Y-95074000D01*
X126718467Y-95077973D01*
X126716958Y-95088467D01*
X125112102Y-95088467D01*
X125111277Y-95077659D01*
X125101324Y-95074000D01*
X124222115Y-95074000D01*
X124206876Y-95078475D01*
X124205671Y-95079865D01*
X124204000Y-95087548D01*
X124204000Y-95701885D01*
X123696000Y-95701885D01*
X123696000Y-95092115D01*
X123691525Y-95076876D01*
X123690135Y-95075671D01*
X123682452Y-95074000D01*
X122801998Y-95074000D01*
X122788467Y-95077973D01*
X122786958Y-95088467D01*
X121300000Y-95088467D01*
X121300000Y-94574594D01*
X166715574Y-94574594D01*
X166716553Y-94580291D01*
X166716553Y-94580292D01*
X166720975Y-94606024D01*
X166752938Y-94792043D01*
X166829304Y-94999043D01*
X166832256Y-95004004D01*
X166832256Y-95004005D01*
X166876263Y-95077973D01*
X166942114Y-95188659D01*
X167087590Y-95354543D01*
X167260860Y-95491137D01*
X167456120Y-95593869D01*
X167666833Y-95659297D01*
X167672570Y-95659976D01*
X167842289Y-95680064D01*
X167842295Y-95680064D01*
X167845976Y-95680500D01*
X169773470Y-95680500D01*
X169937211Y-95665454D01*
X169942773Y-95663885D01*
X169942775Y-95663885D01*
X170043387Y-95635510D01*
X170149564Y-95605565D01*
X170347447Y-95507980D01*
X170370003Y-95491137D01*
X170519609Y-95379420D01*
X170519610Y-95379420D01*
X170524233Y-95375967D01*
X170674001Y-95213949D01*
X170791736Y-95027350D01*
X170873494Y-94822421D01*
X170916538Y-94606024D01*
X170916950Y-94574594D01*
X170919350Y-94391188D01*
X170919426Y-94385406D01*
X170915435Y-94362179D01*
X170883041Y-94173654D01*
X170883041Y-94173653D01*
X170882062Y-94167957D01*
X170805696Y-93960957D01*
X170784022Y-93924526D01*
X170695840Y-93776306D01*
X170695839Y-93776305D01*
X170692886Y-93771341D01*
X170547410Y-93605457D01*
X170374140Y-93468863D01*
X170178880Y-93366131D01*
X169968167Y-93300703D01*
X169954218Y-93299052D01*
X169792711Y-93279936D01*
X169792705Y-93279936D01*
X169789024Y-93279500D01*
X167861530Y-93279500D01*
X167697789Y-93294546D01*
X167692227Y-93296115D01*
X167692225Y-93296115D01*
X167591612Y-93324491D01*
X167485436Y-93354435D01*
X167287553Y-93452020D01*
X167282927Y-93455474D01*
X167282926Y-93455475D01*
X167204813Y-93513805D01*
X167110767Y-93584033D01*
X166960999Y-93746051D01*
X166843264Y-93932650D01*
X166761506Y-94137579D01*
X166718462Y-94353976D01*
X166718386Y-94359751D01*
X166718386Y-94359755D01*
X166717975Y-94391188D01*
X166715574Y-94574594D01*
X121300000Y-94574594D01*
X121300000Y-94548280D01*
X122787650Y-94548280D01*
X122788723Y-94562341D01*
X122798676Y-94566000D01*
X123677885Y-94566000D01*
X123693124Y-94561525D01*
X123694329Y-94560135D01*
X123696000Y-94552452D01*
X123696000Y-94547885D01*
X124204000Y-94547885D01*
X124208475Y-94563124D01*
X124209865Y-94564329D01*
X124217548Y-94566000D01*
X125098002Y-94566000D01*
X125111533Y-94562027D01*
X125113042Y-94551533D01*
X125112350Y-94548280D01*
X126717650Y-94548280D01*
X126718723Y-94562341D01*
X126728676Y-94566000D01*
X129528002Y-94566000D01*
X129541533Y-94562027D01*
X129543042Y-94551533D01*
X129542037Y-94546808D01*
X129537982Y-94534327D01*
X129466401Y-94373552D01*
X129459835Y-94362180D01*
X129356393Y-94219805D01*
X129347611Y-94210051D01*
X129216828Y-94092293D01*
X129206200Y-94084571D01*
X129053800Y-93996584D01*
X129041798Y-93991240D01*
X128874434Y-93936860D01*
X128861581Y-93934127D01*
X128730434Y-93920344D01*
X128723874Y-93920000D01*
X128273593Y-93920000D01*
X128205472Y-93899998D01*
X128158979Y-93846342D01*
X128148875Y-93776068D01*
X128159585Y-93740351D01*
X128188920Y-93678013D01*
X128228373Y-93594171D01*
X128243703Y-93513805D01*
X128257921Y-93439272D01*
X128257921Y-93439270D01*
X128259406Y-93431486D01*
X128251135Y-93300024D01*
X128249505Y-93274107D01*
X128249505Y-93274105D01*
X128249007Y-93266195D01*
X128225426Y-93193620D01*
X128200279Y-93116225D01*
X128200278Y-93116222D01*
X128197828Y-93108683D01*
X128109086Y-92968848D01*
X127988356Y-92855474D01*
X127843224Y-92775687D01*
X127835549Y-92773716D01*
X127835548Y-92773716D01*
X127690487Y-92736471D01*
X127690484Y-92736471D01*
X127682809Y-92734500D01*
X127558758Y-92734500D01*
X127511286Y-92740497D01*
X127443553Y-92749053D01*
X127443550Y-92749054D01*
X127435688Y-92750047D01*
X127428321Y-92752964D01*
X127428320Y-92752964D01*
X127289070Y-92808097D01*
X127289067Y-92808098D01*
X127281701Y-92811015D01*
X127147713Y-92908363D01*
X127042144Y-93035974D01*
X126971627Y-93185829D01*
X126970141Y-93193620D01*
X126950990Y-93294017D01*
X126940594Y-93348514D01*
X126941872Y-93368823D01*
X126948391Y-93472439D01*
X126950993Y-93513805D01*
X126953442Y-93521341D01*
X126953442Y-93521343D01*
X126980773Y-93605457D01*
X127002172Y-93671317D01*
X127090914Y-93811152D01*
X127096693Y-93816579D01*
X127096694Y-93816580D01*
X127133415Y-93851064D01*
X127169380Y-93912277D01*
X127166541Y-93983217D01*
X127125800Y-94041360D01*
X127110160Y-94052033D01*
X127053797Y-94084573D01*
X127043172Y-94092293D01*
X126912389Y-94210051D01*
X126903607Y-94219805D01*
X126800165Y-94362179D01*
X126793598Y-94373553D01*
X126722021Y-94534319D01*
X126717962Y-94546814D01*
X126717650Y-94548280D01*
X125112350Y-94548280D01*
X125112037Y-94546808D01*
X125107982Y-94534327D01*
X125036401Y-94373552D01*
X125029835Y-94362180D01*
X124926393Y-94219805D01*
X124917611Y-94210051D01*
X124786828Y-94092293D01*
X124776200Y-94084571D01*
X124623800Y-93996584D01*
X124611798Y-93991240D01*
X124444434Y-93936860D01*
X124431581Y-93934127D01*
X124300434Y-93920344D01*
X124293874Y-93920000D01*
X124222115Y-93920000D01*
X124206876Y-93924475D01*
X124205671Y-93925865D01*
X124204000Y-93933548D01*
X124204000Y-94547885D01*
X123696000Y-94547885D01*
X123696000Y-93938115D01*
X123691525Y-93922876D01*
X123690135Y-93921671D01*
X123682452Y-93920000D01*
X123606126Y-93920000D01*
X123599566Y-93920344D01*
X123468419Y-93934127D01*
X123455566Y-93936860D01*
X123288202Y-93991240D01*
X123276200Y-93996584D01*
X123123800Y-94084571D01*
X123113172Y-94092293D01*
X122982389Y-94210051D01*
X122973607Y-94219805D01*
X122870165Y-94362179D01*
X122863598Y-94373553D01*
X122792021Y-94534319D01*
X122787962Y-94546814D01*
X122787650Y-94548280D01*
X121300000Y-94548280D01*
X121300000Y-88794646D01*
X139949500Y-88794646D01*
X139952618Y-88820846D01*
X139998061Y-88923153D01*
X140077287Y-89002241D01*
X140087924Y-89006944D01*
X140087926Y-89006945D01*
X140138223Y-89029181D01*
X140179673Y-89047506D01*
X140205354Y-89050500D01*
X141294646Y-89050500D01*
X141298350Y-89050059D01*
X141298353Y-89050059D01*
X141305746Y-89049179D01*
X141320846Y-89047382D01*
X141339465Y-89039112D01*
X141412518Y-89006663D01*
X141423153Y-89001939D01*
X141462929Y-88962093D01*
X141525211Y-88928014D01*
X141596031Y-88933017D01*
X141621090Y-88945675D01*
X141656789Y-88969036D01*
X141663381Y-88971488D01*
X141663384Y-88971489D01*
X141723122Y-88993705D01*
X141825116Y-89031636D01*
X141832097Y-89032567D01*
X141832099Y-89032568D01*
X141996149Y-89054457D01*
X141996153Y-89054457D01*
X142003130Y-89055388D01*
X142010142Y-89054750D01*
X142010146Y-89054750D01*
X142174960Y-89039751D01*
X142174961Y-89039751D01*
X142181981Y-89039112D01*
X142352782Y-88983615D01*
X142388884Y-88962094D01*
X142500992Y-88895265D01*
X142500994Y-88895264D01*
X142507044Y-88891657D01*
X142637099Y-88767807D01*
X142736483Y-88618222D01*
X142751168Y-88579564D01*
X142797757Y-88456919D01*
X142797758Y-88456914D01*
X142800257Y-88450336D01*
X142825251Y-88272493D01*
X142825565Y-88250000D01*
X142805546Y-88071528D01*
X142746485Y-87901927D01*
X142735143Y-87883775D01*
X142655049Y-87755599D01*
X142651316Y-87749625D01*
X142573246Y-87671008D01*
X142529733Y-87627190D01*
X142529729Y-87627187D01*
X142524770Y-87622193D01*
X142513761Y-87615206D01*
X142466860Y-87585442D01*
X142373136Y-87525963D01*
X142317009Y-87505977D01*
X142210586Y-87468081D01*
X142210581Y-87468080D01*
X142203951Y-87465719D01*
X142196965Y-87464886D01*
X142196961Y-87464885D01*
X142067933Y-87449500D01*
X142025624Y-87444455D01*
X142018621Y-87445191D01*
X142018620Y-87445191D01*
X141854025Y-87462490D01*
X141854021Y-87462491D01*
X141847017Y-87463227D01*
X141840346Y-87465498D01*
X141683677Y-87518832D01*
X141683674Y-87518833D01*
X141677007Y-87521103D01*
X141671011Y-87524792D01*
X141671000Y-87524797D01*
X141618820Y-87556899D01*
X141550319Y-87575558D01*
X141482605Y-87554219D01*
X141463783Y-87538757D01*
X141422713Y-87497759D01*
X141412076Y-87493056D01*
X141412074Y-87493055D01*
X141349741Y-87465498D01*
X141320327Y-87452494D01*
X141294646Y-87449500D01*
X140205354Y-87449500D01*
X140201650Y-87449941D01*
X140201647Y-87449941D01*
X140194254Y-87450821D01*
X140179154Y-87452618D01*
X140170514Y-87456456D01*
X140170513Y-87456456D01*
X140103561Y-87486195D01*
X140076847Y-87498061D01*
X140068628Y-87506294D01*
X140068627Y-87506295D01*
X140045221Y-87529742D01*
X139997759Y-87577287D01*
X139952494Y-87679673D01*
X139949500Y-87705354D01*
X139949500Y-88794646D01*
X121300000Y-88794646D01*
X121300000Y-86448467D01*
X122786958Y-86448467D01*
X122787963Y-86453192D01*
X122792018Y-86465673D01*
X122863599Y-86626448D01*
X122870165Y-86637820D01*
X122973607Y-86780195D01*
X122982389Y-86789949D01*
X123113172Y-86907707D01*
X123123800Y-86915429D01*
X123276200Y-87003416D01*
X123288202Y-87008760D01*
X123455566Y-87063140D01*
X123468419Y-87065873D01*
X123599566Y-87079656D01*
X123606126Y-87080000D01*
X123677885Y-87080000D01*
X123693124Y-87075525D01*
X123694329Y-87074135D01*
X123696000Y-87066452D01*
X123696000Y-87061885D01*
X124204000Y-87061885D01*
X124208475Y-87077124D01*
X124209865Y-87078329D01*
X124217548Y-87080000D01*
X124293874Y-87080000D01*
X124300434Y-87079656D01*
X124431581Y-87065873D01*
X124444434Y-87063140D01*
X124611798Y-87008760D01*
X124623800Y-87003416D01*
X124776200Y-86915429D01*
X124786828Y-86907707D01*
X124917611Y-86789949D01*
X124926393Y-86780195D01*
X125029835Y-86637821D01*
X125036402Y-86626447D01*
X125107979Y-86465681D01*
X125112038Y-86453186D01*
X125112350Y-86451720D01*
X125112102Y-86448467D01*
X126716958Y-86448467D01*
X126717963Y-86453192D01*
X126722018Y-86465673D01*
X126793599Y-86626448D01*
X126800165Y-86637820D01*
X126903607Y-86780195D01*
X126912389Y-86789949D01*
X127043172Y-86907707D01*
X127053797Y-86915426D01*
X127107446Y-86946400D01*
X127156440Y-86997783D01*
X127169877Y-87067496D01*
X127141533Y-87135833D01*
X127042144Y-87255974D01*
X126971627Y-87405829D01*
X126963212Y-87449941D01*
X126942810Y-87556899D01*
X126940594Y-87568514D01*
X126945316Y-87643575D01*
X126949434Y-87709017D01*
X126950993Y-87733805D01*
X126953442Y-87741341D01*
X126953442Y-87741343D01*
X126979437Y-87821345D01*
X127002172Y-87891317D01*
X127090914Y-88031152D01*
X127211644Y-88144526D01*
X127356776Y-88224313D01*
X127364451Y-88226284D01*
X127364452Y-88226284D01*
X127509513Y-88263529D01*
X127509516Y-88263529D01*
X127517191Y-88265500D01*
X127641242Y-88265500D01*
X127688714Y-88259503D01*
X127756447Y-88250947D01*
X127756450Y-88250946D01*
X127764312Y-88249953D01*
X127771679Y-88247036D01*
X127771680Y-88247036D01*
X127910930Y-88191903D01*
X127910933Y-88191902D01*
X127918299Y-88188985D01*
X128052287Y-88091637D01*
X128157856Y-87964026D01*
X128228373Y-87814171D01*
X128243703Y-87733805D01*
X128257921Y-87659272D01*
X128257921Y-87659270D01*
X128259406Y-87651486D01*
X128249007Y-87486195D01*
X128246558Y-87478657D01*
X128200279Y-87336225D01*
X128200278Y-87336222D01*
X128197828Y-87328683D01*
X128162815Y-87273512D01*
X128151221Y-87233173D01*
X166617500Y-87233173D01*
X166617693Y-87238099D01*
X166619896Y-87266081D01*
X166622195Y-87278668D01*
X166664006Y-87422585D01*
X166670255Y-87437024D01*
X166745779Y-87564729D01*
X166755426Y-87577165D01*
X166860335Y-87682074D01*
X166872771Y-87691721D01*
X167000476Y-87767245D01*
X167014915Y-87773494D01*
X167158832Y-87815305D01*
X167171419Y-87817604D01*
X167199401Y-87819807D01*
X167204327Y-87820000D01*
X168545385Y-87820000D01*
X168560624Y-87815525D01*
X168561829Y-87814135D01*
X168563500Y-87806452D01*
X168563500Y-87801885D01*
X169071500Y-87801885D01*
X169075975Y-87817124D01*
X169077365Y-87818329D01*
X169085048Y-87820000D01*
X170430673Y-87820000D01*
X170435599Y-87819807D01*
X170463581Y-87817604D01*
X170476168Y-87815305D01*
X170620085Y-87773494D01*
X170634524Y-87767245D01*
X170762229Y-87691721D01*
X170774665Y-87682074D01*
X170879574Y-87577165D01*
X170889221Y-87564729D01*
X170964745Y-87437024D01*
X170970994Y-87422585D01*
X171012805Y-87278668D01*
X171015104Y-87266081D01*
X171017307Y-87238099D01*
X171017500Y-87233173D01*
X171017500Y-86792115D01*
X171013025Y-86776876D01*
X171011635Y-86775671D01*
X171003952Y-86774000D01*
X169089615Y-86774000D01*
X169074376Y-86778475D01*
X169073171Y-86779865D01*
X169071500Y-86787548D01*
X169071500Y-87801885D01*
X168563500Y-87801885D01*
X168563500Y-86792115D01*
X168559025Y-86776876D01*
X168557635Y-86775671D01*
X168549952Y-86774000D01*
X166635615Y-86774000D01*
X166620376Y-86778475D01*
X166619171Y-86779865D01*
X166617500Y-86787548D01*
X166617500Y-87233173D01*
X128151221Y-87233173D01*
X128143204Y-87205280D01*
X128163595Y-87137274D01*
X128217516Y-87091089D01*
X128269202Y-87080000D01*
X128723874Y-87080000D01*
X128730434Y-87079656D01*
X128861581Y-87065873D01*
X128874434Y-87063140D01*
X129041798Y-87008760D01*
X129053800Y-87003416D01*
X129206200Y-86915429D01*
X129216828Y-86907707D01*
X129347611Y-86789949D01*
X129356393Y-86780195D01*
X129459835Y-86637821D01*
X129466402Y-86626447D01*
X129537979Y-86465681D01*
X129542038Y-86453186D01*
X129542350Y-86451720D01*
X129541277Y-86437659D01*
X129531324Y-86434000D01*
X126731998Y-86434000D01*
X126718467Y-86437973D01*
X126716958Y-86448467D01*
X125112102Y-86448467D01*
X125111277Y-86437659D01*
X125101324Y-86434000D01*
X124222115Y-86434000D01*
X124206876Y-86438475D01*
X124205671Y-86439865D01*
X124204000Y-86447548D01*
X124204000Y-87061885D01*
X123696000Y-87061885D01*
X123696000Y-86452115D01*
X123691525Y-86436876D01*
X123690135Y-86435671D01*
X123682452Y-86434000D01*
X122801998Y-86434000D01*
X122788467Y-86437973D01*
X122786958Y-86448467D01*
X121300000Y-86448467D01*
X121300000Y-86247885D01*
X166617500Y-86247885D01*
X166621975Y-86263124D01*
X166623365Y-86264329D01*
X166631048Y-86266000D01*
X168545385Y-86266000D01*
X168560624Y-86261525D01*
X168561829Y-86260135D01*
X168563500Y-86252452D01*
X168563500Y-86247885D01*
X169071500Y-86247885D01*
X169075975Y-86263124D01*
X169077365Y-86264329D01*
X169085048Y-86266000D01*
X170999385Y-86266000D01*
X171014624Y-86261525D01*
X171015829Y-86260135D01*
X171017500Y-86252452D01*
X171017500Y-85806828D01*
X171017307Y-85801901D01*
X171015104Y-85773919D01*
X171012805Y-85761332D01*
X170970994Y-85617415D01*
X170964745Y-85602976D01*
X170889221Y-85475271D01*
X170879574Y-85462835D01*
X170774665Y-85357926D01*
X170762229Y-85348279D01*
X170634524Y-85272755D01*
X170620085Y-85266506D01*
X170476168Y-85224695D01*
X170463581Y-85222396D01*
X170435599Y-85220193D01*
X170430672Y-85220000D01*
X169089615Y-85220000D01*
X169074376Y-85224475D01*
X169073171Y-85225865D01*
X169071500Y-85233548D01*
X169071500Y-86247885D01*
X168563500Y-86247885D01*
X168563500Y-85238115D01*
X168559025Y-85222876D01*
X168557635Y-85221671D01*
X168549952Y-85220000D01*
X167204328Y-85220000D01*
X167199401Y-85220193D01*
X167171419Y-85222396D01*
X167158832Y-85224695D01*
X167014915Y-85266506D01*
X167000476Y-85272755D01*
X166872771Y-85348279D01*
X166860335Y-85357926D01*
X166755426Y-85462835D01*
X166745779Y-85475271D01*
X166670255Y-85602976D01*
X166664006Y-85617415D01*
X166622195Y-85761332D01*
X166619896Y-85773919D01*
X166617693Y-85801901D01*
X166617500Y-85806828D01*
X166617500Y-86247885D01*
X121300000Y-86247885D01*
X121300000Y-85908280D01*
X122787650Y-85908280D01*
X122788723Y-85922341D01*
X122798676Y-85926000D01*
X123677885Y-85926000D01*
X123693124Y-85921525D01*
X123694329Y-85920135D01*
X123696000Y-85912452D01*
X123696000Y-85907885D01*
X124204000Y-85907885D01*
X124208475Y-85923124D01*
X124209865Y-85924329D01*
X124217548Y-85926000D01*
X125098002Y-85926000D01*
X125111533Y-85922027D01*
X125113042Y-85911533D01*
X125112350Y-85908280D01*
X126717650Y-85908280D01*
X126718723Y-85922341D01*
X126728676Y-85926000D01*
X127857885Y-85926000D01*
X127873124Y-85921525D01*
X127874329Y-85920135D01*
X127876000Y-85912452D01*
X127876000Y-85907885D01*
X128384000Y-85907885D01*
X128388475Y-85923124D01*
X128389865Y-85924329D01*
X128397548Y-85926000D01*
X129528002Y-85926000D01*
X129541533Y-85922027D01*
X129543042Y-85911533D01*
X129542037Y-85906808D01*
X129537982Y-85894327D01*
X129466401Y-85733552D01*
X129459835Y-85722180D01*
X129356393Y-85579805D01*
X129347611Y-85570051D01*
X129216828Y-85452293D01*
X129206200Y-85444571D01*
X129053800Y-85356584D01*
X129041798Y-85351240D01*
X128874434Y-85296860D01*
X128861581Y-85294127D01*
X128730434Y-85280344D01*
X128723874Y-85280000D01*
X128402115Y-85280000D01*
X128386876Y-85284475D01*
X128385671Y-85285865D01*
X128384000Y-85293548D01*
X128384000Y-85907885D01*
X127876000Y-85907885D01*
X127876000Y-85298115D01*
X127871525Y-85282876D01*
X127870135Y-85281671D01*
X127862452Y-85280000D01*
X127536126Y-85280000D01*
X127529566Y-85280344D01*
X127398419Y-85294127D01*
X127385566Y-85296860D01*
X127218202Y-85351240D01*
X127206200Y-85356584D01*
X127053800Y-85444571D01*
X127043172Y-85452293D01*
X126912389Y-85570051D01*
X126903607Y-85579805D01*
X126800165Y-85722179D01*
X126793598Y-85733553D01*
X126722021Y-85894319D01*
X126717962Y-85906814D01*
X126717650Y-85908280D01*
X125112350Y-85908280D01*
X125112037Y-85906808D01*
X125107982Y-85894327D01*
X125036401Y-85733552D01*
X125029835Y-85722180D01*
X124926393Y-85579805D01*
X124917611Y-85570051D01*
X124786828Y-85452293D01*
X124776200Y-85444571D01*
X124623800Y-85356584D01*
X124611798Y-85351240D01*
X124444434Y-85296860D01*
X124431581Y-85294127D01*
X124300434Y-85280344D01*
X124293874Y-85280000D01*
X124222115Y-85280000D01*
X124206876Y-85284475D01*
X124205671Y-85285865D01*
X124204000Y-85293548D01*
X124204000Y-85907885D01*
X123696000Y-85907885D01*
X123696000Y-85298115D01*
X123691525Y-85282876D01*
X123690135Y-85281671D01*
X123682452Y-85280000D01*
X123606126Y-85280000D01*
X123599566Y-85280344D01*
X123468419Y-85294127D01*
X123455566Y-85296860D01*
X123288202Y-85351240D01*
X123276200Y-85356584D01*
X123123800Y-85444571D01*
X123113172Y-85452293D01*
X122982389Y-85570051D01*
X122973607Y-85579805D01*
X122870165Y-85722179D01*
X122863598Y-85733553D01*
X122792021Y-85894319D01*
X122787962Y-85906814D01*
X122787650Y-85908280D01*
X121300000Y-85908280D01*
X121300000Y-82804594D01*
X166715574Y-82804594D01*
X166716553Y-82810291D01*
X166716553Y-82810292D01*
X166720975Y-82836024D01*
X166752938Y-83022043D01*
X166829304Y-83229043D01*
X166942114Y-83418659D01*
X167087590Y-83584543D01*
X167260860Y-83721137D01*
X167456120Y-83823869D01*
X167666833Y-83889297D01*
X167672570Y-83889976D01*
X167842289Y-83910064D01*
X167842295Y-83910064D01*
X167845976Y-83910500D01*
X169773470Y-83910500D01*
X169937211Y-83895454D01*
X169942773Y-83893885D01*
X169942775Y-83893885D01*
X170043387Y-83865510D01*
X170149564Y-83835565D01*
X170347447Y-83737980D01*
X170370003Y-83721137D01*
X170519609Y-83609420D01*
X170519610Y-83609420D01*
X170524233Y-83605967D01*
X170674001Y-83443949D01*
X170791736Y-83257350D01*
X170873494Y-83052421D01*
X170916538Y-82836024D01*
X170916950Y-82804594D01*
X170919350Y-82621188D01*
X170919426Y-82615406D01*
X170918447Y-82609708D01*
X170883041Y-82403654D01*
X170883041Y-82403653D01*
X170882062Y-82397957D01*
X170805696Y-82190957D01*
X170692886Y-82001341D01*
X170547410Y-81835457D01*
X170374140Y-81698863D01*
X170178880Y-81596131D01*
X169968167Y-81530703D01*
X169954218Y-81529052D01*
X169792711Y-81509936D01*
X169792705Y-81509936D01*
X169789024Y-81509500D01*
X167861530Y-81509500D01*
X167697789Y-81524546D01*
X167692227Y-81526115D01*
X167692225Y-81526115D01*
X167591612Y-81554491D01*
X167485436Y-81584435D01*
X167287553Y-81682020D01*
X167282927Y-81685474D01*
X167282926Y-81685475D01*
X167260209Y-81702439D01*
X167110767Y-81814033D01*
X166960999Y-81976051D01*
X166843264Y-82162650D01*
X166761506Y-82367579D01*
X166718462Y-82583976D01*
X166718386Y-82589751D01*
X166718386Y-82589755D01*
X166717975Y-82621188D01*
X166715574Y-82804594D01*
X121300000Y-82804594D01*
X121300000Y-79166522D01*
X166643054Y-79166522D01*
X166689810Y-79341014D01*
X166693558Y-79351310D01*
X166785040Y-79547496D01*
X166790523Y-79556992D01*
X166914679Y-79734305D01*
X166921735Y-79742713D01*
X167074787Y-79895765D01*
X167083195Y-79902821D01*
X167260508Y-80026977D01*
X167270004Y-80032460D01*
X167466193Y-80123944D01*
X167476485Y-80127690D01*
X167685582Y-80183717D01*
X167696375Y-80185620D01*
X167858012Y-80199762D01*
X167863477Y-80200000D01*
X168545385Y-80200000D01*
X168560624Y-80195525D01*
X168561829Y-80194135D01*
X168563500Y-80186452D01*
X168563500Y-80181885D01*
X169071500Y-80181885D01*
X169075975Y-80197124D01*
X169077365Y-80198329D01*
X169085048Y-80200000D01*
X169771523Y-80200000D01*
X169776988Y-80199762D01*
X169938625Y-80185620D01*
X169949418Y-80183717D01*
X170158515Y-80127690D01*
X170168807Y-80123944D01*
X170364996Y-80032460D01*
X170374492Y-80026977D01*
X170551805Y-79902821D01*
X170560213Y-79895765D01*
X170713265Y-79742713D01*
X170720321Y-79734305D01*
X170844477Y-79556992D01*
X170849960Y-79547496D01*
X170941442Y-79351310D01*
X170945190Y-79341014D01*
X170990613Y-79171497D01*
X170990277Y-79157401D01*
X170982335Y-79154000D01*
X169089615Y-79154000D01*
X169074376Y-79158475D01*
X169073171Y-79159865D01*
X169071500Y-79167548D01*
X169071500Y-80181885D01*
X168563500Y-80181885D01*
X168563500Y-79172115D01*
X168559025Y-79156876D01*
X168557635Y-79155671D01*
X168549952Y-79154000D01*
X166657814Y-79154000D01*
X166644283Y-79157973D01*
X166643054Y-79166522D01*
X121300000Y-79166522D01*
X121300000Y-78628503D01*
X166644387Y-78628503D01*
X166644723Y-78642599D01*
X166652665Y-78646000D01*
X168545385Y-78646000D01*
X168560624Y-78641525D01*
X168561829Y-78640135D01*
X168563500Y-78632452D01*
X168563500Y-78627885D01*
X169071500Y-78627885D01*
X169075975Y-78643124D01*
X169077365Y-78644329D01*
X169085048Y-78646000D01*
X170977186Y-78646000D01*
X170990717Y-78642027D01*
X170991946Y-78633478D01*
X170945190Y-78458986D01*
X170941442Y-78448690D01*
X170849960Y-78252504D01*
X170844477Y-78243008D01*
X170720321Y-78065695D01*
X170713265Y-78057287D01*
X170560213Y-77904235D01*
X170551805Y-77897179D01*
X170374492Y-77773023D01*
X170364996Y-77767540D01*
X170168807Y-77676056D01*
X170158515Y-77672310D01*
X169949418Y-77616283D01*
X169938625Y-77614380D01*
X169776988Y-77600238D01*
X169771523Y-77600000D01*
X169089615Y-77600000D01*
X169074376Y-77604475D01*
X169073171Y-77605865D01*
X169071500Y-77613548D01*
X169071500Y-78627885D01*
X168563500Y-78627885D01*
X168563500Y-77618115D01*
X168559025Y-77602876D01*
X168557635Y-77601671D01*
X168549952Y-77600000D01*
X167863477Y-77600000D01*
X167858012Y-77600238D01*
X167696375Y-77614380D01*
X167685582Y-77616283D01*
X167476485Y-77672310D01*
X167466193Y-77676056D01*
X167270004Y-77767540D01*
X167260508Y-77773023D01*
X167083195Y-77897179D01*
X167074787Y-77904235D01*
X166921735Y-78057287D01*
X166914679Y-78065695D01*
X166790523Y-78243008D01*
X166785040Y-78252504D01*
X166693558Y-78448690D01*
X166689810Y-78458986D01*
X166644387Y-78628503D01*
X121300000Y-78628503D01*
X121300000Y-75184594D01*
X166715574Y-75184594D01*
X166716553Y-75190291D01*
X166716553Y-75190292D01*
X166720975Y-75216024D01*
X166752938Y-75402043D01*
X166829304Y-75609043D01*
X166942114Y-75798659D01*
X167087590Y-75964543D01*
X167260860Y-76101137D01*
X167456120Y-76203869D01*
X167666833Y-76269297D01*
X167672570Y-76269976D01*
X167842289Y-76290064D01*
X167842295Y-76290064D01*
X167845976Y-76290500D01*
X169773470Y-76290500D01*
X169937211Y-76275454D01*
X169942773Y-76273885D01*
X169942775Y-76273885D01*
X170043388Y-76245509D01*
X170149564Y-76215565D01*
X170347447Y-76117980D01*
X170370003Y-76101137D01*
X170519609Y-75989420D01*
X170519610Y-75989420D01*
X170524233Y-75985967D01*
X170674001Y-75823949D01*
X170791736Y-75637350D01*
X170873494Y-75432421D01*
X170916538Y-75216024D01*
X170916950Y-75184594D01*
X170919350Y-75001188D01*
X170919426Y-74995406D01*
X170918447Y-74989708D01*
X170883041Y-74783654D01*
X170883041Y-74783653D01*
X170882062Y-74777957D01*
X170805696Y-74570957D01*
X170692886Y-74381341D01*
X170547410Y-74215457D01*
X170374140Y-74078863D01*
X170178880Y-73976131D01*
X169968167Y-73910703D01*
X169954218Y-73909052D01*
X169792711Y-73889936D01*
X169792705Y-73889936D01*
X169789024Y-73889500D01*
X167861530Y-73889500D01*
X167697789Y-73904546D01*
X167692227Y-73906115D01*
X167692225Y-73906115D01*
X167591613Y-73934490D01*
X167485436Y-73964435D01*
X167287553Y-74062020D01*
X167282927Y-74065474D01*
X167282926Y-74065475D01*
X167260209Y-74082439D01*
X167110767Y-74194033D01*
X166960999Y-74356051D01*
X166843264Y-74542650D01*
X166761506Y-74747579D01*
X166718462Y-74963976D01*
X166718386Y-74969751D01*
X166718386Y-74969755D01*
X166717975Y-75001188D01*
X166715574Y-75184594D01*
X121300000Y-75184594D01*
X121300000Y-71138470D01*
X141584500Y-71138470D01*
X141599546Y-71302211D01*
X141659435Y-71514564D01*
X141757020Y-71712447D01*
X141760474Y-71717073D01*
X141760475Y-71717074D01*
X141843742Y-71828581D01*
X141889033Y-71889233D01*
X142051051Y-72039001D01*
X142237650Y-72156736D01*
X142442579Y-72238494D01*
X142448239Y-72239620D01*
X142448243Y-72239621D01*
X142653309Y-72280411D01*
X142653312Y-72280411D01*
X142658976Y-72281538D01*
X142664751Y-72281614D01*
X142664755Y-72281614D01*
X142775496Y-72283063D01*
X142879594Y-72284426D01*
X142885292Y-72283447D01*
X143091346Y-72248041D01*
X143091347Y-72248041D01*
X143097043Y-72247062D01*
X143304043Y-72170696D01*
X143493659Y-72057886D01*
X143659543Y-71912410D01*
X143796137Y-71739140D01*
X143898869Y-71543880D01*
X143964297Y-71333167D01*
X143985500Y-71154024D01*
X143985500Y-71136523D01*
X145295000Y-71136523D01*
X145295238Y-71141988D01*
X145309380Y-71303625D01*
X145311283Y-71314418D01*
X145367310Y-71523515D01*
X145371056Y-71533807D01*
X145462540Y-71729996D01*
X145468023Y-71739492D01*
X145592179Y-71916805D01*
X145599235Y-71925213D01*
X145752287Y-72078265D01*
X145760695Y-72085321D01*
X145938008Y-72209477D01*
X145947504Y-72214960D01*
X146143690Y-72306442D01*
X146153986Y-72310190D01*
X146323503Y-72355613D01*
X146337599Y-72355277D01*
X146341000Y-72347335D01*
X146341000Y-72342186D01*
X146849000Y-72342186D01*
X146852973Y-72355717D01*
X146861522Y-72356946D01*
X147036014Y-72310190D01*
X147046310Y-72306442D01*
X147242496Y-72214960D01*
X147251992Y-72209477D01*
X147429305Y-72085321D01*
X147437713Y-72078265D01*
X147590765Y-71925213D01*
X147597821Y-71916805D01*
X147721977Y-71739492D01*
X147727460Y-71729996D01*
X147818944Y-71533807D01*
X147822690Y-71523515D01*
X147878717Y-71314418D01*
X147880620Y-71303625D01*
X147894762Y-71141988D01*
X147894915Y-71138470D01*
X149204500Y-71138470D01*
X149219546Y-71302211D01*
X149279435Y-71514564D01*
X149377020Y-71712447D01*
X149380474Y-71717073D01*
X149380475Y-71717074D01*
X149463742Y-71828581D01*
X149509033Y-71889233D01*
X149671051Y-72039001D01*
X149857650Y-72156736D01*
X150062579Y-72238494D01*
X150068239Y-72239620D01*
X150068243Y-72239621D01*
X150273309Y-72280411D01*
X150273312Y-72280411D01*
X150278976Y-72281538D01*
X150284751Y-72281614D01*
X150284755Y-72281614D01*
X150395496Y-72283063D01*
X150499594Y-72284426D01*
X150505292Y-72283447D01*
X150711346Y-72248041D01*
X150711347Y-72248041D01*
X150717043Y-72247062D01*
X150924043Y-72170696D01*
X151113659Y-72057886D01*
X151279543Y-71912410D01*
X151371570Y-71795673D01*
X152915000Y-71795673D01*
X152915193Y-71800599D01*
X152917396Y-71828581D01*
X152919695Y-71841168D01*
X152961506Y-71985085D01*
X152967755Y-71999524D01*
X153043279Y-72127229D01*
X153052926Y-72139665D01*
X153157835Y-72244574D01*
X153170271Y-72254221D01*
X153297976Y-72329745D01*
X153312415Y-72335994D01*
X153456332Y-72377805D01*
X153468919Y-72380104D01*
X153496901Y-72382307D01*
X153501827Y-72382500D01*
X153942885Y-72382500D01*
X153958124Y-72378025D01*
X153959329Y-72376635D01*
X153961000Y-72368952D01*
X153961000Y-72364385D01*
X154469000Y-72364385D01*
X154473475Y-72379624D01*
X154474865Y-72380829D01*
X154482548Y-72382500D01*
X154928173Y-72382500D01*
X154933099Y-72382307D01*
X154961081Y-72380104D01*
X154973668Y-72377805D01*
X155117585Y-72335994D01*
X155132024Y-72329745D01*
X155259729Y-72254221D01*
X155272165Y-72244574D01*
X155377074Y-72139665D01*
X155386721Y-72127229D01*
X155462245Y-71999524D01*
X155468494Y-71985085D01*
X155510305Y-71841168D01*
X155512604Y-71828581D01*
X155514807Y-71800599D01*
X155515000Y-71795673D01*
X155515000Y-70454615D01*
X155510525Y-70439376D01*
X155509135Y-70438171D01*
X155501452Y-70436500D01*
X154487115Y-70436500D01*
X154471876Y-70440975D01*
X154470671Y-70442365D01*
X154469000Y-70450048D01*
X154469000Y-72364385D01*
X153961000Y-72364385D01*
X153961000Y-70454615D01*
X153956525Y-70439376D01*
X153955135Y-70438171D01*
X153947452Y-70436500D01*
X152933115Y-70436500D01*
X152917876Y-70440975D01*
X152916671Y-70442365D01*
X152915000Y-70450048D01*
X152915000Y-71795673D01*
X151371570Y-71795673D01*
X151416137Y-71739140D01*
X151518869Y-71543880D01*
X151584297Y-71333167D01*
X151605500Y-71154024D01*
X151605500Y-69910385D01*
X152915000Y-69910385D01*
X152919475Y-69925624D01*
X152920865Y-69926829D01*
X152928548Y-69928500D01*
X153942885Y-69928500D01*
X153958124Y-69924025D01*
X153959329Y-69922635D01*
X153961000Y-69914952D01*
X153961000Y-69910385D01*
X154469000Y-69910385D01*
X154473475Y-69925624D01*
X154474865Y-69926829D01*
X154482548Y-69928500D01*
X155496885Y-69928500D01*
X155512124Y-69924025D01*
X155513329Y-69922635D01*
X155515000Y-69914952D01*
X155515000Y-69720598D01*
X169644548Y-69720598D01*
X169652006Y-69730967D01*
X169878493Y-69914372D01*
X169883844Y-69918260D01*
X170194761Y-70120172D01*
X170200471Y-70123469D01*
X170530799Y-70291779D01*
X170536824Y-70294461D01*
X170882922Y-70427316D01*
X170889204Y-70429357D01*
X171247302Y-70525308D01*
X171253752Y-70526679D01*
X171619933Y-70584678D01*
X171626471Y-70585364D01*
X171996699Y-70604767D01*
X172003301Y-70604767D01*
X172373529Y-70585364D01*
X172380067Y-70584678D01*
X172746248Y-70526679D01*
X172752698Y-70525308D01*
X173110796Y-70429357D01*
X173117078Y-70427316D01*
X173463176Y-70294461D01*
X173469201Y-70291779D01*
X173799529Y-70123469D01*
X173805239Y-70120172D01*
X174116156Y-69918260D01*
X174121507Y-69914372D01*
X174347043Y-69731736D01*
X174355511Y-69719478D01*
X174349178Y-69708388D01*
X172012812Y-67372022D01*
X171998868Y-67364408D01*
X171997035Y-67364539D01*
X171990420Y-67368790D01*
X169651688Y-69707522D01*
X169644548Y-69720598D01*
X155515000Y-69720598D01*
X155515000Y-68569328D01*
X155514807Y-68564401D01*
X155512604Y-68536419D01*
X155510305Y-68523832D01*
X155468494Y-68379915D01*
X155462245Y-68365476D01*
X155386721Y-68237771D01*
X155377074Y-68225335D01*
X155272165Y-68120426D01*
X155259729Y-68110779D01*
X155132024Y-68035255D01*
X155117585Y-68029006D01*
X154973668Y-67987195D01*
X154961081Y-67984896D01*
X154933099Y-67982693D01*
X154928172Y-67982500D01*
X154487115Y-67982500D01*
X154471876Y-67986975D01*
X154470671Y-67988365D01*
X154469000Y-67996048D01*
X154469000Y-69910385D01*
X153961000Y-69910385D01*
X153961000Y-68000615D01*
X153956525Y-67985376D01*
X153955135Y-67984171D01*
X153947452Y-67982500D01*
X153501828Y-67982500D01*
X153496901Y-67982693D01*
X153468919Y-67984896D01*
X153456332Y-67987195D01*
X153312415Y-68029006D01*
X153297976Y-68035255D01*
X153170271Y-68110779D01*
X153157835Y-68120426D01*
X153052926Y-68225335D01*
X153043279Y-68237771D01*
X152967755Y-68365476D01*
X152961506Y-68379915D01*
X152919695Y-68523832D01*
X152917396Y-68536419D01*
X152915193Y-68564401D01*
X152915000Y-68569328D01*
X152915000Y-69910385D01*
X151605500Y-69910385D01*
X151605500Y-69226530D01*
X151590454Y-69062789D01*
X151530565Y-68850436D01*
X151432980Y-68652553D01*
X151419876Y-68635004D01*
X151304420Y-68480391D01*
X151304420Y-68480390D01*
X151300967Y-68475767D01*
X151138949Y-68325999D01*
X150952350Y-68208264D01*
X150747421Y-68126506D01*
X150741761Y-68125380D01*
X150741757Y-68125379D01*
X150536691Y-68084589D01*
X150536688Y-68084589D01*
X150531024Y-68083462D01*
X150525249Y-68083386D01*
X150525245Y-68083386D01*
X150414504Y-68081937D01*
X150310406Y-68080574D01*
X150304709Y-68081553D01*
X150304708Y-68081553D01*
X150098654Y-68116959D01*
X150098653Y-68116959D01*
X150092957Y-68117938D01*
X149885957Y-68194304D01*
X149696341Y-68307114D01*
X149530457Y-68452590D01*
X149393863Y-68625860D01*
X149291131Y-68821120D01*
X149225703Y-69031833D01*
X149204500Y-69210976D01*
X149204500Y-71138470D01*
X147894915Y-71138470D01*
X147895000Y-71136523D01*
X147895000Y-70454615D01*
X147890525Y-70439376D01*
X147889135Y-70438171D01*
X147881452Y-70436500D01*
X146867115Y-70436500D01*
X146851876Y-70440975D01*
X146850671Y-70442365D01*
X146849000Y-70450048D01*
X146849000Y-72342186D01*
X146341000Y-72342186D01*
X146341000Y-70454615D01*
X146336525Y-70439376D01*
X146335135Y-70438171D01*
X146327452Y-70436500D01*
X145313115Y-70436500D01*
X145297876Y-70440975D01*
X145296671Y-70442365D01*
X145295000Y-70450048D01*
X145295000Y-71136523D01*
X143985500Y-71136523D01*
X143985500Y-69910385D01*
X145295000Y-69910385D01*
X145299475Y-69925624D01*
X145300865Y-69926829D01*
X145308548Y-69928500D01*
X146322885Y-69928500D01*
X146338124Y-69924025D01*
X146339329Y-69922635D01*
X146341000Y-69914952D01*
X146341000Y-69910385D01*
X146849000Y-69910385D01*
X146853475Y-69925624D01*
X146854865Y-69926829D01*
X146862548Y-69928500D01*
X147876885Y-69928500D01*
X147892124Y-69924025D01*
X147893329Y-69922635D01*
X147895000Y-69914952D01*
X147895000Y-69228477D01*
X147894762Y-69223012D01*
X147880620Y-69061375D01*
X147878717Y-69050582D01*
X147822690Y-68841485D01*
X147818944Y-68831193D01*
X147727460Y-68635004D01*
X147721977Y-68625508D01*
X147597821Y-68448195D01*
X147590765Y-68439787D01*
X147437713Y-68286735D01*
X147429305Y-68279679D01*
X147251992Y-68155523D01*
X147242496Y-68150040D01*
X147046310Y-68058558D01*
X147036014Y-68054810D01*
X146866497Y-68009387D01*
X146852401Y-68009723D01*
X146849000Y-68017665D01*
X146849000Y-69910385D01*
X146341000Y-69910385D01*
X146341000Y-68022814D01*
X146337027Y-68009283D01*
X146328478Y-68008054D01*
X146153986Y-68054810D01*
X146143690Y-68058558D01*
X145947504Y-68150040D01*
X145938008Y-68155523D01*
X145760695Y-68279679D01*
X145752287Y-68286735D01*
X145599235Y-68439787D01*
X145592179Y-68448195D01*
X145468023Y-68625508D01*
X145462540Y-68635004D01*
X145371056Y-68831193D01*
X145367310Y-68841485D01*
X145311283Y-69050582D01*
X145309380Y-69061375D01*
X145295238Y-69223012D01*
X145295000Y-69228477D01*
X145295000Y-69910385D01*
X143985500Y-69910385D01*
X143985500Y-69226530D01*
X143970454Y-69062789D01*
X143910565Y-68850436D01*
X143812980Y-68652553D01*
X143799876Y-68635004D01*
X143684420Y-68480391D01*
X143684420Y-68480390D01*
X143680967Y-68475767D01*
X143518949Y-68325999D01*
X143332350Y-68208264D01*
X143127421Y-68126506D01*
X143121761Y-68125380D01*
X143121757Y-68125379D01*
X142916691Y-68084589D01*
X142916688Y-68084589D01*
X142911024Y-68083462D01*
X142905249Y-68083386D01*
X142905245Y-68083386D01*
X142794504Y-68081937D01*
X142690406Y-68080574D01*
X142684709Y-68081553D01*
X142684708Y-68081553D01*
X142478654Y-68116959D01*
X142478653Y-68116959D01*
X142472957Y-68117938D01*
X142265957Y-68194304D01*
X142076341Y-68307114D01*
X141910457Y-68452590D01*
X141773863Y-68625860D01*
X141671131Y-68821120D01*
X141605703Y-69031833D01*
X141584500Y-69210976D01*
X141584500Y-71138470D01*
X121300000Y-71138470D01*
X121300000Y-69720598D01*
X122644548Y-69720598D01*
X122652006Y-69730967D01*
X122878493Y-69914372D01*
X122883844Y-69918260D01*
X123194761Y-70120172D01*
X123200471Y-70123469D01*
X123530799Y-70291779D01*
X123536824Y-70294461D01*
X123882922Y-70427316D01*
X123889204Y-70429357D01*
X124247302Y-70525308D01*
X124253752Y-70526679D01*
X124619933Y-70584678D01*
X124626471Y-70585364D01*
X124996699Y-70604767D01*
X125003301Y-70604767D01*
X125373529Y-70585364D01*
X125380067Y-70584678D01*
X125746248Y-70526679D01*
X125752698Y-70525308D01*
X126110796Y-70429357D01*
X126117078Y-70427316D01*
X126463176Y-70294461D01*
X126469201Y-70291779D01*
X126799529Y-70123469D01*
X126805239Y-70120172D01*
X127116156Y-69918260D01*
X127121507Y-69914372D01*
X127347043Y-69731736D01*
X127355511Y-69719478D01*
X127349178Y-69708388D01*
X125012812Y-67372022D01*
X124998868Y-67364408D01*
X124997035Y-67364539D01*
X124990420Y-67368790D01*
X122651688Y-69707522D01*
X122644548Y-69720598D01*
X121300000Y-69720598D01*
X121300000Y-68057809D01*
X121320002Y-67989688D01*
X121373658Y-67943195D01*
X121443932Y-67933091D01*
X121508512Y-67962585D01*
X121547707Y-68025198D01*
X121570643Y-68110796D01*
X121572684Y-68117078D01*
X121705539Y-68463176D01*
X121708221Y-68469201D01*
X121876531Y-68799529D01*
X121879828Y-68805239D01*
X122081740Y-69116156D01*
X122085628Y-69121507D01*
X122268264Y-69347043D01*
X122280522Y-69355511D01*
X122291612Y-69349178D01*
X124639658Y-67001132D01*
X125364408Y-67001132D01*
X125364539Y-67002965D01*
X125368790Y-67009580D01*
X127707522Y-69348312D01*
X127720598Y-69355452D01*
X127730967Y-69347994D01*
X127914372Y-69121507D01*
X127918260Y-69116156D01*
X128120172Y-68805239D01*
X128123469Y-68799529D01*
X128291779Y-68469201D01*
X128294461Y-68463176D01*
X128427316Y-68117078D01*
X128429357Y-68110796D01*
X128525308Y-67752698D01*
X128526679Y-67746248D01*
X128584678Y-67380067D01*
X128585364Y-67373529D01*
X128604767Y-67003301D01*
X168395233Y-67003301D01*
X168414636Y-67373529D01*
X168415322Y-67380067D01*
X168473321Y-67746248D01*
X168474692Y-67752698D01*
X168570643Y-68110796D01*
X168572684Y-68117078D01*
X168705539Y-68463176D01*
X168708221Y-68469201D01*
X168876531Y-68799529D01*
X168879828Y-68805239D01*
X169081740Y-69116156D01*
X169085628Y-69121507D01*
X169268264Y-69347043D01*
X169280522Y-69355511D01*
X169291612Y-69349178D01*
X171627978Y-67012812D01*
X171635592Y-66998868D01*
X171635461Y-66997035D01*
X171631210Y-66990420D01*
X169292478Y-64651688D01*
X169279402Y-64644548D01*
X169269033Y-64652006D01*
X169085628Y-64878493D01*
X169081740Y-64883844D01*
X168879828Y-65194761D01*
X168876531Y-65200471D01*
X168708221Y-65530799D01*
X168705539Y-65536824D01*
X168572684Y-65882922D01*
X168570643Y-65889204D01*
X168474692Y-66247302D01*
X168473321Y-66253752D01*
X168415322Y-66619933D01*
X168414636Y-66626471D01*
X168395233Y-66996699D01*
X168395233Y-67003301D01*
X128604767Y-67003301D01*
X128604767Y-66996699D01*
X128585364Y-66626471D01*
X128584678Y-66619933D01*
X128526679Y-66253752D01*
X128525308Y-66247302D01*
X128429357Y-65889204D01*
X128427316Y-65882922D01*
X128294461Y-65536824D01*
X128291779Y-65530799D01*
X128123469Y-65200471D01*
X128120172Y-65194761D01*
X127918260Y-64883844D01*
X127914372Y-64878493D01*
X127731736Y-64652957D01*
X127719478Y-64644489D01*
X127708388Y-64650822D01*
X125372022Y-66987188D01*
X125364408Y-67001132D01*
X124639658Y-67001132D01*
X127348312Y-64292478D01*
X127355452Y-64279402D01*
X127347994Y-64269033D01*
X127121507Y-64085628D01*
X127116156Y-64081740D01*
X126805239Y-63879828D01*
X126799529Y-63876531D01*
X126469201Y-63708221D01*
X126463176Y-63705539D01*
X126117078Y-63572684D01*
X126110796Y-63570643D01*
X126025198Y-63547707D01*
X125964575Y-63510755D01*
X125933554Y-63446895D01*
X125941982Y-63376400D01*
X125987185Y-63321653D01*
X126057809Y-63300000D01*
X170942191Y-63300000D01*
X171010312Y-63320002D01*
G37*
%TD.AperFunction*%
%TD*%
M02*
